<svg version="1.1" xmlns="http://www.w3.org/2000/svg" viewBox="0 0 790 652" width="790" height="652" class="excalidraw-svg"><!-- svg-source:excalidraw --><metadata></metadata><defs><style class="style-fonts">
      </style></defs><rect x="0" y="0" width="790" height="652" fill="#ffffff"></rect><g stroke-linecap="round" transform="translate(124 55) rotate(0 280 260)"><path d="M277.84 0.39 C298.39 -4.19, 321.4 2.06, 342.4 6.28 C363.4 10.51, 384.54 16.76, 403.85 25.76 C423.15 34.76, 441.66 47.46, 458.25 60.27 C474.83 73.07, 490.24 86.76, 503.34 102.59 C516.45 118.42, 528.12 137.02, 536.86 155.25 C545.6 173.48, 551.83 192.48, 555.79 211.98 C559.76 231.48, 561.84 252.12, 560.65 272.25 C559.46 292.38, 554.78 313.47, 548.68 332.75 C542.58 352.02, 534.66 370.45, 524.03 387.89 C513.39 405.33, 499.63 422.59, 484.87 437.39 C470.12 452.19, 453.42 465.5, 435.49 476.69 C417.57 487.88, 397.41 497.75, 377.33 504.52 C357.24 511.29, 336.34 514.95, 314.99 517.29 C293.63 519.64, 270.57 520.55, 249.22 518.58 C227.88 516.6, 207.12 512.23, 186.93 505.45 C166.74 498.66, 146.28 488.61, 128.09 477.85 C109.89 467.09, 92.59 455.18, 77.74 440.9 C62.9 426.62, 49.79 409.66, 39 392.15 C28.22 374.64, 19.52 354.85, 13.04 335.83 C6.56 316.8, 1.67 297.84, 0.12 278.02 C-1.44 258.19, 0.13 236.58, 3.7 216.87 C7.28 197.16, 13.19 178, 21.57 159.77 C29.94 141.53, 41.08 123.88, 53.95 107.48 C66.82 91.07, 82.45 74.35, 98.77 61.35 C115.1 48.35, 132.96 38.38, 151.9 29.48 C170.84 20.58, 188.43 12.95, 212.4 7.96 C236.36 2.96, 278.59 -0.38, 295.7 -0.48 C312.8 -0.57, 315.3 2.96, 315.03 7.39 M292.12 -0.47 C313.04 -3.96, 336.83 3.69, 357.44 9.11 C378.05 14.54, 397.27 22.23, 415.78 32.1 C434.29 41.96, 452.66 54.6, 468.5 68.32 C484.34 82.04, 498.41 97.94, 510.82 114.42 C523.23 130.9, 534.97 148.69, 542.98 167.18 C551 185.68, 556.52 205.39, 558.91 225.4 C561.29 245.4, 559.59 267.1, 557.3 287.23 C555.01 307.36, 552.08 327.31, 545.19 346.18 C538.3 365.04, 527.86 383.82, 515.97 400.42 C504.09 417.02, 489.22 432.17, 473.87 445.77 C458.52 459.38, 442.33 471.52, 423.87 482.04 C405.41 492.57, 383.62 502.54, 363.11 508.93 C342.59 515.31, 322.22 519.29, 300.77 520.33 C279.31 521.38, 255.73 518.46, 234.39 515.2 C213.04 511.94, 192.61 508.25, 172.71 500.76 C152.81 493.27, 132.47 482.03, 115 470.27 C97.54 458.5, 81.94 445.09, 67.9 430.17 C53.85 415.26, 40.47 398.76, 30.73 380.8 C20.98 362.84, 14.73 342.07, 9.43 322.42 C4.12 302.76, -0.53 282.84, -1.09 262.88 C-1.65 242.92, 1.01 222.24, 6.05 202.66 C11.09 183.09, 19.66 163.36, 29.15 145.43 C38.63 127.5, 49.77 110.27, 62.98 95.1 C76.18 79.94, 91.31 66.6, 108.36 54.42 C125.42 42.24, 145.43 30.08, 165.29 22.02 C185.16 13.97, 206.62 9.68, 227.57 6.08 C248.52 2.48, 280.15 0.46, 290.99 0.41 C301.84 0.36, 292.51 1.28, 292.62 5.78" stroke="#343a40" stroke-width="2" fill="none"></path></g><g stroke-linecap="round"><g transform="translate(406 311) rotate(0 -140.7419820397971 1.419339320067614)"><path d="M-1.02 -0.61 C-47.59 -0.09, -233.81 1.37, -280.46 2 M0.64 1.68 C-45.9 2.44, -233.86 2.6, -280.88 3.09" stroke="#ffd43b" stroke-width="2" fill="none"></path></g><g transform="translate(406 311) rotate(0 -140.7419820397971 1.419339320067614)"><path d="M-257.43 -5.58 C-263.5 -2.25, -268.85 -1.23, -280.88 3.09 M-257.43 -5.58 C-265.62 -3.19, -272.75 0.39, -280.88 3.09" stroke="#ffd43b" stroke-width="2" fill="none"></path></g><g transform="translate(406 311) rotate(0 -140.7419820397971 1.419339320067614)"><path d="M-257.34 11.52 C-263.27 11.23, -268.63 8.63, -280.88 3.09 M-257.34 11.52 C-265.68 8.34, -272.84 6.34, -280.88 3.09" stroke="#ffd43b" stroke-width="2" fill="none"></path></g></g><mask></mask><g stroke-linecap="round"><g transform="translate(408 311) rotate(0 -0.5962921388052393 132.69258427761045)"><path d="M1.08 0.34 C0.84 44.7, 0.02 221.59, -0.49 265.59 M0.19 -0.53 C-0.24 43.49, -1.12 219.3, -1.07 263.57" stroke="#ffd43b" stroke-width="2" fill="none"></path></g><g transform="translate(408 311) rotate(0 -0.5962921388052393 132.69258427761045)"><path d="M-9.56 240.05 C-5.87 250.14, -2.85 256.66, -1.07 263.57 M-9.56 240.05 C-7.83 244.4, -6.33 249.9, -1.07 263.57" stroke="#ffd43b" stroke-width="2" fill="none"></path></g><g transform="translate(408 311) rotate(0 -0.5962921388052393 132.69258427761045)"><path d="M7.54 240.1 C4.7 250.32, 1.17 256.82, -1.07 263.57 M7.54 240.1 C5.64 244.45, 3.51 249.94, -1.07 263.57" stroke="#ffd43b" stroke-width="2" fill="none"></path></g></g><mask></mask><g stroke-linecap="round"><g transform="translate(411 312) rotate(0 138.4568060942055 -0.8740836565232826)"><path d="M0.25 0.62 C46.71 0.28, 232.09 -1.26, 278.07 -1.46 M-1.08 -0.1 C45.39 -0.88, 231.11 -3.06, 277.73 -3.43" stroke="#ffd43b" stroke-width="2" fill="none"></path></g><g transform="translate(411 312) rotate(0 138.4568060942055 -0.8740836565232826)"><path d="M254.33 5.36 C260.97 5.12, 266.07 -0.2, 277.73 -3.43 M254.33 5.36 C264.2 1.36, 272.09 -2.5, 277.73 -3.43" stroke="#ffd43b" stroke-width="2" fill="none"></path></g><g transform="translate(411 312) rotate(0 138.4568060942055 -0.8740836565232826)"><path d="M254.15 -11.74 C260.92 -7.85, 266.07 -9.04, 277.73 -3.43 M254.15 -11.74 C264.24 -8.97, 272.2 -6.06, 277.73 -3.43" stroke="#ffd43b" stroke-width="2" fill="none"></path></g></g><mask></mask><g stroke-linecap="round"><g transform="translate(408 313) rotate(0 2.570674248285428 -128.2120227448563)"><path d="M-0.58 0.59 C0.28 -41.94, 3.62 -212.29, 4.37 -255.22 M1.32 -0.15 C2.63 -42.98, 5.86 -214.07, 6.68 -256.72" stroke="#ffd43b" stroke-width="2" fill="none"></path></g><g transform="translate(408 313) rotate(0 2.570674248285428 -128.2120227448563)"><path d="M14.78 -233.07 C13.86 -239.95, 12.98 -246.2, 6.68 -256.72 M14.78 -233.07 C13.04 -239.08, 11.66 -244.09, 6.68 -256.72" stroke="#ffd43b" stroke-width="2" fill="none"></path></g><g transform="translate(408 313) rotate(0 2.570674248285428 -128.2120227448563)"><path d="M-2.32 -233.39 C0.78 -240.12, 3.92 -246.29, 6.68 -256.72 M-2.32 -233.39 C0.22 -239.17, 3.12 -244.1, 6.68 -256.72" stroke="#ffd43b" stroke-width="2" fill="none"></path></g></g><mask></mask><g stroke-linecap="round"><g transform="translate(404 312) rotate(0 93.5 -95.5)"><path d="M0.61 0.08 C16.33 -15.55, 64.27 -62, 95.38 -93.89 C126.49 -125.78, 172.12 -175.08, 187.26 -191.27 M-0.53 -0.93 C15.5 -16.42, 66.57 -61.29, 97.77 -92.82 C128.96 -124.35, 171.92 -173.9, 186.64 -190.1" stroke="#4dabf7" stroke-width="2" fill="none"></path></g></g><mask></mask><g stroke-linecap="round"><g transform="translate(407 310) rotate(0 95 -0.5)"><path d="M1.06 0.87 C32.76 0.9, 158.24 -0.26, 189.89 -0.46 M0.16 0.29 C31.72 0, 157.12 -1.87, 188.88 -2.3" stroke="#4dabf7" stroke-width="2" fill="none"></path></g></g><mask></mask><g stroke-linecap="round"><g transform="translate(592 308) rotate(0 0 -93.5)"><path d="M1.07 -0.25 C1.02 -31.72, -0.36 -156.95, -0.56 -187.89 M0.18 -1.43 C-0.06 -32.85, -1.62 -155.79, -1.8 -186.82" stroke="#4dabf7" stroke-width="2" fill="none"></path></g></g><mask></mask><g stroke-linecap="round"><g transform="translate(571 307) rotate(0 0 -11)"><path d="M0.08 0.48 C-0.06 -3.17, -0.29 -18.4, -0.32 -22.17 M-0.54 0.25 C-0.54 -3.29, 0.75 -17.92, 0.75 -21.55" stroke="#fab005" stroke-width="2" fill="none"></path></g></g><mask></mask><g stroke-linecap="round"><g transform="translate(572 284) rotate(0 8.5 -0.5)"><path d="M-0.12 -0.54 C2.66 -0.86, 13.75 -1.48, 16.54 -1.52 M0.82 0.37 C3.78 0.07, 14.71 -0.73, 17.54 -1.08" stroke="#fab005" stroke-width="2" fill="none"></path></g></g><mask></mask><g transform="translate(449 214) rotate(0 2.5 -7.5)" stroke="none"><path fill="#343a40" d="M -0.39,0.58 Q -0.39,0.58 -1.39,0.22 -2.39,-0.14 -3.13,-0.55 -3.86,-0.97 -3.99,-1.08 -4.13,-1.20 -4.24,-1.35 -4.34,-1.49 -4.41,-1.66 -4.47,-1.83 -4.50,-2.01 -4.52,-2.18 -4.50,-2.36 -4.48,-2.54 -4.42,-2.71 -4.36,-2.88 -4.26,-3.03 -4.16,-3.18 -4.03,-3.30 -3.90,-3.42 -3.74,-3.51 -3.58,-3.60 -3.41,-3.64 -3.23,-3.69 -3.05,-3.69 -2.87,-3.69 -2.70,-3.65 -2.52,-3.61 -2.36,-3.53 -2.20,-3.45 -1.52,-2.60 -0.84,-1.74 0.24,-0.90 1.34,-0.06 2.78,1.29 4.23,2.64 5.42,3.78 6.60,4.93 7.40,5.70 8.19,6.47 8.83,7.08 9.46,7.68 9.61,7.86 9.76,8.05 9.86,8.27 9.96,8.48 10.00,8.72 10.05,8.95 10.03,9.19 10.02,9.43 9.95,9.65 9.88,9.88 9.76,10.08 9.64,10.29 9.47,10.46 9.30,10.63 9.10,10.75 8.90,10.88 8.67,10.95 8.45,11.02 8.21,11.04 7.97,11.05 7.74,11.01 7.50,10.97 7.28,10.88 7.07,10.78 6.88,10.63 6.69,10.49 5.84,9.91 4.99,9.33 3.59,7.81 2.19,6.29 1.08,4.80 -0.03,3.31 -1.16,1.12 -2.28,-1.07 -3.33,-3.75 -4.38,-6.43 -4.86,-8.86 -5.34,-11.29 -5.54,-13.50 -5.73,-15.71 -5.47,-17.77 -5.21,-19.83 -4.32,-21.03 -3.43,-22.23 -2.58,-22.72 -1.73,-23.20 -0.62,-23.36 0.47,-23.53 2.77,-24.32 5.08,-25.11 5.17,-25.16 5.27,-25.21 5.37,-25.23 5.47,-25.25 5.58,-25.24 5.68,-25.22 5.78,-25.17 5.87,-25.12 5.95,-25.05 6.02,-24.97 6.07,-24.88 6.11,-24.78 6.13,-24.67 6.14,-24.57 6.12,-24.47 6.10,-24.36 6.05,-24.27 5.99,-24.18 5.91,-24.11 5.83,-24.04 5.73,-24.00 5.64,-23.96 5.53,-23.95 5.42,-23.94 5.32,-23.97 5.22,-23.99 5.13,-24.05 5.04,-24.11 4.98,-24.19 4.91,-24.28 4.87,-24.38 4.84,-24.48 4.84,-24.58 4.84,-24.69 4.87,-24.79 4.90,-24.89 4.96,-24.98 5.03,-25.06 5.11,-25.13 5.20,-25.19 5.30,-25.22 5.40,-25.25 5.51,-25.24 5.62,-25.24 5.72,-25.20 5.81,-25.16 5.90,-25.09 5.98,-25.03 6.04,-24.94 6.09,-24.85 6.12,-24.74 6.14,-24.64 6.13,-24.53 6.12,-24.43 6.08,-24.33 6.03,-24.23 5.96,-24.16 5.89,-24.08 5.89,-24.08 5.89,-24.08 4.32,-22.63 2.75,-21.18 1.93,-20.62 1.11,-20.06 0.57,-19.96 0.04,-19.85 -0.67,-19.41 -1.40,-18.96 -1.56,-17.50 -1.72,-16.05 -1.55,-14.04 -1.37,-12.04 -0.99,-9.97 -0.61,-7.89 0.35,-5.39 1.32,-2.88 2.26,-0.99 3.20,0.90 4.21,2.26 5.23,3.63 6.16,4.77 7.09,5.91 8.28,6.79 9.46,7.68 9.61,7.86 9.76,8.05 9.86,8.27 9.96,8.48 10.00,8.72 10.04,8.95 10.03,9.19 10.02,9.43 9.95,9.65 9.88,9.88 9.76,10.08 9.64,10.29 9.47,10.46 9.30,10.63 9.10,10.75 8.90,10.88 8.67,10.95 8.45,11.02 8.21,11.04 7.97,11.05 7.74,11.01 7.50,10.97 7.29,10.88 7.07,10.78 6.88,10.63 6.69,10.49 6.08,9.86 5.47,9.23 4.70,8.45 3.92,7.67 2.76,6.53 1.61,5.38 0.24,4.04 -1.11,2.71 -2.49,0.87 -3.86,-0.97 -3.99,-1.08 -4.13,-1.20 -4.24,-1.35 -4.34,-1.49 -4.41,-1.66 -4.47,-1.83 -4.50,-2.01 -4.52,-2.18 -4.50,-2.36 -4.48,-2.54 -4.42,-2.71 -4.36,-2.88 -4.26,-3.03 -4.16,-3.18 -4.03,-3.30 -3.90,-3.42 -3.74,-3.51 -3.58,-3.60 -3.41,-3.64 -3.23,-3.69 -3.05,-3.69 -2.87,-3.69 -2.70,-3.65 -2.52,-3.61 -2.36,-3.53 -2.20,-3.45 -1.62,-2.80 -1.05,-2.15 -0.32,-1.37 0.39,-0.58 0.45,-0.53 0.52,-0.47 0.57,-0.40 0.62,-0.33 0.65,-0.25 0.68,-0.18 0.69,-0.09 0.70,-0.01 0.69,0.07 0.69,0.15 0.66,0.23 0.63,0.31 0.58,0.39 0.53,0.46 0.47,0.51 0.41,0.57 0.33,0.61 0.26,0.65 0.17,0.68 0.09,0.70 0.01,0.70 -0.07,0.70 -0.15,0.68 -0.24,0.66 -0.31,0.62 -0.39,0.58 -0.39,0.58 L -0.39,0.58 Z"></path></g><g transform="translate(470 197) rotate(0 7.5 -6.5)" stroke="none"><path fill="#343a40" d="M -0.55,-0.55 Q -0.55,-0.55 0.24,-2.05 1.03,-3.56 2.64,-5.22 4.26,-6.89 5.88,-8.23 7.50,-9.57 8.70,-10.66 9.91,-11.74 11.74,-12.16 13.57,-12.58 13.63,-12.62 13.70,-12.67 13.77,-12.70 13.84,-12.73 13.92,-12.74 14.00,-12.75 14.08,-12.74 14.16,-12.73 14.23,-12.70 14.31,-12.67 14.37,-12.63 14.44,-12.58 14.49,-12.53 14.54,-12.47 14.58,-12.40 14.62,-12.33 14.64,-12.25 14.66,-12.17 14.66,-12.09 14.66,-12.02 14.64,-11.94 14.62,-11.86 14.59,-11.79 14.55,-11.72 14.50,-11.66 14.45,-11.60 14.52,-11.70 14.60,-11.81 14.54,-11.72 14.48,-11.63 14.39,-11.57 14.31,-11.50 14.21,-11.47 14.10,-11.44 14.00,-11.44 13.89,-11.44 13.79,-11.48 13.69,-11.51 13.61,-11.58 13.52,-11.64 13.47,-11.73 13.41,-11.82 13.38,-11.92 13.35,-12.03 13.36,-12.13 13.37,-12.24 13.41,-12.34 13.45,-12.44 13.52,-12.52 13.59,-12.60 13.68,-12.65 13.77,-12.70 13.88,-12.72 13.98,-12.75 14.09,-12.73 14.19,-12.72 14.29,-12.67 14.38,-12.63 14.46,-12.55 14.53,-12.48 14.58,-12.38 14.63,-12.29 14.65,-12.19 14.66,-12.08 14.64,-11.98 14.63,-11.87 14.57,-11.78 14.52,-11.68 14.45,-11.61 14.37,-11.54 14.27,-11.50 14.17,-11.45 14.07,-11.44 13.96,-11.43 13.86,-11.46 13.76,-11.48 13.66,-11.54 13.57,-11.59 13.51,-11.68 13.44,-11.76 13.40,-11.86 13.36,-11.96 13.36,-12.06 13.35,-12.17 13.46,-12.37 13.57,-12.58 13.63,-12.62 13.70,-12.67 13.77,-12.70 13.84,-12.73 13.92,-12.74 14.00,-12.75 14.08,-12.74 14.16,-12.73 14.23,-12.70 14.31,-12.67 14.37,-12.63 14.44,-12.58 14.49,-12.53 14.54,-12.47 14.58,-12.40 14.62,-12.33 14.64,-12.25 14.66,-12.17 14.66,-12.09 14.66,-12.02 14.64,-11.94 14.62,-11.86 14.59,-11.79 14.55,-11.72 14.50,-11.66 14.45,-11.60 13.44,-10.28 12.43,-8.95 11.15,-7.80 9.88,-6.66 8.38,-5.46 6.89,-4.26 5.22,-2.64 3.56,-1.03 2.05,-0.24 0.55,0.55 0.47,0.61 0.40,0.66 0.31,0.70 0.23,0.74 0.13,0.76 0.04,0.78 -0.04,0.77 -0.14,0.76 -0.23,0.74 -0.32,0.71 -0.40,0.66 -0.48,0.61 -0.54,0.54 -0.61,0.48 -0.66,0.40 -0.71,0.32 -0.74,0.23 -0.76,0.14 -0.77,0.04 -0.78,-0.04 -0.76,-0.13 -0.74,-0.23 -0.70,-0.31 -0.66,-0.40 -0.61,-0.47 -0.55,-0.55 -0.55,-0.55 L -0.55,-0.55 Z"></path></g><g transform="translate(475 201) rotate(0 9.5 -6.5)" stroke="none"><path fill="#343a40" d="M -0.38,-0.76 Q -0.38,-0.76 0.61,-1.63 1.62,-2.50 3.14,-3.61 4.65,-4.72 6.54,-5.83 8.42,-6.94 10.37,-7.99 12.31,-9.05 13.60,-9.99 14.90,-10.94 16.58,-11.92 18.27,-12.89 18.32,-12.99 18.37,-13.08 18.45,-13.16 18.52,-13.23 18.62,-13.27 18.71,-13.32 18.82,-13.33 18.92,-13.34 19.03,-13.32 19.13,-13.30 19.22,-13.25 19.32,-13.19 19.39,-13.11 19.45,-13.03 19.49,-12.93 19.53,-12.84 19.54,-12.73 19.55,-12.62 19.52,-12.52 19.49,-12.42 19.43,-12.33 19.38,-12.24 19.29,-12.18 19.21,-12.11 19.11,-12.08 19.01,-12.04 18.90,-12.04 18.79,-12.04 18.69,-12.07 18.59,-12.11 18.51,-12.17 18.42,-12.23 18.36,-12.32 18.30,-12.41 18.27,-12.51 18.24,-12.61 18.25,-12.72 18.25,-12.82 18.29,-12.92 18.33,-13.02 18.40,-13.10 18.47,-13.19 18.56,-13.24 18.65,-13.30 18.75,-13.32 18.85,-13.34 18.96,-13.33 19.07,-13.32 19.16,-13.28 19.26,-13.24 19.34,-13.16 19.41,-13.09 19.46,-13.00 19.52,-12.90 19.53,-12.80 19.55,-12.69 19.54,-12.59 19.52,-12.48 19.52,-12.48 19.52,-12.48 18.24,-10.28 16.96,-8.07 15.46,-7.00 13.96,-5.93 12.03,-4.94 10.11,-3.96 8.30,-2.98 6.49,-2.00 4.73,-0.90 2.97,0.20 1.68,0.48 0.38,0.76 0.28,0.80 0.18,0.83 0.08,0.84 -0.01,0.85 -0.11,0.84 -0.22,0.83 -0.31,0.79 -0.41,0.75 -0.49,0.69 -0.58,0.63 -0.64,0.55 -0.71,0.47 -0.76,0.38 -0.80,0.28 -0.83,0.18 -0.85,0.08 -0.85,-0.01 -0.85,-0.12 -0.82,-0.22 -0.79,-0.32 -0.74,-0.41 -0.69,-0.50 -0.62,-0.57 -0.55,-0.65 -0.47,-0.71 -0.38,-0.76 -0.38,-0.76 L -0.38,-0.76 Z"></path></g><g transform="translate(501 178) rotate(0 15 -10.5)" stroke="none"><path fill="#343a40" d="M -0.81,-0.27 Q -0.81,-0.27 -0.61,-2.11 -0.41,-3.96 -0.25,-6.24 -0.08,-8.53 -0.30,-11.45 -0.52,-14.37 -0.91,-17.04 -1.29,-19.70 -1.46,-21.48 -1.63,-23.26 -1.71,-24.31 -1.78,-25.36 -1.83,-26.08 -1.87,-26.80 -1.86,-27.03 -1.84,-27.26 -1.77,-27.49 -1.71,-27.71 -1.59,-27.90 -1.47,-28.10 -1.31,-28.27 -1.14,-28.43 -0.95,-28.55 -0.75,-28.67 -0.53,-28.74 -0.31,-28.81 -0.08,-28.83 0.15,-28.84 0.37,-28.80 0.60,-28.76 0.81,-28.67 1.02,-28.57 1.21,-28.43 1.39,-28.29 1.53,-28.11 1.68,-27.92 1.77,-27.71 1.87,-27.50 1.91,-27.28 1.95,-27.05 2.98,-25.98 4.01,-24.91 5.40,-22.56 6.80,-20.22 7.99,-17.13 9.18,-14.04 10.23,-11.36 11.27,-8.68 12.28,-6.43 13.29,-4.18 13.78,-2.17 14.27,-0.16 14.47,1.00 14.66,2.17 14.39,3.37 14.11,4.57 13.17,5.59 12.22,6.60 11.03,7.05 9.84,7.49 8.85,7.96 7.85,8.43 7.64,8.52 7.42,8.62 7.19,8.67 6.95,8.71 6.72,8.70 6.48,8.68 6.25,8.61 6.03,8.54 5.82,8.42 5.62,8.30 5.45,8.13 5.28,7.96 5.16,7.76 5.04,7.56 4.97,7.33 4.90,7.11 4.88,6.87 4.87,6.63 4.91,6.40 4.95,6.17 5.05,5.95 5.14,5.73 5.29,5.55 5.43,5.36 5.62,5.21 5.81,5.07 6.87,3.60 7.93,2.13 9.62,0.76 11.32,-0.59 13.27,-1.80 15.22,-3.01 17.45,-4.36 19.68,-5.70 21.82,-6.86 23.96,-8.01 25.34,-8.97 26.72,-9.93 27.97,-10.91 29.23,-11.88 29.29,-11.97 29.34,-12.06 29.43,-12.13 29.51,-12.19 29.61,-12.23 29.71,-12.26 29.82,-12.26 29.92,-12.27 30.02,-12.23 30.13,-12.20 30.21,-12.14 30.30,-12.08 30.36,-11.99 30.42,-11.90 30.45,-11.80 30.48,-11.70 30.48,-11.59 30.47,-11.49 30.44,-11.39 30.40,-11.29 30.33,-11.21 30.26,-11.12 30.17,-11.07 30.08,-11.01 29.98,-10.99 29.88,-10.96 29.77,-10.97 29.66,-10.98 29.57,-11.02 29.47,-11.07 29.39,-11.14 29.31,-11.21 29.26,-11.30 29.21,-11.40 29.19,-11.50 29.17,-11.60 29.19,-11.71 29.20,-11.82 29.25,-11.91 29.30,-12.00 29.37,-12.08 29.45,-12.15 29.55,-12.20 29.64,-12.25 29.75,-12.26 29.85,-12.27 29.96,-12.25 30.06,-12.23 30.15,-12.18 30.24,-12.13 30.31,-12.05 30.38,-11.97 30.43,-11.87 30.47,-11.77 30.48,-11.66 30.48,-11.56 30.46,-11.46 30.43,-11.35 30.43,-11.35 30.43,-11.35 29.68,-9.13 28.94,-6.92 27.39,-5.75 25.84,-4.59 23.79,-3.45 21.73,-2.31 19.52,-0.97 17.30,0.37 15.55,1.43 13.80,2.49 12.20,3.77 10.60,5.04 9.66,5.65 8.72,6.25 8.29,7.34 7.85,8.43 7.64,8.52 7.42,8.62 7.19,8.67 6.95,8.71 6.72,8.70 6.48,8.68 6.25,8.61 6.03,8.54 5.82,8.42 5.62,8.30 5.45,8.13 5.28,7.96 5.16,7.76 5.04,7.56 4.97,7.33 4.90,7.11 4.88,6.87 4.87,6.63 4.91,6.40 4.95,6.17 5.05,5.95 5.14,5.73 5.29,5.55 5.43,5.36 5.62,5.21 5.81,5.07 6.38,4.89 6.95,4.72 8.34,4.16 9.73,3.61 10.26,3.14 10.78,2.67 10.61,1.70 10.44,0.73 10.06,-0.92 9.68,-2.59 8.65,-4.92 7.61,-7.25 6.56,-9.95 5.51,-12.65 4.46,-15.45 3.41,-18.25 2.25,-20.29 1.09,-22.33 -0.02,-23.63 -1.13,-24.94 -1.50,-25.87 -1.87,-26.80 -1.86,-27.03 -1.84,-27.26 -1.77,-27.48 -1.71,-27.71 -1.59,-27.90 -1.47,-28.10 -1.31,-28.27 -1.14,-28.43 -0.95,-28.55 -0.75,-28.67 -0.53,-28.74 -0.31,-28.81 -0.08,-28.83 0.14,-28.84 0.37,-28.80 0.60,-28.76 0.81,-28.67 1.02,-28.57 1.21,-28.43 1.39,-28.29 1.53,-28.11 1.67,-27.92 1.77,-27.71 1.87,-27.50 1.91,-27.28 1.95,-27.05 1.97,-26.32 1.98,-25.60 2.03,-24.60 2.09,-23.59 2.23,-21.89 2.37,-20.19 2.72,-17.39 3.07,-14.58 3.21,-11.39 3.36,-8.19 3.03,-5.56 2.71,-2.93 1.76,-1.33 0.81,0.27 0.76,0.36 0.72,0.45 0.65,0.53 0.59,0.61 0.50,0.67 0.42,0.73 0.33,0.77 0.23,0.82 0.13,0.83 0.03,0.85 -0.06,0.84 -0.17,0.83 -0.26,0.80 -0.36,0.77 -0.45,0.71 -0.53,0.66 -0.61,0.58 -0.68,0.51 -0.73,0.42 -0.78,0.33 -0.81,0.23 -0.84,0.13 -0.84,0.03 -0.85,-0.06 -0.83,-0.16 -0.81,-0.27 -0.81,-0.27 L -0.81,-0.27 Z"></path></g><g transform="translate(439 284) rotate(0 7 12.5)" stroke="none"><path fill="#343a40" d="M 0.48,-0.60 Q 0.48,-0.60 2.18,0.22 3.87,1.04 5.75,3.03 7.63,5.02 9.05,7.07 10.47,9.12 11.68,11.48 12.90,13.84 13.73,16.04 14.56,18.25 14.93,19.87 15.29,21.50 14.00,23.24 12.70,24.97 12.65,25.06 12.60,25.16 12.52,25.23 12.44,25.30 12.34,25.34 12.24,25.38 12.14,25.39 12.03,25.40 11.93,25.37 11.83,25.35 11.74,25.29 11.65,25.23 11.58,25.15 11.52,25.06 11.48,24.96 11.44,24.86 11.44,24.76 11.44,24.65 11.47,24.55 11.50,24.45 11.56,24.36 11.63,24.28 11.71,24.22 11.80,24.15 11.90,24.12 12.00,24.09 12.11,24.10 12.21,24.10 12.31,24.14 12.41,24.17 12.50,24.24 12.58,24.31 12.64,24.40 12.69,24.49 12.72,24.59 12.74,24.69 12.73,24.80 12.73,24.90 12.68,25.00 12.64,25.10 12.57,25.18 12.50,25.26 12.41,25.31 12.31,25.36 12.21,25.38 12.10,25.40 12.00,25.38 11.89,25.37 11.80,25.32 11.70,25.28 11.63,25.20 11.55,25.12 11.51,25.03 11.46,24.93 11.45,24.83 11.43,24.72 11.45,24.62 11.47,24.51 11.47,24.51 11.47,24.51 11.60,23.32 11.73,22.13 11.44,20.81 11.15,19.48 10.44,17.45 9.73,15.42 8.67,13.23 7.61,11.05 6.38,9.16 5.15,7.28 3.51,5.41 1.87,3.55 0.69,2.07 -0.48,0.60 -0.55,0.53 -0.61,0.47 -0.66,0.39 -0.71,0.31 -0.73,0.22 -0.76,0.13 -0.76,0.03 -0.77,-0.05 -0.75,-0.14 -0.73,-0.23 -0.69,-0.32 -0.66,-0.40 -0.60,-0.48 -0.54,-0.55 -0.46,-0.61 -0.39,-0.66 -0.30,-0.70 -0.22,-0.74 -0.13,-0.75 -0.03,-0.77 0.05,-0.76 0.14,-0.76 0.23,-0.73 0.32,-0.70 0.40,-0.65 0.48,-0.60 0.48,-0.60 L 0.48,-0.60 Z"></path></g><g transform="translate(466 274) rotate(0 5 9)" stroke="none"><path fill="#343a40" d="M -0.54,0.54 Q -0.54,0.54 -1.26,0.13 -1.97,-0.28 -2.36,2.01 -2.74,4.30 -2.34,6.91 -1.93,9.52 -0.96,11.99 0.01,14.45 1.47,16.22 2.92,17.98 4.19,18.62 5.46,19.26 6.89,19.24 8.33,19.23 9.89,18.48 11.45,17.73 12.24,16.80 13.04,15.86 13.05,14.31 13.06,12.75 12.58,10.75 12.09,8.76 10.56,6.65 9.03,4.54 7.07,3.15 5.12,1.76 3.20,0.89 1.29,0.03 -0.02,-0.32 -1.34,-0.68 -3.38,-1.54 -5.42,-2.40 -5.53,-2.41 -5.63,-2.41 -5.73,-2.45 -5.83,-2.49 -5.91,-2.56 -5.99,-2.62 -6.05,-2.71 -6.10,-2.81 -6.13,-2.91 -6.15,-3.01 -6.14,-3.12 -6.13,-3.22 -6.09,-3.32 -6.04,-3.42 -5.97,-3.50 -5.90,-3.57 -5.80,-3.62 -5.71,-3.67 -5.60,-3.69 -5.50,-3.71 -5.40,-3.69 -5.29,-3.68 -5.20,-3.63 -5.10,-3.58 -5.03,-3.50 -4.95,-3.42 -4.91,-3.33 -4.86,-3.23 -4.85,-3.13 -4.84,-3.02 -4.86,-2.92 -4.88,-2.81 -4.94,-2.72 -4.99,-2.63 -5.07,-2.56 -5.15,-2.49 -5.25,-2.45 -5.35,-2.41 -5.46,-2.41 -5.56,-2.40 -5.67,-2.43 -5.77,-2.45 -5.86,-2.51 -5.95,-2.57 -6.01,-2.66 -6.07,-2.74 -6.11,-2.84 -6.14,-2.94 -6.14,-3.05 -6.14,-3.15 -6.11,-3.26 -6.08,-3.36 -6.01,-3.44 -5.95,-3.53 -5.86,-3.59 -5.78,-3.65 -5.67,-3.68 -5.57,-3.70 -5.57,-3.70 -5.57,-3.70 -2.97,-3.90 -0.37,-4.10 1.21,-3.64 2.79,-3.17 4.99,-2.11 7.20,-1.04 9.51,0.75 11.83,2.55 13.60,5.24 15.37,7.94 15.88,10.48 16.40,13.01 16.04,15.37 15.69,17.72 14.28,19.22 12.88,20.72 10.61,21.63 8.34,22.54 6.17,22.39 4.00,22.23 2.20,21.17 0.40,20.11 -1.31,17.89 -3.02,15.66 -4.07,12.80 -5.12,9.94 -5.44,6.79 -5.76,3.63 -5.11,1.36 -4.46,-0.91 -3.73,-1.66 -3.00,-2.42 -1.66,-2.21 -0.32,-2.01 0.11,-1.28 0.54,-0.54 0.60,-0.47 0.66,-0.40 0.70,-0.31 0.73,-0.23 0.75,-0.13 0.77,-0.04 0.76,0.04 0.76,0.13 0.73,0.22 0.70,0.31 0.65,0.39 0.60,0.47 0.54,0.54 0.47,0.60 0.39,0.65 0.31,0.70 0.22,0.73 0.13,0.76 0.04,0.76 -0.04,0.77 -0.13,0.75 -0.23,0.73 -0.31,0.70 -0.40,0.66 -0.47,0.60 -0.54,0.54 -0.54,0.54 L -0.54,0.54 Z"></path></g><g transform="translate(463 293) rotate(0 8 -7)" stroke="none"><path fill="#343a40" d="M -0.61,-0.61 Q -0.61,-0.61 -0.02,-1.75 0.56,-2.89 1.60,-3.65 2.64,-4.41 4.08,-5.79 5.52,-7.18 6.82,-8.14 8.12,-9.10 9.09,-10.21 10.05,-11.33 10.83,-12.14 11.62,-12.96 13.49,-13.69 15.36,-14.41 15.46,-14.45 15.56,-14.48 15.67,-14.47 15.78,-14.47 15.88,-14.43 15.98,-14.40 16.06,-14.33 16.14,-14.26 16.20,-14.17 16.26,-14.08 16.28,-13.98 16.31,-13.88 16.30,-13.77 16.29,-13.67 16.25,-13.57 16.20,-13.47 16.13,-13.39 16.06,-13.31 15.97,-13.26 15.88,-13.21 15.77,-13.19 15.67,-13.17 15.56,-13.18 15.46,-13.20 15.36,-13.25 15.27,-13.29 15.19,-13.37 15.12,-13.44 15.07,-13.54 15.02,-13.63 15.01,-13.74 15.00,-13.84 15.02,-13.95 15.04,-14.05 15.09,-14.15 15.14,-14.24 15.22,-14.31 15.30,-14.38 15.40,-14.42 15.49,-14.46 15.60,-14.47 15.71,-14.48 15.81,-14.45 15.91,-14.43 16.00,-14.37 16.09,-14.31 16.16,-14.23 16.22,-14.15 16.26,-14.05 16.30,-13.95 16.30,-13.84 16.30,-13.74 16.27,-13.63 16.24,-13.53 16.18,-13.45 16.12,-13.36 16.03,-13.30 15.94,-13.24 15.94,-13.24 15.94,-13.24 15.04,-11.93 14.14,-10.62 13.42,-9.80 12.69,-8.99 11.45,-7.62 10.22,-6.25 9.05,-5.42 7.89,-4.59 6.23,-3.12 4.57,-1.64 3.73,-1.10 2.88,-0.55 1.75,0.03 0.61,0.61 0.53,0.68 0.45,0.74 0.35,0.79 0.26,0.83 0.15,0.85 0.05,0.87 -0.05,0.86 -0.15,0.86 -0.25,0.82 -0.35,0.79 -0.44,0.74 -0.53,0.68 -0.61,0.61 -0.68,0.53 -0.74,0.44 -0.79,0.35 -0.82,0.25 -0.86,0.15 -0.86,0.05 -0.87,-0.05 -0.85,-0.15 -0.83,-0.26 -0.79,-0.35 -0.74,-0.45 -0.68,-0.53 -0.61,-0.61 -0.61,-0.61 L -0.61,-0.61 Z"></path></g><g transform="translate(417 10) rotate(0 -2 17)" stroke="none"><path fill="#343a40" d="M 0.72,0.24 Q 0.72,0.24 0.86,1.24 1.01,2.25 0.31,3.87 -0.37,5.48 -0.86,7.71 -1.35,9.93 -1.84,12.63 -2.34,15.32 -2.54,18.09 -2.73,20.86 -2.26,23.28 -1.78,25.70 -1.06,27.52 -0.34,29.34 -0.36,31.07 -0.38,32.81 -0.36,32.88 -0.34,32.96 -0.34,33.04 -0.34,33.12 -0.35,33.20 -0.37,33.27 -0.41,33.34 -0.44,33.41 -0.50,33.47 -0.55,33.53 -0.61,33.58 -0.68,33.63 -0.75,33.65 -0.83,33.68 -0.90,33.69 -0.98,33.70 -1.06,33.69 -1.14,33.69 -1.21,33.66 -1.29,33.63 -1.35,33.59 -1.42,33.54 -1.47,33.48 -1.53,33.42 -1.56,33.36 -1.60,33.29 -1.62,33.10 -1.63,32.92 -1.59,32.82 -1.56,32.72 -1.49,32.64 -1.42,32.55 -1.33,32.50 -1.24,32.44 -1.14,32.42 -1.04,32.39 -0.93,32.40 -0.82,32.41 -0.73,32.45 -0.63,32.50 -0.55,32.57 -0.47,32.64 -0.42,32.73 -0.37,32.83 -0.35,32.93 -0.33,33.03 -0.35,33.14 -0.36,33.24 -0.41,33.34 -0.46,33.43 -0.53,33.51 -0.61,33.58 -0.71,33.63 -0.80,33.68 -0.91,33.69 -1.01,33.70 -1.12,33.68 -1.22,33.66 -1.31,33.61 -1.40,33.55 -1.47,33.48 -1.54,33.40 -1.59,33.30 -1.63,33.20 -1.63,33.09 -1.64,32.99 -1.62,32.88 -1.59,32.78 -1.53,32.69 -1.47,32.60 -1.39,32.54 -1.31,32.47 -1.21,32.44 -1.11,32.40 -1.00,32.40 -0.89,32.40 -0.79,32.43 -0.69,32.46 -0.61,32.52 -0.52,32.59 -0.46,32.67 -0.40,32.76 -0.37,32.86 -0.34,32.96 -0.36,32.89 -0.38,32.81 -0.36,32.88 -0.34,32.96 -0.34,33.04 -0.34,33.12 -0.35,33.20 -0.37,33.27 -0.41,33.34 -0.44,33.41 -0.50,33.47 -0.55,33.53 -0.61,33.58 -0.68,33.63 -0.75,33.65 -0.83,33.68 -0.90,33.69 -0.98,33.70 -1.06,33.69 -1.14,33.69 -1.21,33.66 -1.29,33.63 -1.35,33.59 -1.42,33.54 -1.47,33.48 -1.53,33.42 -1.56,33.36 -1.60,33.29 -2.77,32.02 -3.95,30.75 -4.78,28.58 -5.62,26.41 -6.10,23.50 -6.58,20.59 -6.32,17.59 -6.06,14.59 -5.49,11.82 -4.92,9.05 -4.24,6.54 -3.56,4.03 -2.86,2.61 -2.16,1.19 -1.44,0.47 -0.72,-0.24 -0.68,-0.32 -0.64,-0.40 -0.58,-0.47 -0.52,-0.55 -0.45,-0.60 -0.38,-0.66 -0.29,-0.69 -0.21,-0.73 -0.12,-0.74 -0.03,-0.76 0.06,-0.75 0.15,-0.74 0.23,-0.71 0.32,-0.68 0.40,-0.64 0.48,-0.59 0.54,-0.52 0.61,-0.45 0.65,-0.37 0.70,-0.29 0.72,-0.21 0.75,-0.12 0.75,-0.03 0.76,0.06 0.74,0.15 0.72,0.24 0.72,0.24 L 0.72,0.24 Z"></path></g><g transform="translate(431 21) rotate(0 1 8)" stroke="none"><path fill="#343a40" d="M 0,0.76 Q 0,0.76 -0.75,0.96 -1.50,1.15 -2.06,1.94 -2.62,2.73 -3.09,4.05 -3.57,5.38 -3.76,6.98 -3.95,8.59 -3.75,10.30 -3.55,12.01 -2.97,13.41 -2.38,14.82 -1.48,15.49 -0.57,16.17 0.42,16.42 1.41,16.67 2.67,16.30 3.92,15.93 4.84,14.85 5.76,13.77 6.12,12.41 6.48,11.05 6.10,8.96 5.73,6.86 5.32,5.07 4.91,3.28 3.74,1.95 2.58,0.62 1.66,0.11 0.75,-0.38 -0.30,-0.58 -1.36,-0.77 -2.21,-0.61 -3.05,-0.45 -3.85,-0.40 -4.65,-0.35 -5.02,1.08 -5.39,2.53 -5.39,2.64 -5.40,2.75 -5.44,2.84 -5.47,2.94 -5.54,3.03 -5.61,3.11 -5.70,3.16 -5.79,3.22 -5.89,3.24 -6.00,3.27 -6.10,3.26 -6.21,3.25 -6.31,3.20 -6.40,3.16 -6.48,3.09 -6.56,3.02 -6.61,2.92 -6.66,2.83 -6.68,2.73 -6.70,2.62 -6.68,2.52 -6.67,2.41 -6.62,2.32 -6.57,2.22 -6.49,2.15 -6.42,2.07 -6.32,2.03 -6.23,1.98 -6.12,1.97 -6.02,1.96 -5.91,1.98 -5.81,2.00 -5.72,2.05 -5.62,2.11 -5.55,2.19 -5.48,2.27 -5.44,2.36 -5.40,2.46 -5.40,2.57 -5.39,2.67 -5.42,2.78 -5.44,2.88 -5.50,2.97 -5.56,3.06 -5.64,3.12 -5.73,3.19 -5.83,3.22 -5.93,3.26 -6.03,3.26 -6.14,3.26 -6.24,3.23 -6.34,3.20 -6.43,3.13 -6.51,3.07 -6.57,2.98 -6.63,2.90 -6.66,2.79 -6.69,2.69 -6.69,2.69 -6.69,2.69 -7.15,0.86 -7.62,-0.97 -7.23,-1.84 -6.84,-2.70 -5.95,-3.27 -5.05,-3.84 -4.30,-3.92 -3.54,-4.01 -2.09,-4.17 -0.64,-4.33 0.98,-3.92 2.61,-3.50 3.99,-2.59 5.36,-1.68 6.85,0.33 8.35,2.34 8.81,4.36 9.27,6.37 9.57,9.18 9.87,11.99 9.12,14.05 8.37,16.12 6.67,17.67 4.98,19.23 2.79,19.65 0.60,20.06 -1.08,19.46 -2.78,18.86 -4.14,17.54 -5.51,16.22 -6.22,14.27 -6.92,12.33 -7.05,10.21 -7.17,8.09 -6.78,6.11 -6.39,4.13 -5.49,2.42 -4.59,0.71 -3.26,-0.21 -1.94,-1.15 -0.97,-0.96 0,-0.76 0.09,-0.75 0.18,-0.74 0.27,-0.71 0.35,-0.68 0.43,-0.62 0.50,-0.57 0.57,-0.50 0.63,-0.43 0.67,-0.35 0.71,-0.27 0.74,-0.18 0.76,-0.09 0.76,0.00 0.76,0.09 0.74,0.18 0.71,0.27 0.67,0.35 0.63,0.43 0.57,0.50 0.50,0.57 0.43,0.62 0.35,0.68 0.27,0.71 0.18,0.74 0.09,0.75 -0.00,0.76 -0.00,0.76 L 0,0.76 Z"></path></g><g transform="translate(450 34) rotate(0 -2.5 4)" stroke="none"><path fill="#343a40" d="M 0.82,0.27 Q 0.82,0.27 0.81,1.23 0.80,2.18 0.12,3.58 -0.55,4.98 -1.15,5.88 -1.76,6.77 -1.95,7.30 -2.13,7.83 -2.42,7.15 -2.70,6.46 -2.74,6.53 -2.78,6.60 -2.83,6.66 -2.88,6.72 -2.95,6.76 -3.01,6.81 -3.09,6.83 -3.16,6.86 -3.24,6.87 -3.32,6.88 -3.40,6.87 -3.48,6.86 -3.55,6.83 -3.62,6.80 -3.69,6.75 -3.75,6.71 -3.80,6.65 -3.86,6.59 -3.89,6.52 -3.93,6.45 -3.95,6.37 -3.96,6.29 -3.96,6.21 -3.96,6.14 -3.94,6.06 -3.92,5.98 -3.71,5.79 -3.50,5.59 -3.40,5.58 -3.29,5.57 -3.19,5.59 -3.08,5.61 -2.99,5.66 -2.90,5.71 -2.83,5.79 -2.76,5.87 -2.72,5.97 -2.67,6.06 -2.67,6.17 -2.66,6.28 -2.68,6.38 -2.71,6.48 -2.77,6.57 -2.82,6.66 -2.91,6.73 -2.99,6.79 -3.09,6.83 -3.19,6.87 -3.29,6.87 -3.40,6.87 -3.50,6.84 -3.60,6.81 -3.69,6.75 -3.78,6.69 -3.84,6.60 -3.90,6.51 -3.93,6.41 -3.96,6.31 -3.96,6.20 -3.96,6.10 -3.92,6.00 -3.88,5.90 -3.82,5.82 -3.75,5.73 -3.66,5.68 -3.57,5.62 -3.47,5.59 -3.36,5.57 -3.26,5.58 -3.15,5.58 -3.05,5.63 -2.96,5.67 -2.88,5.74 -2.80,5.81 -2.75,5.90 -2.69,6.00 -2.68,6.10 -2.66,6.21 -2.67,6.31 -2.68,6.42 -2.73,6.51 -2.78,6.61 -2.85,6.68 -2.93,6.76 -2.81,6.61 -2.70,6.46 -2.74,6.53 -2.78,6.60 -2.83,6.66 -2.88,6.72 -2.95,6.76 -3.01,6.81 -3.09,6.83 -3.16,6.86 -3.24,6.87 -3.32,6.88 -3.40,6.87 -3.48,6.86 -3.55,6.83 -3.62,6.80 -3.69,6.75 -3.75,6.71 -3.80,6.65 -3.86,6.59 -3.89,6.52 -3.93,6.45 -3.95,6.37 -3.96,6.29 -3.96,6.21 -3.96,6.14 -3.94,6.06 -3.92,5.98 -4.52,6.14 -5.12,6.29 -4.81,5.56 -4.51,4.82 -3.94,4.10 -3.38,3.38 -2.66,2.32 -1.95,1.26 -1.38,0.49 -0.82,-0.27 -0.77,-0.36 -0.73,-0.46 -0.66,-0.54 -0.59,-0.62 -0.51,-0.68 -0.43,-0.74 -0.33,-0.78 -0.24,-0.83 -0.13,-0.84 -0.03,-0.86 0.06,-0.85 0.17,-0.84 0.27,-0.81 0.37,-0.78 0.45,-0.72 0.54,-0.67 0.61,-0.59 0.69,-0.51 0.74,-0.42 0.79,-0.33 0.82,-0.23 0.85,-0.13 0.85,-0.03 0.86,0.06 0.84,0.17 0.82,0.27 0.82,0.27 L 0.82,0.27 Z"></path></g><g transform="translate(463 17) rotate(0 -2 11)" stroke="none"><path fill="#343a40" d="M 0.79,0 Q 0.79,0 1.25,1.15 1.70,2.3 1.74,3.65 1.78,5.00 1.52,7.41 1.26,9.83 0.86,12.02 0.47,14.21 0.31,15.63 0.16,17.05 -0.24,18.20 -0.65,19.35 -2.02,20.86 -3.39,22.36 -3.49,22.41 -3.58,22.46 -3.69,22.48 -3.79,22.50 -3.90,22.48 -4.00,22.47 -4.10,22.42 -4.19,22.37 -4.26,22.29 -4.34,22.22 -4.38,22.12 -4.43,22.02 -4.44,21.92 -4.45,21.81 -4.43,21.71 -4.41,21.60 -4.36,21.51 -4.30,21.42 -4.22,21.35 -4.14,21.28 -4.04,21.24 -3.94,21.20 -3.84,21.19 -3.73,21.19 -3.63,21.22 -3.53,21.24 -3.44,21.30 -3.35,21.36 -3.28,21.44 -3.22,21.53 -3.18,21.63 -3.15,21.73 -3.15,21.84 -3.15,21.94 -3.18,22.04 -3.21,22.14 -3.28,22.23 -3.34,22.31 -3.43,22.37 -3.52,22.43 -3.62,22.46 -3.72,22.49 -3.83,22.49 -3.93,22.48 -4.03,22.45 -4.13,22.41 -4.21,22.34 -4.29,22.27 -4.35,22.18 -4.40,22.09 -4.43,21.99 -4.45,21.88 -4.44,21.78 -4.43,21.67 -4.39,21.57 -4.34,21.48 -4.27,21.40 -4.20,21.32 -4.20,21.32 -4.20,21.32 -4.23,19.63 -4.27,17.93 -3.96,17.25 -3.64,16.57 -3.45,15.03 -3.26,13.49 -2.83,11.43 -2.41,9.37 -2.09,7.18 -1.78,5.00 -1.74,3.65 -1.70,2.3 -1.25,1.15 -0.79,0 -0.77,-0.09 -0.76,-0.18 -0.73,-0.27 -0.70,-0.36 -0.64,-0.44 -0.59,-0.52 -0.52,-0.58 -0.44,-0.65 -0.36,-0.69 -0.28,-0.73 -0.18,-0.76 -0.09,-0.78 0.00,-0.78 0.09,-0.78 0.18,-0.76 0.28,-0.73 0.36,-0.69 0.44,-0.65 0.52,-0.58 0.59,-0.52 0.64,-0.44 0.70,-0.36 0.73,-0.27 0.76,-0.18 0.77,-0.09 0.79,0.00 0.79,0.00 L 0.79,0 Z"></path></g><g transform="translate(470 13) rotate(0 2 15.5)" stroke="none"><path fill="#343a40" d="M 0.71,-0.28 Q 0.71,-0.28 1.72,0.97 2.74,2.23 3.56,3.94 4.38,5.65 5.37,8.49 6.36,11.34 6.80,13.49 7.24,15.64 7.44,18.05 7.65,20.47 7.43,21.96 7.20,23.45 6.52,25.58 5.84,27.70 3.54,29.66 1.25,31.62 1.14,31.62 1.03,31.62 0.93,31.59 0.83,31.55 0.75,31.49 0.66,31.43 0.60,31.34 0.54,31.25 0.51,31.15 0.48,31.05 0.49,30.94 0.49,30.83 0.53,30.73 0.57,30.64 0.64,30.55 0.71,30.47 0.80,30.42 0.89,30.36 0.99,30.34 1.10,30.32 1.20,30.33 1.31,30.34 1.41,30.38 1.50,30.43 1.58,30.50 1.66,30.57 1.71,30.66 1.76,30.76 1.78,30.86 1.79,30.97 1.78,31.07 1.76,31.18 1.71,31.27 1.66,31.37 1.58,31.44 1.51,31.51 1.41,31.56 1.32,31.60 1.21,31.61 1.10,31.63 1.00,31.60 0.90,31.58 0.81,31.53 0.71,31.47 0.65,31.39 0.58,31.31 0.54,31.21 0.50,31.12 0.49,31.01 0.48,30.90 0.51,30.80 0.54,30.70 0.60,30.61 0.66,30.52 0.74,30.46 0.83,30.39 0.93,30.36 1.03,30.32 1.03,30.32 1.03,30.32 1.57,28.38 2.12,26.44 2.78,24.62 3.43,22.80 3.64,21.76 3.85,20.72 3.72,18.53 3.59,16.33 3.25,14.41 2.90,12.49 2.04,9.81 1.19,7.13 0.37,5.32 -0.44,3.51 -0.57,1.89 -0.71,0.28 -0.73,0.19 -0.75,0.10 -0.75,0.01 -0.76,-0.07 -0.74,-0.16 -0.72,-0.25 -0.67,-0.34 -0.63,-0.42 -0.57,-0.49 -0.51,-0.56 -0.44,-0.61 -0.36,-0.67 -0.28,-0.70 -0.19,-0.73 -0.10,-0.75 -0.01,-0.76 0.07,-0.75 0.16,-0.74 0.25,-0.71 0.34,-0.68 0.42,-0.63 0.49,-0.58 0.55,-0.51 0.62,-0.44 0.66,-0.36 0.71,-0.28 0.71,-0.28 L 0.71,-0.28 Z"></path></g><g transform="translate(713 284) rotate(0 -5 15.5)" stroke="none"><path fill="#343a40" d="M -0.25,0.75 Q -0.25,0.75 -1.06,0.79 -1.88,0.84 -2.32,1.28 -2.77,1.72 -3.39,3.11 -4.02,4.50 -4.88,7.07 -5.74,9.65 -6.40,12.17 -7.06,14.68 -7.32,17.34 -7.57,20.01 -7.13,22.06 -6.69,24.11 -5.74,25.67 -4.80,27.24 -3.93,28.12 -3.05,29.00 -1.64,30.15 -0.23,31.29 -0.13,31.33 -0.03,31.36 0.04,31.42 0.13,31.49 0.19,31.57 0.25,31.66 0.28,31.76 0.31,31.87 0.30,31.97 0.30,32.08 0.26,32.18 0.22,32.28 0.15,32.36 0.09,32.44 0.00,32.49 -0.09,32.55 -0.19,32.57 -0.29,32.60 -0.40,32.59 -0.50,32.58 -0.60,32.53 -0.70,32.49 -0.78,32.42 -0.85,32.35 -0.90,32.25 -0.95,32.16 -0.97,32.05 -0.99,31.95 -0.97,31.84 -0.96,31.74 -0.91,31.65 -0.86,31.55 -0.78,31.48 -0.71,31.40 -0.61,31.36 -0.52,31.31 -0.41,31.30 -0.31,31.29 -0.20,31.31 -0.10,31.33 -0.01,31.38 0.08,31.44 0.15,31.52 0.21,31.60 0.26,31.70 0.30,31.80 0.30,31.90 0.31,32.01 0.28,32.11 0.25,32.21 0.20,32.30 0.14,32.39 0.05,32.45 -0.02,32.52 -0.12,32.55 -0.22,32.59 -0.33,32.59 -0.43,32.59 -0.43,32.59 -0.43,32.59 -3.20,32.20 -5.96,31.80 -7.13,30.52 -8.30,29.25 -9.46,27.09 -10.62,24.93 -11.08,22.28 -11.53,19.63 -11.18,16.65 -10.83,13.66 -10.08,11.00 -9.32,8.34 -8.21,5.51 -7.09,2.67 -5.76,0.80 -4.44,-1.06 -3.00,-1.52 -1.56,-1.99 -0.65,-1.37 0.25,-0.75 0.33,-0.71 0.42,-0.67 0.49,-0.60 0.57,-0.54 0.62,-0.47 0.68,-0.39 0.72,-0.30 0.76,-0.22 0.77,-0.12 0.79,-0.03 0.78,0.06 0.77,0.15 0.74,0.24 0.71,0.33 0.66,0.42 0.61,0.50 0.54,0.56 0.47,0.63 0.39,0.68 0.31,0.72 0.21,0.75 0.12,0.78 0.03,0.78 -0.06,0.79 -0.15,0.77 -0.25,0.75 -0.25,0.75 L -0.25,0.75 Z"></path></g><g transform="translate(727 289) rotate(0 -2 13)" stroke="none"><path fill="#343a40" d="M 0.77,0.19 Q 0.77,0.19 0.89,1.44 1.01,2.69 0.69,4.87 0.37,7.05 0.26,9.61 0.16,12.18 -0.17,14.55 -0.52,16.93 -0.66,18.15 -0.80,19.38 -0.84,20.98 -0.88,22.58 -2.07,23.84 -3.26,25.09 -3.27,25.17 -3.28,25.24 -3.31,25.32 -3.35,25.39 -3.39,25.45 -3.44,25.52 -3.50,25.57 -3.56,25.62 -3.63,25.65 -3.71,25.68 -3.78,25.70 -3.86,25.72 -3.94,25.71 -4.02,25.71 -4.10,25.69 -4.17,25.67 -4.24,25.63 -4.31,25.59 -4.37,25.53 -4.42,25.48 -4.47,25.41 -4.51,25.34 -4.53,25.27 -4.56,25.19 -4.56,25.12 -4.57,25.04 -4.52,25.22 -4.47,25.40 -4.52,25.31 -4.56,25.21 -4.56,25.10 -4.57,25.00 -4.54,24.89 -4.51,24.79 -4.45,24.70 -4.40,24.61 -4.31,24.55 -4.23,24.48 -4.13,24.45 -4.03,24.41 -3.92,24.41 -3.81,24.41 -3.71,24.45 -3.61,24.48 -3.53,24.54 -3.44,24.61 -3.38,24.69 -3.32,24.78 -3.29,24.88 -3.26,24.99 -3.27,25.09 -3.27,25.20 -3.31,25.30 -3.35,25.40 -3.42,25.48 -3.49,25.56 -3.58,25.61 -3.67,25.67 -3.77,25.69 -3.87,25.72 -3.98,25.71 -4.09,25.70 -4.18,25.65 -4.28,25.61 -4.36,25.54 -4.43,25.46 -4.49,25.37 -4.54,25.28 -4.55,25.17 -4.57,25.07 -4.56,24.96 -4.54,24.86 -4.49,24.76 -4.44,24.67 -4.36,24.59 -4.29,24.52 -4.19,24.48 -4.10,24.43 -3.99,24.42 -3.88,24.41 -3.78,24.43 -3.68,24.45 -3.59,24.50 -3.49,24.56 -3.38,24.82 -3.26,25.09 -3.27,25.17 -3.28,25.24 -3.31,25.32 -3.35,25.39 -3.39,25.45 -3.44,25.52 -3.50,25.57 -3.56,25.62 -3.63,25.65 -3.71,25.68 -3.78,25.70 -3.86,25.72 -3.94,25.71 -4.02,25.71 -4.10,25.69 -4.17,25.67 -4.24,25.63 -4.31,25.59 -4.37,25.53 -4.42,25.48 -4.47,25.41 -4.51,25.34 -4.53,25.27 -4.56,25.19 -4.56,25.12 -4.57,25.04 -4.74,23.73 -4.92,22.43 -4.83,20.66 -4.74,18.90 -4.57,17.60 -4.41,16.31 -4.02,14.12 -3.64,11.93 -3.40,9.16 -3.15,6.40 -2.66,4.15 -2.16,1.90 -1.47,0.85 -0.77,-0.19 -0.74,-0.28 -0.70,-0.37 -0.65,-0.45 -0.59,-0.53 -0.52,-0.59 -0.45,-0.65 -0.36,-0.70 -0.28,-0.74 -0.18,-0.77 -0.09,-0.79 0.00,-0.79 0.09,-0.79 0.19,-0.77 0.28,-0.74 0.37,-0.70 0.45,-0.65 0.52,-0.59 0.60,-0.52 0.65,-0.44 0.70,-0.36 0.74,-0.27 0.77,-0.18 0.78,-0.09 0.79,0.00 0.78,0.09 0.77,0.19 0.77,0.19 L 0.77,0.19 Z"></path></g><g transform="translate(737 309) rotate(0 -1.5 6)" stroke="none"><path fill="#343a40" d="M 0.81,0 Q 0.81,0 1.24,0.86 1.68,1.73 1.42,3.41 1.16,5.08 0.73,6.43 0.31,7.77 -0.20,8.73 -0.72,9.69 -0.89,10.41 -1.05,11.13 -0.90,10.79 -0.75,10.45 -0.77,10.52 -0.80,10.60 -0.84,10.67 -0.89,10.73 -0.94,10.79 -1.00,10.84 -1.07,10.88 -1.14,10.92 -1.22,10.94 -1.29,10.96 -1.37,10.96 -1.45,10.97 -1.53,10.95 -1.60,10.93 -1.68,10.90 -1.75,10.86 -1.81,10.81 -1.87,10.76 -1.92,10.70 -1.96,10.63 -1.99,10.56 -2.02,10.49 -2.04,10.41 -2.05,10.33 -2.04,10.25 -2.03,10.17 -1.82,9.93 -1.62,9.70 -1.51,9.68 -1.41,9.66 -1.30,9.67 -1.20,9.68 -1.10,9.73 -1.01,9.78 -0.93,9.85 -0.86,9.93 -0.81,10.03 -0.76,10.12 -0.75,10.23 -0.73,10.33 -0.75,10.44 -0.78,10.54 -0.83,10.63 -0.88,10.72 -0.96,10.80 -1.04,10.87 -1.14,10.91 -1.23,10.95 -1.34,10.96 -1.45,10.97 -1.55,10.94 -1.65,10.91 -1.74,10.86 -1.83,10.80 -1.90,10.72 -1.96,10.63 -2.00,10.53 -2.04,10.43 -2.04,10.33 -2.04,10.22 -2.01,10.12 -1.98,10.02 -1.92,9.93 -1.85,9.85 -1.77,9.78 -1.68,9.72 -1.58,9.69 -1.48,9.66 -1.37,9.66 -1.27,9.67 -1.17,9.70 -1.07,9.74 -0.98,9.81 -0.90,9.87 -0.84,9.96 -0.79,10.05 -0.76,10.16 -0.74,10.26 -0.75,10.37 -0.75,10.47 -0.80,10.57 -0.84,10.67 -0.91,10.75 -0.98,10.82 -0.86,10.64 -0.75,10.45 -0.77,10.52 -0.80,10.60 -0.84,10.67 -0.89,10.73 -0.94,10.79 -1.00,10.84 -1.07,10.88 -1.14,10.92 -1.22,10.94 -1.29,10.96 -1.37,10.96 -1.45,10.97 -1.53,10.95 -1.60,10.93 -1.68,10.90 -1.75,10.86 -1.81,10.81 -1.87,10.76 -1.92,10.70 -1.96,10.64 -1.99,10.56 -2.02,10.49 -2.04,10.41 -2.05,10.33 -2.04,10.25 -2.03,10.17 -3.19,10.16 -4.36,10.15 -4.13,9.03 -3.90,7.92 -3.50,7.27 -3.10,6.61 -2.70,5.52 -2.31,4.42 -1.99,3.07 -1.68,1.71 -1.24,0.85 -0.81,0 -0.80,-0.09 -0.78,-0.19 -0.75,-0.28 -0.71,-0.37 -0.66,-0.45 -0.60,-0.53 -0.53,-0.60 -0.46,-0.66 -0.37,-0.71 -0.28,-0.75 -0.19,-0.78 -0.09,-0.80 0.00,-0.80 0.09,-0.80 0.19,-0.78 0.28,-0.75 0.37,-0.71 0.46,-0.66 0.53,-0.60 0.60,-0.53 0.66,-0.45 0.71,-0.37 0.75,-0.28 0.78,-0.19 0.80,-0.09 0.81,0.00 0.81,0.00 L 0.81,0 Z"></path></g><g transform="translate(755 295) rotate(0 2.5 5.5)" stroke="none"><path fill="#343a40" d="M 0.60,0.40 Q 0.60,0.40 0.29,1.44 -0.01,2.47 -0.73,3.98 -1.44,5.48 -1.97,7.18 -2.51,8.89 -2.72,10.10 -2.93,11.32 -2.82,12.02 -2.71,12.71 -1.49,12.51 -0.27,12.31 1.14,11.50 2.56,10.68 3.74,9.82 4.92,8.95 5.82,7.35 6.73,5.75 7.12,4.59 7.51,3.43 7.43,2.16 7.34,0.89 6.65,0.34 5.96,-0.21 4.74,-0.70 3.52,-1.20 2.37,-1.14 1.22,-1.07 -0.09,-0.81 -1.41,-0.55 -2.11,-0.24 -2.81,0.06 -1.55,1.12 -0.28,2.18 -0.19,2.23 -0.10,2.28 -0.03,2.37 0.03,2.45 0.07,2.54 0.11,2.64 0.11,2.75 0.12,2.86 0.09,2.96 0.06,3.06 0.00,3.15 -0.05,3.24 -0.13,3.30 -0.21,3.37 -0.31,3.40 -0.41,3.43 -0.52,3.43 -0.63,3.44 -0.73,3.40 -0.83,3.37 -0.91,3.30 -1.00,3.24 -1.06,3.15 -1.12,3.06 -1.15,2.96 -1.18,2.86 -1.17,2.75 -1.17,2.65 -1.13,2.55 -1.09,2.45 -1.02,2.37 -0.95,2.29 -0.86,2.23 -0.77,2.18 -0.66,2.15 -0.56,2.13 -0.46,2.14 -0.35,2.15 -0.25,2.20 -0.16,2.24 -0.08,2.31 -0.00,2.39 0.04,2.48 0.09,2.57 0.11,2.68 0.12,2.78 0.11,2.89 0.09,2.99 0.04,3.09 -0.00,3.18 -0.08,3.26 -0.15,3.33 -0.25,3.37 -0.35,3.42 -0.45,3.43 -0.56,3.44 -0.66,3.42 -0.76,3.40 -0.76,3.40 -0.76,3.40 -3.02,2.00 -5.27,0.60 -5.62,-0.29 -5.97,-1.18 -5.20,-2.22 -4.44,-3.26 -3.28,-3.76 -2.13,-4.27 -0.43,-4.56 1.25,-4.86 3.12,-4.76 4.99,-4.65 6.84,-3.71 8.68,-2.76 9.79,-1.27 10.89,0.21 10.97,2.39 11.05,4.58 10.48,6.13 9.90,7.69 8.53,9.78 7.17,11.87 5.70,12.91 4.24,13.96 2.15,14.94 0.05,15.92 -1.85,15.86 -3.75,15.80 -4.77,14.85 -5.79,13.89 -6.02,12.31 -6.26,10.72 -5.93,9.26 -5.60,7.80 -4.86,5.91 -4.13,4.03 -3.20,2.50 -2.28,0.97 -1.44,0.28 -0.60,-0.40 -0.54,-0.47 -0.49,-0.53 -0.42,-0.58 -0.34,-0.63 -0.26,-0.67 -0.18,-0.70 -0.09,-0.71 -0.01,-0.72 0.07,-0.71 0.16,-0.71 0.24,-0.68 0.32,-0.65 0.40,-0.60 0.47,-0.55 0.53,-0.48 0.59,-0.42 0.63,-0.34 0.67,-0.26 0.69,-0.18 0.72,-0.09 0.72,-0.01 0.72,0.07 0.70,0.16 0.68,0.24 0.64,0.32 0.60,0.40 0.60,0.40 L 0.60,0.40 Z"></path></g><g transform="translate(773 281) rotate(0 2 18)" stroke="none"><path fill="#343a40" d="M 0.66,-0.44 Q 0.66,-0.44 2.06,1.11 3.47,2.67 4.95,5.46 6.43,8.24 7.10,11.02 7.78,13.79 8.08,16.73 8.38,19.66 8.20,21.62 8.02,23.57 6.79,26.87 5.55,30.18 4.40,32.19 3.26,34.20 0.21,34.96 -2.82,35.72 -2.92,35.68 -3.01,35.63 -3.09,35.56 -3.17,35.49 -3.22,35.40 -3.27,35.30 -3.29,35.20 -3.31,35.09 -3.29,34.99 -3.28,34.88 -3.23,34.79 -3.18,34.69 -3.10,34.62 -3.03,34.55 -2.93,34.50 -2.84,34.45 -2.73,34.44 -2.63,34.43 -2.52,34.45 -2.42,34.47 -2.33,34.53 -2.23,34.58 -2.16,34.66 -2.09,34.74 -2.05,34.84 -2.01,34.94 -2.01,35.04 -2.00,35.15 -2.03,35.25 -2.05,35.35 -2.11,35.44 -2.17,35.53 -2.25,35.60 -2.34,35.66 -2.44,35.70 -2.54,35.73 -2.64,35.73 -2.75,35.73 -2.85,35.70 -2.95,35.67 -3.04,35.61 -3.12,35.54 -3.18,35.46 -3.24,35.37 -3.27,35.27 -3.30,35.16 -3.30,35.06 -3.30,34.95 -3.26,34.85 -3.22,34.75 -3.15,34.67 -3.08,34.59 -2.99,34.53 -2.90,34.48 -2.80,34.45 -2.70,34.43 -2.59,34.44 -2.48,34.45 -2.48,34.45 -2.48,34.45 -1.25,33.35 -0.01,32.25 1.02,30.51 2.07,28.78 3.29,25.97 4.51,23.17 4.70,21.56 4.89,19.95 4.70,17.23 4.52,14.50 4.04,12.07 3.57,9.63 2.35,6.93 1.12,4.22 0.23,2.33 -0.66,0.44 -0.70,0.35 -0.75,0.27 -0.77,0.17 -0.79,0.08 -0.79,-0.01 -0.79,-0.10 -0.76,-0.20 -0.74,-0.29 -0.69,-0.38 -0.65,-0.46 -0.58,-0.53 -0.52,-0.60 -0.44,-0.66 -0.36,-0.71 -0.26,-0.74 -0.17,-0.77 -0.08,-0.78 0.01,-0.79 0.10,-0.78 0.20,-0.77 0.29,-0.73 0.38,-0.70 0.46,-0.64 0.54,-0.59 0.60,-0.51 0.66,-0.44 0.66,-0.44 L 0.66,-0.44 Z"></path></g><g transform="translate(411 602) rotate(0 -3 19)" stroke="none"><path fill="#343a40" d="M 0.23,0.70 Q 0.23,0.70 -0.42,1.33 -1.09,1.95 -1.67,3.02 -2.25,4.10 -3.07,6.48 -3.88,8.86 -4.80,12.19 -5.72,15.52 -6.09,18.00 -6.47,20.47 -6.33,23.39 -6.20,26.32 -5.60,28.58 -5.00,30.84 -3.98,32.49 -2.96,34.15 -2.07,35.09 -1.17,36.03 -0.63,36.38 -0.10,36.73 1.22,37.51 2.54,38.29 2.64,38.32 2.75,38.34 2.83,38.40 2.92,38.46 2.99,38.55 3.05,38.63 3.09,38.73 3.12,38.83 3.12,38.94 3.12,39.04 3.09,39.14 3.06,39.25 2.99,39.33 2.93,39.42 2.84,39.48 2.75,39.54 2.65,39.57 2.55,39.59 2.44,39.59 2.34,39.58 2.24,39.55 2.14,39.51 2.06,39.44 1.98,39.37 1.92,39.28 1.87,39.19 1.84,39.09 1.82,38.98 1.83,38.88 1.84,38.77 1.88,38.67 1.93,38.58 2.00,38.50 2.07,38.42 2.17,38.37 2.26,38.32 2.36,38.30 2.47,38.29 2.57,38.30 2.68,38.32 2.77,38.37 2.87,38.42 2.94,38.49 3.01,38.57 3.06,38.67 3.11,38.76 3.12,38.87 3.13,38.97 3.11,39.08 3.09,39.18 3.03,39.27 2.98,39.36 2.90,39.43 2.82,39.50 2.72,39.54 2.62,39.58 2.51,39.59 2.41,39.60 2.41,39.60 2.41,39.60 0.16,39.74 -2.07,39.88 -3.00,39.29 -3.93,38.71 -5.14,37.44 -6.36,36.18 -7.59,34.01 -8.82,31.84 -9.47,29.16 -10.11,26.47 -10.20,23.17 -10.28,19.87 -9.81,17.16 -9.35,14.46 -8.29,11.02 -7.22,7.58 -6.09,4.86 -4.96,2.13 -3.65,0.66 -2.35,-0.80 -1.29,-0.75 -0.23,-0.70 -0.14,-0.72 -0.05,-0.74 0.03,-0.74 0.12,-0.73 0.20,-0.71 0.29,-0.68 0.37,-0.64 0.44,-0.59 0.51,-0.53 0.57,-0.47 0.62,-0.39 0.67,-0.31 0.70,-0.23 0.73,-0.14 0.73,-0.05 0.74,0.03 0.73,0.11 0.71,0.20 0.68,0.29 0.64,0.37 0.59,0.44 0.53,0.51 0.46,0.57 0.39,0.63 0.31,0.67 0.23,0.70 0.23,0.70 L 0.23,0.70 Z"></path></g><g transform="translate(421 619) rotate(0 1.5 6)" stroke="none"><path fill="#343a40" d="M 0.61,0.46 Q 0.61,0.46 -0.02,1.74 -0.67,3.01 -0.85,4.72 -1.03,6.42 -1.45,8.36 -1.86,10.30 -1.18,11.91 -0.49,13.52 0.23,14.40 0.96,15.29 1.50,15.53 2.03,15.76 2.81,15.36 3.59,14.97 4.36,14.16 5.13,13.36 5.39,12.11 5.65,10.85 5.82,8.64 5.99,6.42 5.51,4.52 5.04,2.62 3.79,0.82 2.54,-0.96 1.50,-1.98 0.47,-3.00 -0.35,-3.32 -1.17,-3.64 -1.69,-3.80 -2.21,-3.96 -2.38,-4.56 -2.55,-5.16 -2.07,-4.08 -1.58,-3.00 0.19,-1.43 1.97,0.13 2.04,0.21 2.11,0.29 2.16,0.39 2.20,0.49 2.21,0.59 2.21,0.70 2.19,0.80 2.16,0.90 2.10,0.99 2.05,1.08 1.96,1.15 1.88,1.22 1.78,1.25 1.68,1.29 1.58,1.29 1.47,1.29 1.37,1.26 1.27,1.23 1.18,1.17 1.09,1.11 1.03,1.02 0.97,0.93 0.94,0.83 0.91,0.73 0.91,0.62 0.92,0.52 0.95,0.42 0.99,0.32 1.06,0.23 1.12,0.15 1.21,0.10 1.30,0.04 1.41,0.01 1.51,-0.00 1.62,0.00 1.72,0.01 1.82,0.05 1.92,0.09 1.99,0.16 2.07,0.23 2.13,0.33 2.18,0.42 2.20,0.52 2.22,0.63 2.20,0.73 2.19,0.84 2.14,0.93 2.09,1.03 2.02,1.10 1.94,1.18 1.85,1.22 1.75,1.27 1.65,1.29 1.54,1.30 1.44,1.28 1.33,1.26 1.24,1.21 1.15,1.15 1.15,1.15 1.15,1.15 -0.94,-0.15 -3.03,-1.45 -4.20,-2.50 -5.36,-3.55 -5.59,-4.31 -5.83,-5.07 -4.74,-6.01 -3.65,-6.95 -2.62,-7.18 -1.59,-7.40 -0.63,-7.14 0.32,-6.88 1.62,-6.21 2.93,-5.54 4.20,-4.22 5.47,-2.90 6.93,-0.55 8.39,1.78 8.90,4.22 9.41,6.66 9.18,9.24 8.94,11.82 8.26,13.73 7.57,15.65 6.12,16.88 4.67,18.12 2.93,18.46 1.18,18.80 -0.16,18.08 -1.51,17.36 -2.50,15.98 -3.49,14.60 -4.15,12.23 -4.82,9.87 -4.34,7.87 -3.87,5.88 -3.32,3.73 -2.77,1.58 -1.69,0.55 -0.61,-0.46 -0.55,-0.53 -0.48,-0.59 -0.41,-0.64 -0.33,-0.69 -0.24,-0.72 -0.15,-0.75 -0.06,-0.76 0.03,-0.77 0.12,-0.75 0.21,-0.74 0.30,-0.70 0.38,-0.66 0.46,-0.61 0.53,-0.55 0.59,-0.48 0.65,-0.41 0.69,-0.32 0.73,-0.24 0.75,-0.15 0.77,-0.06 0.76,0.03 0.76,0.12 0.73,0.21 0.71,0.30 0.66,0.38 0.61,0.46 0.61,0.46 L 0.61,0.46 Z"></path></g><g transform="translate(433 630) rotate(0 -1 5)" stroke="none"><path fill="#343a40" d="M 0.69,-0.23 Q 0.69,-0.23 1.41,0.52 2.13,1.28 2.01,2.87 1.90,4.45 1.18,5.85 0.47,7.25 -1.37,8.44 -3.22,9.63 -3.30,9.56 -3.38,9.49 -3.44,9.40 -3.49,9.31 -3.52,9.21 -3.54,9.10 -3.53,9.00 -3.52,8.89 -3.48,8.80 -3.44,8.70 -3.37,8.62 -3.29,8.54 -3.20,8.49 -3.11,8.44 -3.00,8.42 -2.90,8.40 -2.79,8.42 -2.69,8.43 -2.59,8.48 -2.50,8.53 -2.42,8.60 -2.35,8.68 -2.30,8.78 -2.26,8.87 -2.24,8.98 -2.23,9.08 -2.25,9.19 -2.27,9.29 -2.33,9.38 -2.38,9.47 -2.46,9.54 -2.54,9.61 -2.64,9.66 -2.74,9.70 -2.84,9.70 -2.95,9.71 -3.05,9.68 -3.15,9.66 -3.24,9.60 -3.33,9.54 -3.40,9.46 -3.46,9.37 -3.50,9.27 -3.53,9.17 -3.54,9.07 -3.54,8.96 -3.50,8.86 -3.47,8.76 -3.41,8.67 -3.35,8.59 -3.26,8.53 -3.17,8.47 -3.07,8.44 -2.97,8.41 -2.86,8.41 -2.76,8.41 -2.66,8.45 -2.56,8.49 -2.56,8.49 -2.56,8.49 -2.56,6.99 -2.56,5.50 -1.99,4.70 -1.41,3.90 -1.19,3.03 -0.98,2.16 -0.83,1.19 -0.69,0.23 -0.71,0.14 -0.73,0.05 -0.72,-0.02 -0.72,-0.11 -0.70,-0.20 -0.67,-0.28 -0.63,-0.36 -0.58,-0.44 -0.52,-0.50 -0.46,-0.56 -0.38,-0.61 -0.31,-0.66 -0.23,-0.69 -0.14,-0.71 -0.05,-0.72 0.02,-0.73 0.11,-0.71 0.20,-0.70 0.28,-0.67 0.36,-0.63 0.43,-0.58 0.50,-0.52 0.56,-0.46 0.62,-0.39 0.65,-0.31 0.69,-0.23 0.69,-0.23 L 0.69,-0.23 Z"></path></g><g transform="translate(448 625) rotate(0 5.5 -0.5)" stroke="none"><path fill="#343a40" d="M 0.20,-0.82 Q 0.20,-0.82 1.47,-1.00 2.73,-1.18 3.94,-1.11 5.14,-1.04 6.03,-1.27 6.92,-1.50 8.59,-1.78 10.27,-2.07 10.34,-2.15 10.41,-2.23 10.50,-2.28 10.59,-2.34 10.70,-2.36 10.80,-2.38 10.91,-2.37 11.01,-2.36 11.11,-2.31 11.20,-2.27 11.28,-2.19 11.36,-2.12 11.41,-2.02 11.45,-1.93 11.47,-1.83 11.49,-1.72 11.47,-1.62 11.45,-1.51 11.40,-1.42 11.35,-1.32 11.27,-1.25 11.19,-1.18 11.10,-1.14 11.00,-1.09 10.89,-1.08 10.79,-1.07 10.69,-1.09 10.58,-1.12 10.49,-1.17 10.40,-1.23 10.33,-1.31 10.26,-1.39 10.23,-1.49 10.19,-1.59 10.18,-1.70 10.18,-1.80 10.21,-1.91 10.24,-2.01 10.30,-2.09 10.36,-2.18 10.44,-2.25 10.53,-2.31 10.63,-2.34 10.73,-2.38 10.84,-2.37 10.94,-2.37 11.04,-2.34 11.14,-2.30 11.23,-2.24 11.31,-2.17 11.37,-2.09 11.43,-2.00 11.46,-1.89 11.48,-1.79 11.48,-1.69 11.47,-1.58 11.43,-1.48 11.39,-1.38 11.39,-1.38 11.39,-1.38 9.53,0.40 7.68,2.19 6.26,2.44 4.85,2.68 3.36,2.50 1.86,2.33 0.82,1.57 -0.20,0.82 -0.30,0.78 -0.39,0.74 -0.47,0.69 -0.56,0.63 -0.63,0.55 -0.69,0.47 -0.74,0.38 -0.79,0.29 -0.81,0.19 -0.84,0.09 -0.84,-0.00 -0.84,-0.10 -0.81,-0.20 -0.79,-0.30 -0.74,-0.39 -0.69,-0.48 -0.62,-0.55 -0.55,-0.63 -0.47,-0.69 -0.39,-0.75 -0.29,-0.78 -0.19,-0.82 -0.09,-0.83 0.00,-0.84 0.10,-0.83 0.20,-0.82 0.20,-0.82 L 0.20,-0.82 Z"></path></g><g transform="translate(474 611) rotate(0 -1 13)" stroke="none"><path fill="#343a40" d="M 0.64,0.32 Q 0.64,0.32 0.43,1.64 0.22,2.96 0.11,4.38 -0.00,5.81 0.25,8.34 0.51,10.87 0.63,13.49 0.76,16.11 1.08,17.63 1.41,19.16 1.58,20.52 1.74,21.89 1.19,23.41 0.64,24.94 0.64,25.01 0.64,25.09 0.62,25.17 0.60,25.25 0.56,25.32 0.52,25.39 0.47,25.44 0.42,25.50 0.35,25.55 0.28,25.59 0.21,25.62 0.14,25.64 0.06,25.65 -0.01,25.66 -0.09,25.65 -0.17,25.64 -0.24,25.61 -0.32,25.58 -0.38,25.53 -0.44,25.49 -0.50,25.43 -0.55,25.37 -0.58,25.30 -0.62,25.23 -0.64,25.15 -0.65,25.07 -0.52,24.77 -0.39,24.47 -0.29,24.42 -0.19,24.38 -0.09,24.36 0.01,24.35 0.11,24.37 0.21,24.39 0.31,24.44 0.40,24.49 0.47,24.57 0.54,24.65 0.58,24.75 0.63,24.85 0.63,24.95 0.64,25.06 0.62,25.16 0.59,25.26 0.53,25.35 0.48,25.44 0.39,25.51 0.31,25.58 0.21,25.61 0.11,25.65 0.01,25.65 -0.09,25.65 -0.19,25.62 -0.29,25.59 -0.38,25.53 -0.47,25.47 -0.53,25.38 -0.59,25.30 -0.62,25.19 -0.65,25.09 -0.65,24.99 -0.65,24.88 -0.61,24.78 -0.57,24.68 -0.51,24.60 -0.44,24.52 -0.35,24.46 -0.26,24.40 -0.16,24.38 -0.06,24.35 0.04,24.36 0.15,24.37 0.24,24.41 0.34,24.45 0.42,24.52 0.50,24.59 0.55,24.68 0.60,24.78 0.62,24.88 0.64,24.99 0.63,25.09 0.62,25.20 0.57,25.29 0.52,25.39 0.58,25.16 0.64,24.93 0.64,25.01 0.64,25.09 0.62,25.17 0.60,25.25 0.56,25.32 0.52,25.39 0.47,25.44 0.42,25.50 0.35,25.55 0.28,25.59 0.21,25.62 0.14,25.64 0.06,25.65 -0.01,25.66 -0.09,25.65 -0.17,25.64 -0.24,25.61 -0.32,25.58 -0.38,25.53 -0.44,25.49 -0.50,25.43 -0.55,25.37 -0.58,25.30 -0.62,25.23 -0.64,25.15 -0.65,25.07 -1.40,23.69 -2.15,22.30 -2.25,21.09 -2.36,19.88 -2.67,18.05 -2.99,16.23 -3.02,13.67 -3.05,11.11 -3.16,8.22 -3.27,5.34 -2.89,3.49 -2.52,1.63 -1.58,0.65 -0.64,-0.32 -0.59,-0.39 -0.54,-0.46 -0.48,-0.52 -0.41,-0.58 -0.34,-0.62 -0.26,-0.66 -0.18,-0.68 -0.10,-0.70 -0.01,-0.71 0.07,-0.71 0.15,-0.69 0.24,-0.67 0.31,-0.63 0.39,-0.59 0.46,-0.54 0.52,-0.48 0.57,-0.41 0.62,-0.34 0.65,-0.26 0.69,-0.18 0.70,-0.09 0.71,-0.01 0.70,0.07 0.69,0.15 0.66,0.23 0.64,0.32 0.64,0.32 L 0.64,0.32 Z"></path></g><g transform="translate(481 599) rotate(0 4 21.5)" stroke="none"><path fill="#343a40" d="M 0.74,0 Q 0.74,0 1.09,1.12 1.43,2.24 2.30,3.87 3.18,5.49 4.45,7.99 5.72,10.49 6.89,13.66 8.07,16.82 8.87,19.64 9.67,22.45 9.77,25.58 9.87,28.70 9.30,31.58 8.74,34.46 7.89,36.63 7.04,38.79 6.72,39.85 6.41,40.91 3.87,41.77 1.32,42.64 1.22,42.63 1.11,42.61 1.02,42.57 0.92,42.52 0.85,42.45 0.77,42.37 0.72,42.28 0.68,42.18 0.66,42.08 0.65,41.97 0.66,41.87 0.68,41.76 0.74,41.67 0.79,41.58 0.87,41.51 0.94,41.43 1.04,41.39 1.14,41.35 1.24,41.34 1.35,41.33 1.45,41.35 1.56,41.38 1.65,41.44 1.74,41.49 1.80,41.57 1.87,41.66 1.91,41.76 1.95,41.86 1.95,41.96 1.95,42.07 1.92,42.17 1.89,42.27 1.83,42.36 1.77,42.45 1.68,42.51 1.60,42.57 1.50,42.60 1.40,42.63 1.29,42.63 1.18,42.63 1.08,42.59 0.98,42.56 0.90,42.49 0.82,42.43 0.76,42.34 0.70,42.25 0.67,42.15 0.65,42.04 0.66,41.94 0.66,41.83 0.70,41.73 0.75,41.63 0.82,41.56 0.89,41.48 0.98,41.42 1.07,41.37 1.17,41.35 1.28,41.33 1.28,41.33 1.28,41.33 1.94,40.53 2.60,39.73 2.98,38.51 3.36,37.29 4.13,35.47 4.91,33.64 5.47,31.18 6.03,28.73 6.06,26.06 6.09,23.40 5.38,20.71 4.68,18.02 3.66,15.00 2.64,11.98 1.45,9.39 0.26,6.80 -0.58,4.57 -1.43,2.35 -1.09,1.17 -0.74,0 -0.73,-0.08 -0.72,-0.17 -0.69,-0.26 -0.66,-0.34 -0.61,-0.42 -0.56,-0.49 -0.49,-0.55 -0.42,-0.61 -0.34,-0.65 -0.26,-0.70 -0.17,-0.72 -0.09,-0.74 0.00,-0.74 0.09,-0.74 0.17,-0.72 0.26,-0.70 0.34,-0.65 0.42,-0.61 0.49,-0.55 0.56,-0.49 0.61,-0.42 0.66,-0.34 0.69,-0.26 0.72,-0.17 0.73,-0.08 0.74,0.00 0.74,0.00 L 0.74,0 Z"></path></g><g transform="translate(15 302) rotate(0 3 20.5)" stroke="none"><path fill="#343a40" d="M 0.79,0.35 Q 0.79,0.35 0.05,3.12 -0.68,5.88 -1.35,9.13 -2.01,12.39 -2.29,15.45 -2.57,18.51 -2.40,21.72 -2.23,24.94 -1.60,27.93 -0.97,30.92 0.06,33.19 1.10,35.45 2.21,36.57 3.32,37.69 3.75,38.18 4.19,38.67 5.03,38.52 5.88,38.37 8.12,37.92 10.37,37.47 10.47,37.46 10.58,37.46 10.68,37.48 10.79,37.51 10.87,37.57 10.96,37.62 11.03,37.71 11.10,37.79 11.13,37.89 11.17,37.99 11.17,38.10 11.17,38.20 11.14,38.30 11.11,38.41 11.05,38.49 10.98,38.58 10.90,38.64 10.81,38.70 10.71,38.73 10.61,38.76 10.50,38.76 10.39,38.75 10.29,38.72 10.19,38.68 10.11,38.61 10.03,38.54 9.97,38.45 9.92,38.36 9.89,38.26 9.87,38.16 9.88,38.05 9.89,37.95 9.93,37.85 9.97,37.75 10.04,37.67 10.11,37.59 10.21,37.54 10.30,37.49 10.40,37.47 10.51,37.45 10.61,37.47 10.72,37.48 10.81,37.53 10.91,37.58 10.98,37.65 11.06,37.73 11.10,37.83 11.15,37.92 11.16,38.03 11.18,38.13 11.16,38.24 11.14,38.34 11.08,38.43 11.03,38.52 10.95,38.59 10.87,38.67 10.77,38.71 10.68,38.75 10.68,38.75 10.68,38.75 8.58,39.67 6.48,40.60 4.87,41.11 3.26,41.63 1.98,40.98 0.70,40.33 -0.87,38.75 -2.45,37.17 -3.68,34.46 -4.90,31.74 -5.55,28.43 -6.19,25.12 -6.32,21.61 -6.45,18.11 -6.07,14.83 -5.68,11.55 -4.80,8.01 -3.91,4.46 -2.35,2.05 -0.79,-0.35 -0.74,-0.44 -0.69,-0.53 -0.61,-0.61 -0.54,-0.68 -0.45,-0.74 -0.36,-0.79 -0.26,-0.82 -0.16,-0.86 -0.05,-0.86 0.04,-0.87 0.15,-0.85 0.25,-0.83 0.35,-0.79 0.44,-0.75 0.53,-0.68 0.61,-0.62 0.68,-0.53 0.74,-0.45 0.79,-0.36 0.83,-0.26 0.85,-0.16 0.87,-0.05 0.86,0.04 0.86,0.15 0.83,0.25 0.79,0.35 0.79,0.35 L 0.79,0.35 Z"></path></g><g transform="translate(23 324) rotate(0 5 -1.5)" stroke="none"><path fill="#343a40" d="M -0.20,-0.83 Q -0.20,-0.83 0.82,-1.60 1.84,-2.38 2.70,-2.52 3.56,-2.66 4.25,-2.66 4.94,-2.66 5.51,-2.62 6.09,-2.57 7.67,-2.93 9.24,-3.28 9.34,-3.33 9.43,-3.37 9.54,-3.38 9.64,-3.39 9.75,-3.37 9.85,-3.34 9.94,-3.29 10.03,-3.23 10.10,-3.15 10.17,-3.06 10.20,-2.97 10.24,-2.87 10.25,-2.76 10.25,-2.65 10.22,-2.55 10.19,-2.45 10.13,-2.36 10.07,-2.28 9.98,-2.21 9.90,-2.15 9.80,-2.12 9.69,-2.09 9.59,-2.09 9.48,-2.09 9.38,-2.12 9.28,-2.16 9.20,-2.23 9.11,-2.29 9.06,-2.38 9.00,-2.47 8.97,-2.57 8.94,-2.67 8.95,-2.78 8.96,-2.89 9.00,-2.98 9.04,-3.08 9.11,-3.16 9.18,-3.24 9.27,-3.30 9.37,-3.35 9.47,-3.37 9.57,-3.39 9.68,-3.38 9.78,-3.36 9.88,-3.32 9.98,-3.27 10.05,-3.20 10.13,-3.12 10.18,-3.03 10.22,-2.93 10.24,-2.83 10.26,-2.72 10.24,-2.62 10.22,-2.52 10.17,-2.42 10.11,-2.33 10.04,-2.26 9.96,-2.19 9.96,-2.19 9.96,-2.19 7.59,-0.68 5.23,0.82 4.68,0.92 4.14,1.02 3.44,1.12 2.75,1.23 1.47,1.03 0.20,0.83 0.10,0.84 0.00,0.85 -0.09,0.84 -0.20,0.83 -0.29,0.79 -0.39,0.76 -0.48,0.70 -0.56,0.64 -0.63,0.56 -0.70,0.48 -0.75,0.39 -0.80,0.30 -0.82,0.20 -0.85,0.10 -0.85,0.00 -0.85,-0.10 -0.82,-0.20 -0.80,-0.30 -0.75,-0.39 -0.70,-0.48 -0.63,-0.56 -0.57,-0.64 -0.48,-0.69 -0.40,-0.75 -0.30,-0.79 -0.20,-0.83 -0.20,-0.83 L -0.20,-0.83 Z"></path></g><g transform="translate(46 309) rotate(0 -1 10)" stroke="none"><path fill="#343a40" d="M -0.65,0.32 Q -0.65,0.32 -1.12,-0.15 -1.60,-0.63 -1.01,-0.96 -0.42,-1.29 -0.22,-0.72 -0.02,-0.15 -0.02,1.59 -0.02,3.35 -0.01,5.83 -0.01,8.32 -0.00,11.38 -0.00,14.45 0.28,16.49 0.56,18.53 -0.36,20.24 -1.28,21.95 -1.28,22.03 -1.28,22.11 -1.30,22.19 -1.32,22.27 -1.35,22.34 -1.39,22.41 -1.44,22.47 -1.49,22.53 -1.56,22.57 -1.62,22.62 -1.69,22.65 -1.77,22.67 -1.85,22.68 -1.93,22.70 -2.00,22.69 -2.08,22.68 -2.16,22.65 -2.23,22.62 -2.30,22.58 -2.36,22.53 -2.42,22.48 -2.47,22.42 -2.51,22.35 -2.54,22.28 -2.56,22.20 -2.58,22.12 -2.52,22.28 -2.46,22.43 -2.51,22.34 -2.56,22.24 -2.57,22.14 -2.59,22.03 -2.57,21.93 -2.55,21.82 -2.50,21.73 -2.45,21.64 -2.37,21.56 -2.30,21.49 -2.20,21.45 -2.10,21.40 -2.00,21.39 -1.89,21.38 -1.79,21.41 -1.68,21.43 -1.59,21.49 -1.50,21.54 -1.43,21.62 -1.37,21.70 -1.33,21.80 -1.29,21.90 -1.28,22.01 -1.28,22.11 -1.31,22.22 -1.34,22.32 -1.40,22.41 -1.46,22.49 -1.54,22.56 -1.63,22.62 -1.73,22.65 -1.83,22.69 -1.94,22.69 -2.04,22.69 -2.14,22.65 -2.24,22.62 -2.33,22.55 -2.41,22.49 -2.47,22.40 -2.53,22.31 -2.56,22.21 -2.59,22.10 -2.58,22.00 -2.57,21.89 -2.53,21.79 -2.49,21.70 -2.42,21.62 -2.35,21.53 -2.26,21.48 -2.17,21.43 -2.07,21.40 -1.96,21.38 -1.86,21.39 -1.75,21.41 -1.66,21.45 -1.56,21.50 -1.42,21.73 -1.28,21.95 -1.28,22.03 -1.28,22.11 -1.30,22.19 -1.32,22.27 -1.35,22.34 -1.39,22.41 -1.44,22.47 -1.49,22.53 -1.56,22.57 -1.62,22.62 -1.69,22.65 -1.77,22.67 -1.85,22.68 -1.93,22.70 -2.00,22.69 -2.08,22.68 -2.16,22.65 -2.23,22.62 -2.30,22.58 -2.36,22.53 -2.42,22.48 -2.47,22.42 -2.51,22.35 -2.54,22.28 -2.56,22.20 -2.58,22.12 -2.99,20.59 -3.40,19.05 -3.69,16.75 -3.98,14.45 -3.96,11.37 -3.94,8.29 -3.91,5.79 -3.88,3.28 -3.82,1.40 -3.76,-0.46 -3.41,-1.67 -3.05,-2.88 -2.21,-3.15 -1.36,-3.42 -0.45,-2.54 0.45,-1.66 0.55,-0.99 0.65,-0.32 0.68,-0.24 0.71,-0.16 0.71,-0.07 0.72,0.01 0.71,0.10 0.70,0.18 0.67,0.26 0.63,0.35 0.58,0.42 0.53,0.49 0.46,0.55 0.40,0.60 0.32,0.64 0.24,0.68 0.15,0.70 0.07,0.72 -0.01,0.72 -0.10,0.72 -0.18,0.69 -0.27,0.67 -0.34,0.63 -0.42,0.59 -0.49,0.53 -0.55,0.47 -0.60,0.39 -0.65,0.32 -0.65,0.32 L -0.65,0.32 Z"></path></g><g transform="translate(58 329) rotate(0 -3.5 6.5)" stroke="none"><path fill="#343a40" d="M 0.84,0.28 Q 0.84,0.28 0.89,1.25 0.93,2.22 0.55,3.26 0.17,4.29 -0.57,5.67 -1.32,7.06 -2.20,8.49 -3.08,9.93 -3.37,10.92 -3.65,11.92 -4.09,12.38 -4.52,12.85 -4.62,13.06 -4.71,13.26 -4.86,13.44 -5.00,13.62 -5.18,13.76 -5.37,13.90 -5.58,13.99 -5.79,14.08 -6.01,14.12 -6.24,14.16 -6.47,14.14 -6.70,14.13 -6.92,14.06 -7.13,13.99 -7.33,13.87 -7.52,13.74 -7.68,13.58 -7.84,13.42 -7.96,13.22 -8.08,13.02 -8.14,12.80 -8.21,12.58 -8.22,12.35 -8.23,12.12 -8.19,11.90 -8.14,11.67 -7.51,11.43 -6.88,11.19 -5.90,10.19 -4.92,9.18 -4.85,9.11 -4.78,9.03 -4.68,8.98 -4.59,8.93 -4.48,8.92 -4.38,8.90 -4.27,8.92 -4.17,8.94 -4.07,8.99 -3.98,9.04 -3.91,9.11 -3.84,9.19 -3.79,9.29 -3.75,9.39 -3.74,9.49 -3.73,9.60 -3.75,9.70 -3.77,9.80 -3.83,9.90 -3.88,9.99 -3.97,10.05 -4.05,10.12 -4.15,10.16 -4.25,10.20 -4.35,10.20 -4.46,10.21 -4.56,10.18 -4.66,10.15 -4.75,10.09 -4.84,10.03 -4.90,9.95 -4.96,9.86 -5.00,9.76 -5.03,9.66 -5.03,9.55 -5.03,9.45 -4.99,9.35 -4.96,9.25 -4.90,9.16 -4.83,9.08 -4.74,9.02 -4.65,8.96 -4.55,8.93 -4.45,8.90 -4.34,8.91 -4.24,8.92 -4.14,8.96 -4.04,9.00 -3.96,9.07 -3.88,9.14 -3.82,9.23 -3.77,9.32 -3.75,9.42 -3.73,9.53 -3.74,9.63 -3.75,9.74 -3.80,9.83 -3.84,9.93 -3.84,9.93 -3.84,9.93 -4.18,11.39 -4.52,12.85 -4.62,13.06 -4.71,13.26 -4.86,13.44 -5.00,13.62 -5.18,13.76 -5.37,13.90 -5.58,13.99 -5.79,14.08 -6.01,14.12 -6.24,14.16 -6.47,14.15 -6.70,14.13 -6.91,14.06 -7.13,13.99 -7.33,13.87 -7.52,13.74 -7.68,13.58 -7.84,13.42 -7.96,13.22 -8.08,13.02 -8.14,12.80 -8.21,12.58 -8.22,12.35 -8.23,12.12 -8.19,11.90 -8.14,11.67 -7.68,11.14 -7.21,10.62 -6.74,9.27 -6.27,7.93 -5.36,6.56 -4.45,5.20 -3.71,4.06 -2.96,2.92 -2.52,2.07 -2.08,1.22 -1.46,0.46 -0.84,-0.28 -0.79,-0.37 -0.75,-0.47 -0.68,-0.55 -0.61,-0.64 -0.53,-0.70 -0.44,-0.77 -0.34,-0.81 -0.24,-0.85 -0.14,-0.87 -0.03,-0.88 0.07,-0.88 0.17,-0.87 0.27,-0.83 0.38,-0.80 0.47,-0.74 0.56,-0.68 0.63,-0.61 0.71,-0.53 0.76,-0.44 0.81,-0.34 0.84,-0.24 0.87,-0.14 0.88,-0.03 0.88,0.07 0.86,0.17 0.84,0.28 0.84,0.28 L 0.84,0.28 Z"></path></g><g transform="translate(75 312) rotate(0 6.5 6)" stroke="none"><path fill="#343a40" d="M 0.68,0.34 Q 0.68,0.34 0.41,1.63 0.14,2.91 0.03,4.63 -0.06,6.35 -0.43,8.08 -0.80,9.81 -0.39,11.28 0.02,12.75 0.74,13.39 1.47,14.04 2.90,13.99 4.33,13.95 5.67,13.47 7.01,13.00 8.39,12.30 9.77,11.59 10.70,10.07 11.63,8.55 12.36,7.13 13.08,5.71 12.77,4.05 12.46,2.39 11.63,0.99 10.81,-0.39 9.58,-1.11 8.35,-1.82 6.93,-1.83 5.52,-1.84 3.80,-1.63 2.09,-1.42 1.06,-0.94 0.02,-0.46 1.39,1.22 2.77,2.92 2.83,3.00 2.90,3.09 2.94,3.19 2.98,3.28 2.98,3.39 2.99,3.50 2.96,3.60 2.93,3.70 2.86,3.79 2.80,3.87 2.72,3.94 2.63,4.00 2.53,4.03 2.43,4.06 2.32,4.06 2.22,4.06 2.12,4.03 2.02,3.99 1.93,3.92 1.85,3.86 1.79,3.77 1.73,3.68 1.71,3.58 1.68,3.48 1.69,3.37 1.70,3.26 1.74,3.17 1.78,3.07 1.85,2.99 1.92,2.91 2.01,2.85 2.10,2.80 2.20,2.78 2.31,2.76 2.41,2.77 2.52,2.79 2.62,2.83 2.71,2.88 2.79,2.95 2.86,3.03 2.91,3.12 2.96,3.22 2.98,3.32 2.99,3.43 2.97,3.53 2.95,3.63 2.90,3.73 2.85,3.82 2.77,3.89 2.69,3.96 2.60,4.01 2.50,4.05 2.39,4.06 2.29,4.07 2.18,4.05 2.08,4.02 1.99,3.97 1.90,3.91 1.90,3.91 1.90,3.91 0.19,2.59 -1.51,1.27 -2.10,0.18 -2.69,-0.90 -2.30,-2.20 -1.91,-3.51 -0.16,-4.37 1.58,-5.23 3.70,-5.46 5.83,-5.69 8.04,-5.39 10.25,-5.10 12.14,-3.74 14.02,-2.38 15.11,-0.24 16.21,1.88 16.35,4.47 16.50,7.06 15.59,8.87 14.69,10.68 13.13,12.70 11.58,14.73 9.83,15.60 8.07,16.48 6.09,17.01 4.11,17.53 1.78,17.15 -0.53,16.76 -1.88,15.24 -3.22,13.73 -3.63,11.47 -4.03,9.20 -3.62,7.58 -3.20,5.95 -2.82,3.81 -2.44,1.68 -1.56,0.66 -0.68,-0.34 -0.63,-0.42 -0.58,-0.49 -0.51,-0.56 -0.44,-0.62 -0.36,-0.66 -0.28,-0.71 -0.19,-0.73 -0.10,-0.76 -0.01,-0.76 0.07,-0.76 0.16,-0.74 0.25,-0.72 0.34,-0.68 0.42,-0.64 0.49,-0.58 0.56,-0.52 0.61,-0.44 0.67,-0.37 0.70,-0.28 0.74,-0.19 0.75,-0.10 0.76,-0.01 0.75,0.07 0.75,0.16 0.71,0.25 0.68,0.34 0.68,0.34 L 0.68,0.34 Z"></path></g><g transform="translate(93 297) rotate(0 3.5 18)" stroke="none"><path fill="#343a40" d="M 0.73,-0.48 Q 0.73,-0.48 1.61,0.16 2.50,0.82 3.63,2.28 4.77,3.73 5.94,6.25 7.12,8.76 7.94,11.62 8.75,14.48 8.83,17.60 8.91,20.72 8.35,23.60 7.78,26.47 7.24,28.52 6.71,30.57 5.82,32.22 4.93,33.87 3.36,34.17 1.79,34.47 1.74,34.54 1.69,34.60 1.63,34.65 1.57,34.70 1.50,34.74 1.43,34.77 1.35,34.79 1.27,34.81 1.20,34.80 1.12,34.80 1.04,34.78 0.96,34.76 0.89,34.72 0.83,34.68 0.77,34.63 0.71,34.57 0.67,34.51 0.62,34.44 0.60,34.36 0.57,34.29 0.57,34.21 0.56,34.13 0.57,34.05 0.58,33.98 0.61,33.90 0.64,33.83 0.66,34.18 0.68,34.54 0.63,34.44 0.59,34.35 0.57,34.24 0.56,34.14 0.58,34.03 0.60,33.93 0.65,33.83 0.70,33.74 0.78,33.67 0.86,33.60 0.96,33.56 1.05,33.51 1.16,33.51 1.26,33.50 1.37,33.52 1.47,33.55 1.56,33.60 1.65,33.66 1.72,33.74 1.78,33.83 1.82,33.93 1.86,34.02 1.86,34.13 1.87,34.24 1.83,34.34 1.80,34.44 1.74,34.53 1.68,34.61 1.59,34.68 1.51,34.74 1.41,34.77 1.31,34.80 1.20,34.80 1.09,34.80 0.99,34.76 0.89,34.72 0.81,34.66 0.73,34.59 0.67,34.50 0.61,34.41 0.59,34.31 0.56,34.21 0.57,34.10 0.58,33.99 0.62,33.90 0.66,33.80 0.73,33.72 0.80,33.64 0.89,33.59 0.99,33.54 1.09,33.52 1.19,33.49 1.30,33.51 1.40,33.52 1.50,33.57 1.60,33.62 1.69,34.04 1.79,34.47 1.74,34.54 1.69,34.60 1.63,34.65 1.57,34.70 1.50,34.74 1.43,34.77 1.35,34.79 1.27,34.81 1.20,34.80 1.12,34.80 1.04,34.78 0.96,34.76 0.89,34.72 0.83,34.68 0.77,34.63 0.71,34.57 0.67,34.51 0.62,34.44 0.60,34.36 0.57,34.29 0.57,34.21 0.56,34.13 0.57,34.05 0.58,33.98 0.61,33.90 0.64,33.83 1.03,32.87 1.43,31.91 2.14,30.72 2.84,29.52 3.36,27.58 3.88,25.64 4.44,23.19 5.01,20.73 5.04,18.08 5.08,15.43 4.43,12.83 3.78,10.23 2.86,8.00 1.95,5.77 0.87,4.20 -0.20,2.62 -0.46,1.55 -0.73,0.48 -0.77,0.39 -0.82,0.29 -0.85,0.19 -0.87,0.09 -0.87,-0.01 -0.87,-0.12 -0.84,-0.22 -0.81,-0.32 -0.76,-0.41 -0.71,-0.51 -0.64,-0.58 -0.57,-0.66 -0.48,-0.72 -0.39,-0.78 -0.29,-0.82 -0.19,-0.85 -0.09,-0.86 0.01,-0.87 0.11,-0.86 0.22,-0.84 0.32,-0.81 0.42,-0.77 0.50,-0.70 0.59,-0.64 0.66,-0.56 0.73,-0.48 0.73,-0.48 L 0.73,-0.48 Z"></path></g></svg>