<svg version="1.1" xmlns="http://www.w3.org/2000/svg" viewBox="0 0 419.9275701208511 271.5285300579521" width="419.9275701208511" height="271.5285300579521" class="excalidraw-svg"><!-- svg-source:excalidraw --><metadata></metadata><defs><style class="style-fonts">
      </style></defs><rect x="0" y="0" width="419.9275701208511" height="271.5285300579521" fill="#fffce8"></rect><g stroke-linecap="round"><g transform="translate(166.3234801775314 111.71852822115116) rotate(0 -78.1617400887657 74.90500091840046)"><path d="M0 0 C-60.72 54.96, -119.34 110.28, -156.32 149.81 M0 0 C-57.53 55.07, -117.52 111.68, -156.32 149.81" stroke="#f08c00" stroke-width="0.5" fill="none"></path></g><g transform="translate(166.3234801775314 111.71852822115116) rotate(0 -78.1617400887657 74.90500091840046)"><path d="M-145.4 127.32 C-150.91 135.67, -155.03 143.14, -156.32 149.81 M-145.4 127.32 C-148.98 134.78, -154.41 143.5, -156.32 149.81" stroke="#f08c00" stroke-width="0.5" fill="none"></path></g><g transform="translate(166.3234801775314 111.71852822115116) rotate(0 -78.1617400887657 74.90500091840046)"><path d="M-133.5 139.6 C-143.37 143.24, -151.95 146.11, -156.32 149.81 M-133.5 139.6 C-141.66 142.4, -151.56 146.49, -156.32 149.81" stroke="#f08c00" stroke-width="0.5" fill="none"></path></g></g><mask></mask><g stroke-linecap="round"><g transform="translate(166.97482801160442 111.06718038707811) rotate(0 121.47637105462334 -26.379587279958415)"><path d="M0 0 C57.26 -10.76, 114.94 -25.64, 242.95 -52.76 M0 0 C69.93 -16.83, 139.02 -30.99, 242.95 -52.76" stroke="#f08c00" stroke-width="0.5" fill="none"></path></g><g transform="translate(166.97482801160442 111.06718038707811) rotate(0 121.47637105462334 -26.379587279958415)"><path d="M221.71 -39.58 C225.98 -41.31, 230.59 -47.24, 242.95 -52.76 M221.71 -39.58 C228.22 -43.98, 233.8 -46.61, 242.95 -52.76" stroke="#f08c00" stroke-width="0.5" fill="none"></path></g><g transform="translate(166.97482801160442 111.06718038707811) rotate(0 121.47637105462334 -26.379587279958415)"><path d="M218.21 -56.31 C223.38 -54.04, 228.83 -55.96, 242.95 -52.76 M218.21 -56.31 C225.68 -55.96, 232.26 -53.79, 242.95 -52.76" stroke="#f08c00" stroke-width="0.5" fill="none"></path></g></g><mask></mask><g transform="translate(194.98278487674548 101.94831071005544) rotate(0 -24.751217694775818 4.885108755547861)" stroke="none"><path fill="#a5d8ff" d="M -0.50,0.63 Q -0.50,0.63 -1.67,0.17 -2.84,-0.27 -4.14,-1.08 -5.43,-1.90 -7.45,-2.96 -9.46,-4.03 -12.28,-5.01 -15.11,-5.98 -18.69,-6.75 -22.28,-7.53 -25.38,-7.66 -28.49,-7.79 -31.94,-7.30 -35.39,-6.81 -37.96,-5.38 -40.52,-3.95 -42.46,-1.97 -44.40,0.01 -45.32,1.96 -46.25,3.91 -46.08,6.16 -45.91,8.41 -45.36,10.45 -44.81,12.50 -43.96,14.01 -43.11,15.52 -42.18,16.29 -41.24,17.06 -39.88,18.25 -38.51,19.43 -38.42,19.49 -38.33,19.55 -38.27,19.63 -38.20,19.71 -38.17,19.81 -38.13,19.91 -38.13,20.02 -38.13,20.13 -38.16,20.23 -38.19,20.33 -38.25,20.41 -38.31,20.50 -38.40,20.56 -38.49,20.62 -38.59,20.65 -38.69,20.68 -38.80,20.68 -38.90,20.68 -39.00,20.64 -39.10,20.60 -39.18,20.54 -39.27,20.47 -39.32,20.38 -39.38,20.29 -39.41,20.19 -39.43,20.08 -39.42,19.98 -39.41,19.87 -39.37,19.77 -39.33,19.68 -39.26,19.60 -39.18,19.52 -39.09,19.47 -39.00,19.42 -38.89,19.40 -38.79,19.38 -38.68,19.39 -38.58,19.41 -38.48,19.45 -38.39,19.50 -38.31,19.58 -38.24,19.65 -38.19,19.75 -38.15,19.84 -38.13,19.95 -38.12,20.05 -38.14,20.16 -38.16,20.26 -38.21,20.36 -38.27,20.45 -38.35,20.52 -38.43,20.59 -38.52,20.63 -38.62,20.67 -38.73,20.68 -38.83,20.69 -38.94,20.66 -39.04,20.64 -39.04,20.64 -39.04,20.64 -41.01,19.98 -42.99,19.32 -44.41,18.27 -45.83,17.22 -46.99,15.33 -48.15,13.43 -48.80,10.99 -49.45,8.56 -49.47,5.55 -49.49,2.54 -48.22,0.04 -46.94,-2.44 -44.58,-4.75 -42.22,-7.05 -39.08,-8.66 -35.94,-10.27 -32.13,-10.77 -28.33,-11.27 -24.93,-11.08 -21.54,-10.89 -17.76,-10.04 -13.98,-9.18 -10.93,-8.07 -7.87,-6.96 -5.76,-5.79 -3.64,-4.61 -2.27,-3.66 -0.89,-2.72 -0.19,-1.67 0.50,-0.63 0.57,-0.56 0.64,-0.49 0.68,-0.40 0.73,-0.32 0.76,-0.23 0.79,-0.13 0.80,-0.04 0.80,0.05 0.78,0.15 0.76,0.24 0.72,0.33 0.68,0.42 0.62,0.50 0.56,0.57 0.48,0.63 0.41,0.69 0.32,0.73 0.23,0.77 0.13,0.78 0.04,0.80 -0.05,0.79 -0.15,0.79 -0.24,0.76 -0.33,0.73 -0.42,0.68 -0.50,0.63 -0.50,0.63 L -0.50,0.63 Z"></path></g><g transform="translate(157.2046105005087 71.33496250862223) rotate(0 -1.3026956681460717 0)" stroke="none"><path fill="#a5d8ff" d="M -0.77,0 Q -0.77,0 -0.99,-0.90 -1.21,-1.81 -1.57,-2.32 -1.94,-2.83 -2.61,-3.55 -3.28,-4.28 -4.00,-4.68 -4.72,-5.07 -5.28,-5.20 -5.84,-5.34 -6.52,-5.24 -7.20,-5.15 -7.63,-4.53 -8.06,-3.92 -8.43,-3.08 -8.80,-2.24 -8.76,-0.97 -8.72,0.28 -8.41,1.25 -8.09,2.22 -7.36,3.02 -6.63,3.82 -5.93,4.09 -5.24,4.37 -4.27,4.30 -3.31,4.24 -2.99,3.76 -2.66,3.28 -2.30,2.76 -1.94,2.24 -2.20,1.44 -2.46,0.64 -2.56,0.23 -2.65,-0.18 -2.69,-0.36 -2.73,-0.54 -2.72,-0.73 -2.71,-0.92 -2.66,-1.10 -2.61,-1.28 -2.52,-1.44 -2.43,-1.60 -2.30,-1.74 -2.17,-1.87 -2.01,-1.97 -1.85,-2.07 -1.68,-2.13 -1.50,-2.19 -1.31,-2.21 -1.13,-2.23 -0.94,-2.20 -0.76,-2.17 -0.59,-2.10 -0.41,-2.02 -0.26,-1.91 -0.11,-1.80 0.00,-1.66 0.11,-1.51 0.20,-1.35 0.28,-1.18 1.25,-0.17 2.22,0.83 3.03,1.76 3.84,2.68 4.68,3.40 5.52,4.12 6.31,4.61 7.11,5.09 7.91,4.72 8.71,4.36 8.78,4.40 8.84,4.45 8.89,4.51 8.94,4.57 8.98,4.64 9.01,4.71 9.03,4.79 9.05,4.87 9.05,4.94 9.05,5.02 9.02,5.10 9.00,5.18 8.97,5.25 8.93,5.32 8.87,5.37 8.82,5.43 8.75,5.48 8.69,5.52 8.61,5.55 8.54,5.57 8.46,5.58 8.38,5.59 8.30,5.58 8.23,5.57 8.15,5.54 8.08,5.51 7.95,5.06 7.82,4.62 7.88,4.53 7.95,4.45 8.04,4.39 8.13,4.33 8.23,4.31 8.33,4.28 8.44,4.29 8.55,4.29 8.64,4.33 8.74,4.37 8.82,4.44 8.90,4.51 8.96,4.61 9.01,4.70 9.03,4.80 9.05,4.91 9.04,5.01 9.03,5.12 8.98,5.21 8.93,5.31 8.86,5.38 8.79,5.46 8.69,5.51 8.60,5.56 8.49,5.57 8.39,5.59 8.28,5.57 8.18,5.55 8.08,5.50 7.99,5.45 7.92,5.37 7.85,5.29 7.80,5.20 7.76,5.10 7.75,4.99 7.74,4.89 7.76,4.78 7.79,4.68 7.84,4.59 7.90,4.50 7.98,4.43 8.06,4.36 8.16,4.33 8.26,4.29 8.37,4.28 8.48,4.28 8.58,4.31 8.68,4.34 8.77,4.40 8.85,4.46 8.92,4.55 8.98,4.63 9.01,4.73 9.04,4.84 9.04,4.94 9.04,5.05 8.88,4.70 8.71,4.36 8.78,4.40 8.84,4.45 8.89,4.51 8.94,4.57 8.98,4.64 9.01,4.71 9.03,4.79 9.05,4.87 9.05,4.94 9.05,5.02 9.02,5.10 9.00,5.18 8.97,5.25 8.93,5.32 8.87,5.37 8.82,5.43 8.75,5.48 8.69,5.52 8.61,5.55 8.54,5.57 8.46,5.58 8.38,5.59 8.30,5.58 8.23,5.57 8.15,5.54 8.08,5.51 6.88,6.59 5.69,7.67 4.57,7.11 3.45,6.54 2.44,5.66 1.42,4.79 0.51,3.72 -0.40,2.66 -0.87,1.84 -1.34,1.03 -1.99,0.42 -2.65,-0.18 -2.69,-0.36 -2.73,-0.54 -2.72,-0.73 -2.71,-0.92 -2.66,-1.10 -2.61,-1.28 -2.52,-1.44 -2.43,-1.60 -2.30,-1.74 -2.17,-1.87 -2.01,-1.97 -1.85,-2.07 -1.68,-2.13 -1.50,-2.19 -1.31,-2.21 -1.13,-2.23 -0.94,-2.20 -0.76,-2.17 -0.59,-2.10 -0.41,-2.02 -0.26,-1.91 -0.11,-1.80 0.00,-1.66 0.11,-1.51 0.20,-1.35 0.28,-1.18 0.34,-0.75 0.41,-0.33 0.62,0.44 0.84,1.22 0.73,2.42 0.61,3.63 0.08,4.44 -0.44,5.25 -1.34,6.14 -2.24,7.03 -3.68,7.38 -5.11,7.74 -5.89,7.51 -6.66,7.29 -7.86,6.63 -9.05,5.98 -10.12,4.61 -11.19,3.23 -11.59,1.74 -11.99,0.24 -11.86,-1.65 -11.74,-3.56 -11.03,-4.88 -10.33,-6.21 -9.10,-7.17 -7.88,-8.12 -6.43,-8.20 -4.98,-8.27 -4.05,-7.92 -3.12,-7.58 -2.11,-6.84 -1.09,-6.11 -0.32,-5.05 0.44,-4.00 0.82,-2.96 1.21,-1.92 0.99,-0.96 0.77,0 0.76,0.09 0.75,0.18 0.72,0.27 0.68,0.36 0.63,0.43 0.58,0.51 0.51,0.57 0.44,0.63 0.35,0.68 0.27,0.72 0.18,0.74 0.09,0.77 -0.00,0.77 -0.09,0.77 -0.18,0.74 -0.27,0.72 -0.35,0.68 -0.44,0.63 -0.51,0.57 -0.58,0.51 -0.63,0.43 -0.68,0.36 -0.72,0.27 -0.75,0.18 -0.76,0.09 -0.77,-0.00 -0.77,-0.00 L -0.77,0 Z"></path></g><g transform="translate(164.36943667531222 69.38091900640308) rotate(0 6.513478340730472 -2.2797174192556753)" stroke="none"><path fill="#a5d8ff" d="M 0.76,-0.12 Q 0.76,-0.12 1.26,0.93 1.77,2.00 2.02,2.51 2.27,3.03 2.56,3.58 2.86,4.14 2.88,4.34 2.90,4.54 2.88,4.74 2.85,4.95 2.78,5.13 2.71,5.32 2.59,5.49 2.48,5.65 2.32,5.79 2.17,5.92 1.99,6.01 1.81,6.11 1.62,6.15 1.42,6.20 1.22,6.20 1.02,6.20 0.82,6.15 0.62,6.10 0.45,6.01 0.27,5.91 0.12,5.78 -0.02,5.64 -0.14,5.47 -0.25,5.31 -0.32,5.12 -0.39,4.93 -0.73,4.10 -1.06,3.28 -1.59,1.96 -2.12,0.63 -2.40,-0.85 -2.67,-2.35 -2.39,-4.31 -2.11,-6.27 -1.53,-7.61 -0.94,-8.94 0.09,-9.75 1.12,-10.56 2.61,-10.48 4.10,-10.41 5.59,-9.45 7.08,-8.50 8.21,-7.53 9.33,-6.57 10.43,-5.35 11.52,-4.14 13.00,-1.54 14.47,1.04 14.52,1.14 14.57,1.23 14.58,1.34 14.60,1.44 14.58,1.55 14.56,1.65 14.51,1.74 14.46,1.84 14.38,1.91 14.30,1.98 14.21,2.03 14.11,2.07 14.01,2.08 13.90,2.09 13.80,2.07 13.69,2.04 13.60,1.99 13.51,1.93 13.44,1.85 13.38,1.77 13.34,1.67 13.30,1.57 13.29,1.46 13.29,1.36 13.32,1.25 13.35,1.15 13.41,1.07 13.47,0.98 13.56,0.91 13.64,0.85 13.74,0.82 13.84,0.79 13.95,0.79 14.06,0.79 14.16,0.82 14.26,0.86 14.34,0.92 14.42,0.99 14.48,1.08 14.54,1.17 14.57,1.27 14.60,1.37 14.59,1.48 14.58,1.58 14.54,1.68 14.50,1.78 14.43,1.86 14.36,1.94 14.27,1.99 14.18,2.05 14.07,2.07 13.97,2.09 13.87,2.08 13.76,2.07 13.66,2.02 13.57,1.97 13.49,1.90 13.42,1.83 13.42,1.83 13.42,1.83 11.17,0.00 8.92,-1.82 7.99,-2.88 7.06,-3.93 6.07,-4.79 5.08,-5.65 4.22,-6.35 3.36,-7.04 2.73,-7.21 2.09,-7.37 1.69,-6.52 1.28,-5.68 1.00,-4.27 0.73,-2.87 0.90,-1.74 1.07,-0.60 1.59,0.73 2.11,2.07 2.48,3.11 2.86,4.14 2.88,4.34 2.90,4.54 2.88,4.74 2.85,4.94 2.78,5.13 2.71,5.32 2.59,5.49 2.48,5.65 2.32,5.79 2.17,5.92 1.99,6.01 1.81,6.11 1.62,6.15 1.42,6.20 1.22,6.20 1.02,6.20 0.82,6.15 0.62,6.10 0.45,6.01 0.27,5.91 0.12,5.78 -0.02,5.64 -0.14,5.47 -0.25,5.31 -0.32,5.12 -0.39,4.93 -0.07,5.19 0.24,5.45 -0.10,4.78 -0.45,4.12 -0.73,3.30 -1.02,2.48 -0.89,1.30 -0.76,0.12 -0.76,0.03 -0.77,-0.05 -0.75,-0.15 -0.73,-0.24 -0.69,-0.32 -0.65,-0.41 -0.59,-0.48 -0.53,-0.55 -0.46,-0.61 -0.38,-0.66 -0.30,-0.70 -0.21,-0.74 -0.12,-0.75 -0.03,-0.77 0.05,-0.76 0.15,-0.75 0.24,-0.72 0.32,-0.69 0.40,-0.64 0.48,-0.60 0.55,-0.53 0.61,-0.46 0.66,-0.38 0.70,-0.30 0.73,-0.21 0.76,-0.12 0.76,-0.12 L 0.76,-0.12 Z"></path></g><g transform="translate(190.4233500382341 59.61070149530735) rotate(0 -0.9770217511095325 10.095891428132248)" stroke="none"><path d="M1.28 -0.19 C0.84 -1.14, -1.93 -3.57, -3.48 -4.44 C-5.03 -5.3, -7.28 -5.62, -8.01 -5.39 C-8.74 -5.15, -7.46 -3.84, -7.85 -3.03 C-8.24 -2.22, -9.81 -1.79, -10.34 -0.54 C-10.87 0.71, -11.42 3.29, -11.02 4.47 C-10.61 5.64, -8.73 6.56, -7.91 6.52 C-7.09 6.49, -7.54 4.79, -6.1 4.25 C-4.67 3.7, -1.54 2.31, 0.68 3.27 C2.89 4.23, 5.88 8.28, 7.2 10 C8.53 11.71, 8.66 11.13, 8.62 13.56 C8.59 16, 7.3 22.54, 7.01 24.6 C6.71 26.66, 7.45 25.64, 6.85 25.93 C6.24 26.21, 4.47 26.82, 3.36 26.31 C2.26 25.8, 1.47 25.28, 0.21 22.87 C-1.04 20.45, -3.56 15.12, -4.18 11.82 C-4.79 8.52, -3.9 4.34, -3.49 3.06" stroke="none" stroke-width="0" fill="#a5d8ff" fill-rule="evenodd"></path><path fill="#a5d8ff" d="M -0.59,0.59 Q -0.59,0.59 -1.66,-0.20 -2.74,-0.99 -3.62,-1.42 -4.51,-1.86 -5.25,-2.20 -6.00,-2.55 -6.72,-1.91 -7.44,-1.28 -7.57,-0.68 -7.70,-0.08 -7.78,0.86 -7.86,1.80 -7.92,2.59 -7.97,3.37 -7.56,2.93 -7.15,2.48 -6.44,2.27 -5.73,2.07 -4.02,2.36 -2.32,2.66 -0.59,3.61 1.12,4.57 2.84,6.17 4.56,7.77 5.92,9.64 7.28,11.51 7.92,13.61 8.57,15.70 8.65,18.01 8.74,20.32 8.26,21.95 7.78,23.58 6.21,24.49 4.64,25.40 2.87,24.68 1.10,23.97 -0.06,22.51 -1.24,21.05 -2.28,18.45 -3.32,15.86 -3.75,13.76 -4.17,11.67 -4.49,10.09 -4.80,8.52 -4.39,6.64 -3.97,4.76 -3.93,4.66 -3.89,4.56 -3.82,4.48 -3.75,4.40 -3.66,4.35 -3.57,4.29 -3.47,4.27 -3.36,4.25 -3.26,4.26 -3.15,4.27 -3.06,4.31 -2.96,4.36 -2.88,4.43 -2.81,4.50 -2.76,4.60 -2.71,4.69 -2.69,4.80 -2.67,4.90 -2.69,5.01 -2.71,5.11 -2.76,5.21 -2.81,5.30 -2.88,5.37 -2.96,5.45 -3.06,5.49 -3.15,5.53 -3.26,5.55 -3.36,5.56 -3.47,5.53 -3.57,5.51 -3.66,5.46 -3.75,5.40 -3.82,5.32 -3.89,5.24 -3.93,5.14 -3.97,5.04 -3.98,4.94 -3.98,4.83 -3.95,4.73 -3.92,4.62 -3.86,4.54 -3.80,4.45 -3.72,4.39 -3.64,4.32 -3.53,4.29 -3.43,4.25 -3.33,4.25 -3.22,4.25 -3.12,4.29 -3.02,4.32 -2.94,4.39 -2.85,4.45 -2.79,4.54 -2.73,4.63 -2.70,4.73 -2.68,4.83 -2.68,4.94 -2.69,5.04 -2.69,5.04 -2.69,5.04 -2.31,6.45 -1.94,7.87 -1.53,9.45 -1.13,11.04 -0.74,12.85 -0.34,14.67 0.52,16.87 1.40,19.08 2.09,20.09 2.79,21.10 3.89,21.63 5.00,22.16 5.24,21.25 5.47,20.34 5.49,18.44 5.51,16.53 5.10,14.89 4.70,13.24 3.59,11.59 2.48,9.95 1.04,8.55 -0.39,7.16 -1.69,6.36 -3.00,5.56 -4.43,5.40 -5.85,5.24 -6.82,5.72 -7.79,6.20 -8.49,6.23 -9.19,6.26 -10.05,5.63 -10.92,4.99 -11.15,4.10 -11.39,3.22 -11.33,2.30 -11.27,1.38 -11.08,0.08 -10.88,-1.21 -10.37,-2.37 -9.86,-3.53 -8.67,-4.46 -7.47,-5.39 -6.09,-5.33 -4.70,-5.27 -3.88,-4.75 -3.07,-4.22 -2.03,-3.48 -1.00,-2.75 -0.20,-1.67 0.59,-0.59 0.65,-0.51 0.71,-0.43 0.75,-0.34 0.79,-0.24 0.81,-0.14 0.83,-0.05 0.82,0.05 0.82,0.15 0.79,0.24 0.76,0.34 0.71,0.42 0.65,0.51 0.58,0.58 0.51,0.65 0.42,0.71 0.34,0.76 0.24,0.79 0.15,0.82 0.05,0.82 -0.05,0.83 -0.14,0.81 -0.24,0.79 -0.34,0.75 -0.43,0.71 -0.51,0.65 -0.59,0.59 -0.59,0.59 L -0.59,0.59 Z"></path></g><g transform="translate(195.6341327108185 55.05126665679603) rotate(0 8.467521842949623 -1.3026956681461002)" stroke="none"><path fill="#a5d8ff" d="M 0.80,-0.40 Q 0.80,-0.40 1.63,0.57 2.46,1.55 3.13,2.20 3.81,2.84 4.37,3.02 4.94,3.20 5.46,2.97 5.99,2.74 6.47,2.24 6.95,1.75 7.31,1.14 7.66,0.53 7.60,-0.23 7.53,-1.01 7.35,-2.30 7.16,-3.58 6.91,-4.44 6.66,-5.30 6.26,-5.81 5.87,-6.33 5.81,-6.51 5.74,-6.70 5.72,-6.90 5.70,-7.10 5.73,-7.29 5.76,-7.49 5.83,-7.67 5.91,-7.86 6.02,-8.02 6.14,-8.18 6.29,-8.31 6.44,-8.44 6.62,-8.52 6.80,-8.61 6.99,-8.66 7.19,-8.70 7.38,-8.69 7.58,-8.69 7.77,-8.64 7.97,-8.59 8.14,-8.49 8.31,-8.39 8.46,-8.26 8.60,-8.12 8.71,-7.96 8.82,-7.79 9.13,-7.33 9.44,-6.86 9.98,-5.85 10.53,-4.84 11.21,-4.01 11.89,-3.18 12.60,-2.73 13.30,-2.29 13.90,-1.80 14.50,-1.31 15.35,-2.22 16.20,-3.14 16.25,-3.23 16.30,-3.32 16.37,-3.39 16.45,-3.47 16.55,-3.51 16.64,-3.56 16.75,-3.57 16.86,-3.58 16.96,-3.55 17.06,-3.53 17.15,-3.48 17.24,-3.42 17.31,-3.34 17.38,-3.26 17.42,-3.16 17.46,-3.06 17.46,-2.95 17.47,-2.85 17.44,-2.75 17.41,-2.64 17.35,-2.56 17.29,-2.47 17.21,-2.40 17.12,-2.34 17.02,-2.31 16.92,-2.27 16.81,-2.27 16.71,-2.27 16.61,-2.31 16.51,-2.34 16.42,-2.41 16.34,-2.47 16.28,-2.56 16.22,-2.65 16.19,-2.75 16.16,-2.85 16.17,-2.96 16.18,-3.07 16.22,-3.17 16.26,-3.26 16.33,-3.34 16.39,-3.42 16.49,-3.48 16.58,-3.53 16.68,-3.56 16.79,-3.58 16.89,-3.57 17.00,-3.55 17.09,-3.51 17.19,-3.46 17.27,-3.39 17.34,-3.32 17.39,-3.22 17.44,-3.13 17.46,-3.02 17.47,-2.92 17.46,-2.81 17.44,-2.71 17.44,-2.71 17.44,-2.71 16.72,-0.78 16.01,1.14 14.94,1.49 13.87,1.84 13.17,1.57 12.47,1.31 11.94,0.91 11.41,0.51 10.33,-0.24 9.24,-1.00 8.37,-2.12 7.49,-3.24 7.02,-4.18 6.54,-5.12 6.21,-5.72 5.87,-6.33 5.81,-6.51 5.74,-6.70 5.72,-6.90 5.70,-7.10 5.73,-7.29 5.76,-7.49 5.83,-7.67 5.91,-7.86 6.02,-8.02 6.14,-8.18 6.29,-8.31 6.44,-8.44 6.62,-8.52 6.80,-8.61 6.99,-8.66 7.19,-8.70 7.38,-8.69 7.58,-8.69 7.77,-8.64 7.97,-8.59 8.14,-8.49 8.31,-8.39 8.46,-8.26 8.60,-8.12 8.71,-7.96 8.82,-7.79 8.87,-7.78 8.92,-7.77 9.33,-6.96 9.74,-6.14 10.01,-5.06 10.28,-3.97 10.44,-2.45 10.60,-0.92 10.47,0.50 10.34,1.94 9.66,3.01 8.98,4.08 7.91,4.90 6.84,5.72 5.48,5.93 4.11,6.14 2.87,5.60 1.63,5.05 0.71,3.99 -0.21,2.93 -0.50,1.66 -0.80,0.40 -0.83,0.29 -0.87,0.19 -0.88,0.08 -0.89,-0.01 -0.87,-0.12 -0.86,-0.23 -0.82,-0.33 -0.78,-0.43 -0.72,-0.51 -0.65,-0.60 -0.57,-0.67 -0.49,-0.74 -0.39,-0.79 -0.30,-0.84 -0.19,-0.86 -0.09,-0.89 0.01,-0.88 0.12,-0.88 0.22,-0.85 0.33,-0.83 0.42,-0.77 0.52,-0.72 0.60,-0.65 0.68,-0.58 0.74,-0.49 0.80,-0.40 0.80,-0.40 L 0.80,-0.40 Z"></path></g><g transform="translate(206.70704589006033 28.99735329387414) rotate(0 16.283695851826167 11.724261013314859)" stroke="none"><path fill="#a5d8ff" d="M -0.69,0.23 Q -0.69,0.23 -1.46,-1.38 -2.24,-2.99 -2.27,-3.13 -2.30,-3.27 -2.29,-3.41 -2.28,-3.56 -2.24,-3.69 -2.20,-3.83 -2.13,-3.95 -2.06,-4.08 -1.96,-4.18 -1.87,-4.28 -1.74,-4.36 -1.62,-4.43 -1.49,-4.48 -1.35,-4.52 -1.21,-4.53 -1.07,-4.55 -0.93,-4.52 -0.79,-4.50 -0.66,-4.44 -0.53,-4.39 -0.41,-4.30 -0.30,-4.22 -0.21,-4.11 -0.12,-4.00 -0.06,-3.87 -0.00,-3.74 0.66,-2.50 1.33,-1.26 2.34,1.16 3.35,3.59 4.53,6.28 5.70,8.98 7.11,11.56 8.52,14.14 9.87,16.57 11.22,19.00 12.34,20.97 13.46,22.94 14.28,24.33 15.11,25.71 15.25,26.28 15.38,26.84 15.86,26.08 16.34,25.32 16.78,24.70 17.21,24.08 17.84,23.65 18.47,23.22 19.54,23.22 20.61,23.22 21.89,23.44 23.17,23.67 24.64,23.95 26.11,24.22 27.38,24.33 28.64,24.45 29.67,23.98 30.70,23.51 31.39,22.90 32.07,22.30 31.60,21.12 31.14,19.94 30.38,19.37 29.62,18.81 28.52,18.42 27.42,18.04 26.01,18.04 24.60,18.05 23.45,18.18 22.31,18.30 21.35,18.58 20.39,18.85 18.64,19.42 16.89,19.99 16.78,20.01 16.68,20.04 16.57,20.03 16.47,20.02 16.37,19.98 16.27,19.94 16.19,19.87 16.11,19.80 16.06,19.71 16.01,19.62 15.99,19.51 15.97,19.41 15.98,19.30 15.99,19.20 16.04,19.10 16.09,19.01 16.16,18.93 16.24,18.85 16.33,18.81 16.42,18.76 16.53,18.74 16.64,18.73 16.74,18.75 16.84,18.77 16.94,18.82 17.03,18.87 17.10,18.95 17.17,19.03 17.22,19.12 17.26,19.22 17.27,19.33 17.28,19.43 17.25,19.54 17.23,19.64 17.17,19.73 17.11,19.82 17.03,19.89 16.95,19.95 16.85,19.99 16.75,20.03 16.64,20.03 16.54,20.04 16.44,20.01 16.33,19.98 16.25,19.91 16.16,19.85 16.10,19.77 16.04,19.68 16.00,19.58 15.97,19.48 15.97,19.37 15.98,19.27 16.01,19.17 16.05,19.07 16.11,18.98 16.18,18.90 16.27,18.84 16.36,18.78 16.36,18.78 16.36,18.78 17.85,17.54 19.35,16.30 20.60,15.68 21.86,15.06 23.27,14.85 24.69,14.64 26.66,14.74 28.64,14.85 30.22,15.56 31.80,16.28 32.94,17.42 34.08,18.56 34.57,20.12 35.06,21.68 34.62,22.98 34.18,24.29 32.99,25.24 31.79,26.19 30.15,26.75 28.52,27.30 27.05,27.17 25.57,27.04 24.12,26.75 22.66,26.46 21.03,26.09 19.40,25.73 19.05,26.20 18.71,26.67 17.96,27.77 17.21,28.86 16.10,29.16 14.99,29.46 13.65,28.45 12.30,27.45 11.41,26.04 10.52,24.63 9.36,22.65 8.21,20.68 6.84,18.23 5.48,15.78 4.02,13.05 2.57,10.32 1.41,7.58 0.26,4.83 -0.68,2.39 -1.62,-0.05 -1.93,-1.52 -2.24,-2.99 -2.27,-3.13 -2.30,-3.27 -2.29,-3.41 -2.28,-3.56 -2.24,-3.69 -2.21,-3.83 -2.13,-3.95 -2.06,-4.08 -1.96,-4.18 -1.87,-4.28 -1.74,-4.36 -1.62,-4.43 -1.49,-4.48 -1.35,-4.52 -1.21,-4.53 -1.07,-4.55 -0.93,-4.52 -0.79,-4.50 -0.66,-4.44 -0.53,-4.39 -0.41,-4.30 -0.30,-4.22 -0.21,-4.11 -0.12,-4.00 -0.06,-3.87 -0.00,-3.74 0.34,-1.98 0.69,-0.23 0.71,-0.14 0.73,-0.05 0.72,0.02 0.72,0.11 0.69,0.20 0.67,0.28 0.62,0.36 0.58,0.44 0.52,0.50 0.46,0.56 0.38,0.61 0.31,0.66 0.22,0.68 0.14,0.71 0.05,0.72 -0.02,0.73 -0.11,0.71 -0.20,0.70 -0.28,0.66 -0.36,0.63 -0.43,0.58 -0.50,0.52 -0.56,0.45 -0.61,0.39 -0.65,0.31 -0.69,0.23 -0.69,0.23 L -0.69,0.23 Z"></path></g><g transform="translate(264.67700312256153 43.327005643481186) rotate(0 11.072913179241823 -13.352630598497484)" stroke="none"><path fill="#a5d8ff" d="M -0.75,-0.12 Q -0.75,-0.12 -0.92,-1.31 -1.09,-2.49 -0.47,-4.43 0.14,-6.36 0.72,-8.92 1.30,-11.49 1.52,-13.99 1.74,-16.50 1.64,-18.81 1.54,-21.11 1.30,-23.39 1.06,-25.67 0.78,-26.92 0.50,-28.17 0.36,-28.39 0.22,-28.61 0.20,-28.84 0.18,-29.08 0.22,-29.31 0.26,-29.54 0.35,-29.76 0.44,-29.97 0.58,-30.16 0.72,-30.35 0.90,-30.50 1.08,-30.64 1.30,-30.74 1.51,-30.84 1.74,-30.89 1.97,-30.94 2.20,-30.93 2.44,-30.92 2.66,-30.85 2.89,-30.79 3.09,-30.67 3.29,-30.55 3.46,-30.39 3.63,-30.23 3.76,-30.03 3.88,-29.83 3.96,-29.61 4.03,-29.39 4.00,-28.46 3.97,-27.54 4.32,-25.41 4.67,-23.29 5.37,-20.51 6.07,-17.74 6.92,-14.88 7.78,-12.02 8.52,-9.67 9.26,-7.33 9.78,-5.13 10.30,-2.93 10.30,-0.92 10.29,1.09 9.34,2.50 8.39,3.91 7.18,4.53 5.98,5.16 5.22,5.36 4.46,5.57 4.12,5.45 3.78,5.33 3.54,5.37 3.30,5.41 3.07,5.39 2.83,5.37 2.60,5.29 2.37,5.22 2.17,5.09 1.97,4.96 1.80,4.79 1.64,4.62 1.52,4.41 1.40,4.20 1.34,3.97 1.27,3.74 1.26,3.50 1.25,3.26 1.30,3.03 1.35,2.79 1.45,2.58 1.55,2.36 1.71,2.18 1.86,1.99 2.05,1.85 2.24,1.71 2.46,1.61 2.68,1.52 4.41,0.43 6.14,-0.65 8.09,-1.56 10.04,-2.46 12.25,-3.23 14.45,-4.00 16.15,-4.47 17.85,-4.94 19.05,-5.34 20.25,-5.75 20.61,-6.51 20.97,-7.28 20.96,-7.38 20.94,-7.49 20.96,-7.59 20.98,-7.70 21.03,-7.79 21.08,-7.88 21.16,-7.95 21.24,-8.03 21.33,-8.07 21.43,-8.11 21.54,-8.12 21.64,-8.13 21.75,-8.11 21.85,-8.08 21.94,-8.03 22.03,-7.97 22.10,-7.89 22.16,-7.81 22.20,-7.71 22.24,-7.61 22.24,-7.50 22.25,-7.39 22.22,-7.29 22.19,-7.19 22.13,-7.10 22.07,-7.02 21.98,-6.95 21.89,-6.89 21.79,-6.86 21.69,-6.83 21.59,-6.83 21.48,-6.83 21.38,-6.87 21.28,-6.90 21.20,-6.97 21.11,-7.03 21.05,-7.12 21.00,-7.21 20.97,-7.31 20.94,-7.42 20.95,-7.52 20.96,-7.63 21.00,-7.73 21.04,-7.82 21.11,-7.90 21.18,-7.98 21.27,-8.04 21.36,-8.09 21.47,-8.11 21.57,-8.13 21.68,-8.12 21.78,-8.11 21.88,-8.06 21.97,-8.01 22.05,-7.94 22.13,-7.86 22.17,-7.77 22.22,-7.68 22.22,-7.68 22.22,-7.68 21.91,-5.30 21.60,-2.92 20.28,-2.15 18.95,-1.38 17.36,-0.84 15.76,-0.29 13.74,0.42 11.72,1.15 9.88,2.00 8.05,2.85 6.80,3.51 5.56,4.17 4.67,4.75 3.78,5.33 3.54,5.37 3.30,5.41 3.07,5.39 2.83,5.37 2.60,5.29 2.37,5.22 2.17,5.09 1.97,4.96 1.80,4.79 1.64,4.62 1.52,4.41 1.40,4.20 1.34,3.97 1.27,3.74 1.26,3.50 1.25,3.26 1.30,3.03 1.35,2.80 1.45,2.58 1.55,2.36 1.71,2.18 1.86,1.99 2.05,1.85 2.24,1.71 2.46,1.61 2.68,1.52 3.55,1.53 4.42,1.53 4.96,1.40 5.51,1.27 6.03,0.90 6.55,0.53 6.50,-0.75 6.44,-2.04 5.96,-4.09 5.48,-6.14 4.73,-8.52 3.99,-10.89 3.11,-13.84 2.24,-16.79 1.51,-19.74 0.79,-22.70 0.50,-25.66 0.22,-28.61 0.20,-28.84 0.18,-29.08 0.22,-29.31 0.26,-29.54 0.35,-29.76 0.44,-29.97 0.58,-30.16 0.72,-30.35 0.90,-30.50 1.08,-30.64 1.30,-30.74 1.51,-30.84 1.74,-30.89 1.97,-30.94 2.20,-30.93 2.44,-30.92 2.66,-30.85 2.89,-30.79 3.09,-30.67 3.29,-30.55 3.46,-30.39 3.63,-30.23 3.76,-30.03 3.88,-29.83 3.96,-29.61 4.03,-29.39 4.13,-29.19 4.23,-29.00 4.51,-27.51 4.79,-26.02 4.98,-23.62 5.17,-21.22 5.21,-18.68 5.25,-16.14 4.92,-13.41 4.59,-10.68 3.88,-7.98 3.17,-5.28 2.51,-3.63 1.84,-1.99 1.30,-0.93 0.75,0.12 0.73,0.21 0.70,0.30 0.65,0.38 0.61,0.46 0.54,0.52 0.48,0.59 0.40,0.64 0.32,0.69 0.23,0.72 0.15,0.75 0.05,0.75 -0.03,0.76 -0.12,0.75 -0.21,0.73 -0.30,0.69 -0.38,0.66 -0.46,0.60 -0.53,0.55 -0.59,0.47 -0.65,0.40 -0.68,0.32 -0.72,0.23 -0.74,0.14 -0.76,0.05 -0.76,-0.03 -0.75,-0.12 -0.75,-0.12 L -0.75,-0.12 Z"></path></g><g transform="translate(144.82900165312083 137.77244158407308) rotate(0 19.540435022191417 -15.306674100716648)" stroke="none"><path fill="#868e96" d="M 0.21,-0.72 Q 0.21,-0.72 2.21,-0.56 4.20,-0.40 6.77,-0.06 9.34,0.28 12.53,0.04 15.73,-0.18 19.02,-1.19 22.31,-2.19 25.26,-4.04 28.20,-5.88 30.49,-8.25 32.78,-10.62 34.06,-12.82 35.35,-15.02 35.85,-17.10 36.35,-19.18 36.39,-21.27 36.42,-23.36 36.27,-25.17 36.11,-26.97 35.90,-28.04 35.69,-29.12 36.38,-31.17 37.06,-33.23 37.12,-33.32 37.18,-33.41 37.26,-33.47 37.34,-33.54 37.44,-33.58 37.54,-33.61 37.65,-33.62 37.76,-33.62 37.86,-33.59 37.96,-33.56 38.04,-33.49 38.13,-33.43 38.19,-33.35 38.26,-33.26 38.29,-33.16 38.32,-33.06 38.32,-32.95 38.31,-32.84 38.28,-32.75 38.24,-32.65 38.17,-32.56 38.11,-32.48 38.02,-32.42 37.93,-32.36 37.83,-32.34 37.72,-32.31 37.62,-32.32 37.51,-32.33 37.41,-32.37 37.31,-32.41 37.24,-32.48 37.16,-32.56 37.10,-32.65 37.05,-32.74 37.03,-32.84 37.01,-32.95 37.03,-33.05 37.04,-33.16 37.09,-33.25 37.13,-33.35 37.21,-33.43 37.28,-33.50 37.38,-33.55 37.47,-33.60 37.58,-33.61 37.68,-33.62 37.79,-33.60 37.89,-33.58 37.99,-33.53 38.08,-33.48 38.15,-33.40 38.22,-33.32 38.26,-33.22 38.30,-33.13 38.31,-33.02 38.32,-32.92 38.30,-32.81 38.27,-32.71 38.27,-32.71 38.27,-32.71 38.79,-31.30 39.31,-29.89 39.60,-28.59 39.90,-27.29 40.06,-25.27 40.22,-23.25 40.11,-20.75 40.01,-18.24 39.30,-15.68 38.59,-13.12 37.02,-10.57 35.46,-8.01 32.80,-5.37 30.15,-2.73 26.76,-0.71 23.36,1.30 19.66,2.33 15.95,3.36 12.38,3.51 8.82,3.66 6.05,3.16 3.28,2.65 1.53,1.69 -0.21,0.72 -0.30,0.69 -0.38,0.65 -0.45,0.59 -0.53,0.54 -0.58,0.47 -0.64,0.39 -0.68,0.31 -0.72,0.23 -0.74,0.14 -0.75,0.05 -0.75,-0.03 -0.74,-0.12 -0.72,-0.21 -0.69,-0.30 -0.64,-0.38 -0.60,-0.46 -0.53,-0.52 -0.47,-0.59 -0.39,-0.64 -0.31,-0.68 -0.23,-0.71 -0.14,-0.74 -0.05,-0.75 0.03,-0.75 0.12,-0.74 0.21,-0.72 0.21,-0.72 L 0.21,-0.72 Z"></path></g><g transform="translate(196.9368283789646 164.477702781068) rotate(0 -3.2567391703652504 5.5364565896209115)" stroke="none"><path fill="#868e96" d="M -0.62,0.47 Q -0.62,0.47 -1.36,-0.14 -2.09,-0.76 -2.84,-1.30 -3.59,-1.84 -4.49,-2.15 -5.39,-2.46 -6.40,-2.22 -7.41,-1.98 -8.37,-1.10 -9.34,-0.23 -10.04,1.43 -10.75,3.10 -11.08,4.48 -11.42,5.85 -11.02,7.67 -10.61,9.49 -9.92,10.82 -9.22,12.14 -8.10,12.39 -6.98,12.64 -6.19,12.52 -5.40,12.40 -4.70,11.60 -3.99,10.81 -3.73,9.93 -3.47,9.06 -3.72,7.77 -3.97,6.48 -4.25,5.32 -4.54,4.15 -4.70,3.82 -4.87,3.49 -4.88,3.27 -4.90,3.05 -4.87,2.83 -4.84,2.62 -4.75,2.41 -4.67,2.21 -4.54,2.03 -4.41,1.86 -4.24,1.72 -4.07,1.58 -3.87,1.48 -3.67,1.39 -3.46,1.34 -3.24,1.30 -3.02,1.31 -2.81,1.31 -2.59,1.37 -2.38,1.43 -2.19,1.54 -2.00,1.65 -1.84,1.80 -1.68,1.95 -1.57,2.13 -1.45,2.32 -1.38,2.53 -1.31,2.73 -0.27,3.39 0.76,4.05 1.83,4.61 2.91,5.17 3.91,5.68 4.91,6.19 5.84,5.84 6.77,5.48 6.84,5.52 6.90,5.56 6.96,5.62 7.02,5.68 7.06,5.74 7.10,5.81 7.13,5.88 7.15,5.96 7.16,6.04 7.16,6.12 7.15,6.20 7.13,6.27 7.10,6.35 7.07,6.42 7.02,6.48 6.98,6.55 6.91,6.59 6.85,6.64 6.78,6.68 6.71,6.71 6.63,6.73 6.55,6.74 6.47,6.74 6.39,6.73 6.32,6.71 6.24,6.69 6.06,6.28 5.89,5.87 5.94,5.78 5.99,5.68 6.07,5.61 6.14,5.54 6.24,5.49 6.34,5.45 6.44,5.44 6.55,5.43 6.65,5.46 6.76,5.48 6.85,5.54 6.94,5.59 7.00,5.67 7.07,5.75 7.11,5.85 7.15,5.95 7.15,6.06 7.16,6.17 7.13,6.27 7.10,6.37 7.04,6.46 6.98,6.54 6.89,6.61 6.81,6.67 6.70,6.70 6.60,6.74 6.50,6.73 6.39,6.73 6.29,6.70 6.19,6.66 6.11,6.60 6.02,6.53 5.96,6.44 5.91,6.35 5.88,6.25 5.85,6.15 5.86,6.04 5.87,5.94 5.91,5.84 5.95,5.74 6.02,5.66 6.09,5.58 6.18,5.53 6.27,5.47 6.37,5.45 6.48,5.43 6.58,5.44 6.69,5.46 6.79,5.50 6.88,5.55 6.96,5.62 7.03,5.70 7.08,5.79 7.13,5.88 7.15,5.99 7.16,6.09 6.97,5.79 6.77,5.48 6.84,5.52 6.90,5.56 6.96,5.62 7.02,5.68 7.06,5.74 7.10,5.81 7.13,5.88 7.15,5.96 7.16,6.04 7.16,6.12 7.15,6.20 7.13,6.27 7.10,6.35 7.07,6.42 7.02,6.48 6.98,6.54 6.91,6.59 6.85,6.64 6.78,6.68 6.71,6.71 6.63,6.73 6.55,6.74 6.47,6.74 6.39,6.73 6.32,6.71 6.24,6.69 4.90,8.00 3.55,9.32 2.35,8.87 1.15,8.41 -0.30,7.60 -1.76,6.78 -2.49,6.08 -3.22,5.38 -4.04,4.43 -4.87,3.49 -4.88,3.27 -4.90,3.05 -4.87,2.83 -4.84,2.62 -4.75,2.41 -4.67,2.21 -4.54,2.03 -4.41,1.86 -4.24,1.72 -4.07,1.58 -3.87,1.48 -3.67,1.39 -3.46,1.34 -3.24,1.30 -3.03,1.31 -2.81,1.31 -2.59,1.37 -2.38,1.43 -2.19,1.54 -2.00,1.65 -1.84,1.80 -1.68,1.95 -1.57,2.13 -1.45,2.32 -1.38,2.53 -1.31,2.73 -1.24,3.09 -1.18,3.44 -0.94,4.78 -0.70,6.12 -0.59,8.08 -0.48,10.04 -1.13,11.51 -1.78,12.99 -3.22,14.20 -4.66,15.40 -6.28,15.59 -7.90,15.77 -9.81,14.97 -11.71,14.18 -12.84,12.17 -13.98,10.15 -14.36,7.64 -14.74,5.13 -14.27,3.38 -13.80,1.62 -12.61,-0.56 -11.43,-2.74 -9.71,-3.88 -7.99,-5.03 -6.20,-5.13 -4.41,-5.22 -3.13,-4.57 -1.85,-3.92 -1.00,-3.07 -0.15,-2.23 0.23,-1.35 0.62,-0.47 0.67,-0.38 0.72,-0.30 0.74,-0.21 0.77,-0.12 0.77,-0.03 0.78,0.06 0.76,0.15 0.74,0.24 0.70,0.33 0.66,0.42 0.60,0.49 0.54,0.56 0.46,0.62 0.39,0.68 0.30,0.71 0.21,0.75 0.12,0.76 0.03,0.78 -0.06,0.77 -0.15,0.76 -0.24,0.73 -0.33,0.70 -0.41,0.65 -0.49,0.60 -0.56,0.53 -0.62,0.47 -0.62,0.47 L -0.62,0.47 Z"></path></g><g transform="translate(190.4233500382341 144.9372677588766) rotate(0 -1.628369585182611 4.233760921474783)" stroke="none"><path fill="#868e96" d="M 0.62,0.49 Q 0.62,0.49 0.20,1.68 -0.21,2.88 -0.58,3.86 -0.95,4.84 -1.11,5.55 -1.28,6.26 -1.32,7.16 -1.37,8.06 -1.39,8.14 -1.42,8.21 -1.47,8.28 -1.51,8.34 -1.57,8.39 -1.63,8.45 -1.70,8.48 -1.77,8.52 -1.85,8.54 -1.93,8.56 -2.01,8.56 -2.08,8.56 -2.16,8.54 -2.24,8.52 -2.31,8.48 -2.38,8.44 -2.44,8.39 -2.50,8.34 -2.54,8.27 -2.59,8.21 -2.61,8.13 -2.64,8.06 -2.65,7.98 -2.66,7.90 -2.65,7.82 -2.64,7.75 -2.54,7.58 -2.44,7.41 -2.35,7.36 -2.26,7.30 -2.15,7.27 -2.05,7.25 -1.94,7.26 -1.84,7.27 -1.74,7.31 -1.64,7.36 -1.57,7.43 -1.49,7.50 -1.44,7.59 -1.38,7.69 -1.37,7.79 -1.35,7.89 -1.36,8.00 -1.38,8.11 -1.43,8.20 -1.47,8.29 -1.55,8.37 -1.63,8.44 -1.72,8.49 -1.82,8.54 -1.92,8.55 -2.03,8.56 -2.13,8.54 -2.24,8.52 -2.33,8.47 -2.42,8.41 -2.49,8.33 -2.56,8.25 -2.60,8.15 -2.64,8.06 -2.65,7.95 -2.66,7.84 -2.63,7.74 -2.60,7.64 -2.55,7.55 -2.49,7.46 -2.40,7.40 -2.32,7.33 -2.22,7.29 -2.12,7.26 -2.01,7.26 -1.91,7.26 -1.81,7.29 -1.71,7.32 -1.62,7.38 -1.53,7.45 -1.47,7.53 -1.41,7.62 -1.38,7.72 -1.35,7.82 -1.36,7.93 -1.36,8.04 -1.40,8.14 -1.44,8.24 -1.40,8.15 -1.37,8.06 -1.39,8.14 -1.42,8.21 -1.47,8.28 -1.51,8.34 -1.57,8.39 -1.63,8.45 -1.70,8.48 -1.77,8.52 -1.85,8.54 -1.93,8.56 -2.01,8.56 -2.08,8.56 -2.16,8.54 -2.24,8.52 -2.31,8.48 -2.38,8.44 -2.44,8.39 -2.50,8.34 -2.54,8.27 -2.59,8.21 -2.61,8.13 -2.64,8.06 -2.65,7.98 -2.66,7.90 -2.65,7.83 -2.64,7.75 -3.62,6.63 -4.59,5.51 -4.32,4.49 -4.06,3.48 -3.42,2.17 -2.78,0.86 -1.70,0.18 -0.62,-0.49 -0.55,-0.56 -0.48,-0.63 -0.40,-0.67 -0.31,-0.72 -0.22,-0.75 -0.13,-0.78 -0.03,-0.78 0.05,-0.79 0.15,-0.77 0.24,-0.75 0.33,-0.71 0.41,-0.67 0.49,-0.61 0.56,-0.55 0.62,-0.48 0.68,-0.40 0.72,-0.31 0.76,-0.22 0.77,-0.13 0.79,-0.03 0.78,0.05 0.77,0.15 0.75,0.24 0.72,0.33 0.67,0.41 0.62,0.49 0.62,0.49 L 0.62,0.49 Z"></path></g><g transform="translate(206.05569805598725 157.96422444033755) rotate(0 9.770217511095723 3.256739170365222)" stroke="none"><path fill="#868e96" d="M 0.73,-0.14 Q 0.73,-0.14 1.22,0.72 1.71,1.60 2.43,3.16 3.14,4.73 3.79,5.92 4.44,7.11 4.96,8.25 5.48,9.39 5.81,9.85 6.14,10.31 6.09,10.27 6.05,10.23 6.17,10.43 6.29,10.62 6.37,10.83 6.44,11.05 6.45,11.28 6.47,11.50 6.44,11.73 6.40,11.95 6.31,12.16 6.22,12.37 6.08,12.55 5.95,12.73 5.77,12.87 5.59,13.02 5.39,13.11 5.18,13.21 4.96,13.26 4.74,13.30 4.51,13.29 4.29,13.28 4.07,13.22 3.85,13.16 3.65,13.04 3.46,12.93 3.29,12.77 3.13,12.61 2.73,12.14 2.33,11.67 1.53,10.44 0.74,9.21 0.13,7.37 -0.47,5.53 -0.53,3.25 -0.58,0.97 0.05,-0.97 0.69,-2.93 2.32,-4.24 3.95,-5.55 5.82,-5.26 7.69,-4.97 9.34,-3.70 10.98,-2.44 12.20,-1.13 13.41,0.16 14.14,1.13 14.87,2.09 16.04,3.59 17.21,5.09 18.22,6.76 19.24,8.43 19.34,8.46 19.45,8.48 19.54,8.54 19.63,8.60 19.69,8.68 19.76,8.76 19.80,8.86 19.84,8.96 19.84,9.07 19.84,9.17 19.81,9.27 19.78,9.38 19.72,9.46 19.66,9.55 19.57,9.61 19.49,9.67 19.38,9.71 19.28,9.74 19.18,9.74 19.07,9.73 18.97,9.70 18.87,9.66 18.79,9.60 18.70,9.53 18.65,9.44 18.59,9.35 18.56,9.25 18.54,9.14 18.55,9.04 18.55,8.93 18.59,8.84 18.64,8.74 18.71,8.66 18.78,8.58 18.87,8.53 18.96,8.47 19.07,8.45 19.17,8.43 19.28,8.45 19.38,8.46 19.48,8.51 19.57,8.55 19.65,8.63 19.72,8.70 19.77,8.80 19.82,8.89 19.83,9.00 19.85,9.10 19.83,9.21 19.81,9.31 19.76,9.40 19.71,9.50 19.63,9.57 19.55,9.64 19.45,9.68 19.35,9.72 19.25,9.73 19.14,9.74 19.14,9.74 19.14,9.74 16.75,8.57 14.35,7.40 13.08,5.89 11.81,4.38 11.21,3.57 10.61,2.75 9.57,1.62 8.54,0.49 7.54,-0.43 6.53,-1.36 5.69,-1.83 4.85,-2.30 4.52,-1.88 4.18,-1.46 3.72,-0.22 3.26,1.00 3.25,2.72 3.24,4.43 3.62,5.80 4.00,7.17 4.66,8.22 5.31,9.27 5.68,9.75 6.05,10.23 6.17,10.43 6.29,10.62 6.37,10.83 6.44,11.05 6.45,11.28 6.47,11.50 6.44,11.73 6.40,11.95 6.31,12.16 6.22,12.37 6.08,12.55 5.95,12.73 5.77,12.87 5.59,13.02 5.39,13.11 5.18,13.21 4.96,13.26 4.74,13.30 4.51,13.29 4.29,13.28 4.07,13.22 3.85,13.16 3.65,13.04 3.46,12.93 3.29,12.77 3.13,12.61 3.13,12.18 3.14,11.74 2.70,11.26 2.26,10.77 1.86,9.69 1.45,8.61 0.81,7.23 0.16,5.85 -0.39,3.99 -0.96,2.14 -0.85,1.14 -0.73,0.14 -0.74,0.05 -0.74,-0.03 -0.73,-0.12 -0.71,-0.21 -0.68,-0.29 -0.64,-0.37 -0.59,-0.44 -0.53,-0.52 -0.46,-0.57 -0.39,-0.63 -0.31,-0.67 -0.23,-0.71 -0.14,-0.72 -0.05,-0.74 0.03,-0.74 0.12,-0.73 0.20,-0.71 0.29,-0.68 0.37,-0.64 0.45,-0.59 0.51,-0.53 0.58,-0.47 0.62,-0.39 0.67,-0.31 0.70,-0.23 0.73,-0.14 0.73,-0.14 L 0.73,-0.14 Z"></path></g><g transform="translate(232.76095925298222 158.61557227441057) rotate(0 0.9770217511095609 8.467521842949623)" stroke="none"><path d="M-1.62 1.23 C-2.04 0.85, -1.37 -2.15, -1.44 -3.61 C-1.5 -5.06, -1.74 -6.74, -2 -7.52 C-2.26 -8.29, -2.36 -8.12, -3 -8.26 C-3.63 -8.39, -4.97 -8.31, -5.8 -8.34 C-6.63 -8.37, -7.14 -9.59, -7.97 -8.42 C-8.81 -7.26, -10.15 -3.38, -10.82 -1.36 C-11.49 0.66, -12.61 2.67, -12 3.71 C-11.38 4.75, -9.24 4.89, -7.14 4.87 C-5.04 4.86, -2.14 2.97, 0.58 3.64 C3.3 4.3, 6.78 6.04, 9.17 8.86 C11.56 11.68, 14.46 17.47, 14.92 20.56 C15.38 23.65, 13.18 26.89, 11.91 27.38 C10.64 27.86, 8.5 25.16, 7.31 23.47 C6.11 21.77, 5.75 20.71, 4.72 17.19 C3.69 13.68, 1.54 5.02, 1.12 2.4" stroke="none" stroke-width="0" fill="#a5d8ff" fill-rule="evenodd"></path><path fill="#868e96" d="M -0.78,0 Q -0.78,0 -1.11,-1.49 -1.44,-2.98 -1.87,-4.14 -2.31,-5.31 -2.76,-5.82 -3.22,-6.33 -3.65,-6.63 -4.09,-6.94 -4.63,-6.97 -5.17,-6.99 -5.66,-6.59 -6.14,-6.18 -6.83,-5.27 -7.51,-4.35 -8.16,-2.96 -8.81,-1.56 -8.90,-0.36 -8.99,0.83 -8.20,1.23 -7.42,1.63 -6.68,1.39 -5.94,1.16 -4.38,1.07 -2.82,0.98 -0.40,1.75 2.01,2.51 4.41,4.04 6.81,5.56 8.49,7.45 10.17,9.34 11.49,11.72 12.81,14.10 13.59,16.34 14.37,18.59 14.16,20.80 13.95,23.01 12.37,24.65 10.80,26.29 9.65,25.97 8.50,25.66 7.21,24.33 5.93,22.99 5.08,21.40 4.24,19.81 3.81,17.47 3.37,15.13 2.94,12.71 2.51,10.28 2.05,7.18 1.58,4.08 1.58,3.97 1.57,3.86 1.60,3.76 1.63,3.66 1.69,3.57 1.76,3.49 1.84,3.42 1.93,3.36 2.03,3.33 2.13,3.29 2.23,3.30 2.34,3.30 2.44,3.33 2.54,3.37 2.62,3.43 2.71,3.50 2.77,3.59 2.83,3.68 2.85,3.78 2.88,3.88 2.87,3.99 2.87,4.09 2.82,4.19 2.78,4.29 2.71,4.37 2.64,4.45 2.55,4.50 2.46,4.56 2.36,4.58 2.25,4.60 2.15,4.59 2.04,4.57 1.95,4.53 1.85,4.48 1.77,4.41 1.70,4.33 1.65,4.24 1.60,4.14 1.59,4.04 1.57,3.93 1.59,3.83 1.61,3.73 1.66,3.63 1.71,3.54 1.79,3.47 1.86,3.40 1.96,3.35 2.06,3.31 2.16,3.30 2.27,3.29 2.37,3.31 2.48,3.34 2.57,3.39 2.66,3.45 2.73,3.53 2.79,3.61 2.83,3.71 2.87,3.81 2.87,3.81 2.87,3.81 3.66,6.80 4.45,9.80 5.21,12.14 5.97,14.49 6.58,16.33 7.20,18.18 7.92,19.38 8.65,20.58 9.30,21.41 9.95,22.24 10.71,22.60 11.48,22.97 10.88,22.69 10.27,22.41 10.59,20.99 10.91,19.57 10.30,17.67 9.69,15.77 8.61,13.68 7.54,11.59 6.22,10.02 4.90,8.45 2.89,7.13 0.87,5.80 -0.91,5.15 -2.69,4.49 -3.99,4.59 -5.29,4.69 -6.86,4.88 -8.44,5.08 -9.86,4.40 -11.27,3.73 -11.99,2.31 -12.71,0.88 -12.50,-1.14 -12.28,-3.17 -11.35,-5.00 -10.42,-6.82 -9.14,-8.17 -7.86,-9.52 -6.37,-10.05 -4.87,-10.58 -3.40,-10.17 -1.94,-9.76 -1.17,-9.03 -0.41,-8.30 0.20,-7.26 0.81,-6.22 1.12,-4.61 1.44,-3.00 1.11,-1.50 0.78,0 0.77,0.09 0.76,0.18 0.73,0.27 0.69,0.36 0.64,0.44 0.59,0.52 0.51,0.58 0.44,0.64 0.36,0.69 0.27,0.73 0.18,0.76 0.09,0.78 -0.00,0.78 -0.09,0.78 -0.18,0.76 -0.27,0.73 -0.36,0.69 -0.44,0.64 -0.51,0.58 -0.59,0.52 -0.64,0.44 -0.69,0.36 -0.73,0.27 -0.76,0.18 -0.77,0.09 -0.78,-0.00 -0.78,-0.00 L -0.78,0 Z"></path></g><g transform="translate(236.01769842334744 150.79939826553402) rotate(0 22.47150027552013 -10.747239262205298)" stroke="none"><path fill="#868e96" d="M 0.68,-0.39 Q 0.68,-0.39 1.77,0.72 2.86,1.83 3.88,3.00 4.91,4.18 6.15,5.15 7.39,6.12 8.38,6.26 9.37,6.40 10.08,6.21 10.79,6.03 11.27,5.23 11.75,4.43 11.97,3.52 12.19,2.60 12.11,1.22 12.02,-0.15 11.81,-1.29 11.59,-2.42 11.48,-3.39 11.37,-4.35 11.30,-4.54 11.23,-4.74 11.24,-4.96 11.24,-5.18 11.30,-5.40 11.36,-5.62 11.47,-5.81 11.58,-6.00 11.73,-6.17 11.89,-6.33 12.07,-6.45 12.26,-6.57 12.47,-6.65 12.68,-6.72 12.90,-6.74 13.13,-6.76 13.35,-6.73 13.57,-6.70 13.77,-6.61 13.98,-6.53 14.16,-6.40 14.34,-6.26 14.48,-6.09 14.63,-5.92 14.73,-5.72 14.82,-5.52 14.87,-5.30 14.92,-5.09 15.23,-4.52 15.54,-3.95 16.18,-2.98 16.82,-2.01 17.65,-0.82 18.48,0.36 18.86,0.85 19.24,1.34 20.10,0.69 20.96,0.04 21.21,-0.88 21.45,-1.81 21.64,-3.68 21.82,-5.55 21.34,-8.32 20.86,-11.08 20.06,-14.33 19.26,-17.58 18.34,-20.22 17.42,-22.85 16.29,-24.78 15.16,-26.70 14.45,-27.39 13.75,-28.08 13.67,-28.28 13.59,-28.48 13.56,-28.69 13.54,-28.90 13.56,-29.11 13.58,-29.33 13.66,-29.53 13.73,-29.73 13.85,-29.90 13.97,-30.08 14.13,-30.23 14.29,-30.37 14.47,-30.47 14.66,-30.57 14.87,-30.63 15.08,-30.68 15.29,-30.68 15.50,-30.68 15.71,-30.64 15.92,-30.59 16.11,-30.49 16.30,-30.39 16.46,-30.25 16.62,-30.11 16.75,-29.94 16.87,-29.76 16.67,-28.43 16.46,-27.10 16.98,-25.42 17.49,-23.74 18.41,-21.28 19.32,-18.82 20.58,-16.54 21.85,-14.26 22.93,-12.30 24.02,-10.33 25.10,-9.05 26.18,-7.76 26.70,-7.26 27.23,-6.75 27.98,-6.83 28.74,-6.90 29.67,-6.63 30.61,-6.35 31.44,-5.85 32.27,-5.35 33.52,-4.61 34.77,-3.87 36.18,-3.65 37.58,-3.43 38.82,-3.48 40.06,-3.54 40.89,-4.01 41.72,-4.48 42.10,-5.19 42.48,-5.90 42.45,-6.68 42.42,-7.47 41.94,-8.54 41.46,-9.62 40.48,-10.69 39.50,-11.76 38.05,-12.29 36.60,-12.82 34.92,-12.53 33.24,-12.23 31.63,-11.63 30.02,-11.04 28.88,-10.22 27.73,-9.40 27.33,-8.82 26.92,-8.23 27.10,-7.44 27.28,-6.66 29.17,-5.06 31.05,-3.46 31.14,-3.40 31.22,-3.33 31.28,-3.24 31.34,-3.15 31.36,-3.05 31.39,-2.95 31.38,-2.84 31.38,-2.74 31.34,-2.64 31.30,-2.54 31.23,-2.46 31.16,-2.38 31.07,-2.33 30.97,-2.27 30.87,-2.25 30.77,-2.23 30.66,-2.24 30.56,-2.25 30.46,-2.30 30.36,-2.34 30.29,-2.42 30.21,-2.49 30.16,-2.59 30.11,-2.68 30.10,-2.79 30.08,-2.89 30.10,-2.99 30.12,-3.10 30.17,-3.19 30.22,-3.29 30.30,-3.36 30.37,-3.43 30.47,-3.47 30.57,-3.52 30.67,-3.53 30.78,-3.54 30.88,-3.52 30.99,-3.49 31.08,-3.44 31.17,-3.38 31.24,-3.30 31.30,-3.22 31.34,-3.12 31.38,-3.02 31.39,-2.91 31.39,-2.81 31.36,-2.70 31.33,-2.60 31.27,-2.51 31.21,-2.43 31.12,-2.36 31.04,-2.30 30.94,-2.27 30.84,-2.23 30.73,-2.24 30.63,-2.24 30.52,-2.27 30.42,-2.31 30.42,-2.31 30.42,-2.31 27.80,-4.11 25.17,-5.92 24.71,-7.48 24.25,-9.04 24.98,-10.46 25.71,-11.87 27.23,-13.11 28.76,-14.36 30.78,-15.09 32.81,-15.82 35.29,-15.99 37.77,-16.17 39.92,-15.17 42.07,-14.17 43.40,-12.53 44.73,-10.88 45.29,-9.09 45.84,-7.29 45.60,-5.73 45.36,-4.17 44.36,-2.89 43.37,-1.60 41.83,-0.91 40.30,-0.22 38.62,-0.18 36.95,-0.14 35.03,-0.58 33.11,-1.02 31.82,-1.83 30.53,-2.63 29.68,-3.46 28.82,-4.29 27.95,-4.06 27.09,-3.83 26.23,-3.97 25.38,-4.11 24.48,-4.79 23.59,-5.47 22.21,-6.98 20.83,-8.48 19.66,-10.44 18.49,-12.41 17.08,-14.95 15.68,-17.50 14.72,-20.24 13.76,-22.97 13.75,-25.52 13.75,-28.08 13.67,-28.28 13.59,-28.48 13.56,-28.69 13.54,-28.90 13.56,-29.11 13.58,-29.33 13.66,-29.53 13.73,-29.73 13.85,-29.90 13.97,-30.08 14.13,-30.23 14.29,-30.37 14.47,-30.47 14.66,-30.57 14.87,-30.63 15.08,-30.68 15.29,-30.68 15.50,-30.68 15.71,-30.64 15.92,-30.59 16.11,-30.49 16.30,-30.39 16.46,-30.25 16.62,-30.11 16.75,-29.94 16.87,-29.76 17.50,-29.05 18.13,-28.34 19.25,-26.08 20.37,-23.83 21.23,-21.03 22.09,-18.24 22.83,-14.88 23.57,-11.53 24.07,-8.44 24.57,-5.35 24.41,-3.15 24.26,-0.95 23.71,0.65 23.17,2.26 21.84,3.32 20.52,4.38 19.08,4.38 17.64,4.38 16.53,3.46 15.43,2.54 14.52,1.28 13.62,0.03 12.84,-1.21 12.05,-2.47 11.64,-3.60 11.23,-4.74 11.24,-4.96 11.24,-5.18 11.30,-5.40 11.36,-5.62 11.47,-5.81 11.58,-6.00 11.73,-6.17 11.89,-6.33 12.07,-6.45 12.26,-6.57 12.47,-6.65 12.68,-6.72 12.90,-6.74 13.13,-6.76 13.35,-6.73 13.57,-6.70 13.77,-6.61 13.98,-6.53 14.16,-6.40 14.34,-6.26 14.48,-6.09 14.63,-5.92 14.73,-5.72 14.82,-5.52 14.87,-5.30 14.92,-5.09 14.92,-4.88 14.93,-4.68 14.99,-3.83 15.05,-2.98 15.23,-1.60 15.42,-0.23 15.40,1.64 15.38,3.52 14.88,4.99 14.37,6.46 13.14,7.75 11.91,9.04 10.36,9.36 8.80,9.67 7.12,9.24 5.43,8.81 3.89,7.55 2.35,6.28 1.24,4.84 0.13,3.40 -0.27,1.89 -0.68,0.39 -0.72,0.30 -0.76,0.21 -0.77,0.12 -0.79,0.02 -0.78,-0.06 -0.77,-0.16 -0.74,-0.25 -0.71,-0.34 -0.66,-0.42 -0.61,-0.50 -0.54,-0.56 -0.47,-0.63 -0.38,-0.68 -0.30,-0.72 -0.21,-0.75 -0.12,-0.78 -0.02,-0.78 0.06,-0.78 0.16,-0.76 0.25,-0.74 0.33,-0.70 0.42,-0.66 0.49,-0.60 0.57,-0.54 0.62,-0.46 0.68,-0.39 0.68,-0.39 L 0.68,-0.39 Z"></path></g><g transform="translate(302.45517749879826 131.9103110774156) rotate(0 12.049934930351412 -4.233760921474783)" stroke="none"><path fill="#868e96" d="M -0.67,0.53 Q -0.67,0.53 -1.64,-0.35 -2.61,-1.24 -2.76,-3.66 -2.91,-6.08 -2.52,-8.08 -2.12,-10.08 -0.72,-12.09 0.67,-14.10 1.77,-15.18 2.87,-16.26 5.16,-15.88 7.46,-15.50 8.17,-13.69 8.87,-11.88 8.90,-9.85 8.93,-7.83 8.34,-5.54 7.76,-3.24 7.15,-1.21 6.54,0.82 6.31,2.13 6.08,3.43 6.03,4.12 5.98,4.81 6.59,5.01 7.19,5.21 8.07,4.99 8.94,4.78 10.61,4.22 12.27,3.66 14.37,2.38 16.48,1.10 18.46,-0.66 20.44,-2.42 21.84,-4.17 23.25,-5.91 23.90,-7.37 24.55,-8.82 24.39,-10.24 24.22,-11.67 23.94,-13.49 23.65,-15.32 23.65,-15.43 23.64,-15.53 23.66,-15.63 23.69,-15.74 23.75,-15.83 23.80,-15.92 23.89,-15.98 23.97,-16.05 24.07,-16.09 24.17,-16.12 24.28,-16.12 24.38,-16.13 24.48,-16.10 24.59,-16.06 24.67,-16.00 24.76,-15.94 24.82,-15.85 24.88,-15.77 24.91,-15.67 24.94,-15.56 24.94,-15.46 24.94,-15.35 24.90,-15.25 24.86,-15.15 24.80,-15.07 24.73,-14.99 24.64,-14.93 24.55,-14.87 24.45,-14.85 24.34,-14.82 24.24,-14.83 24.13,-14.84 24.03,-14.88 23.94,-14.92 23.86,-15.00 23.78,-15.07 23.73,-15.16 23.68,-15.25 23.66,-15.36 23.64,-15.46 23.65,-15.57 23.67,-15.67 23.71,-15.77 23.76,-15.86 23.84,-15.94 23.91,-16.01 24.01,-16.06 24.10,-16.10 24.21,-16.12 24.31,-16.13 24.42,-16.11 24.52,-16.09 24.61,-16.04 24.71,-15.99 24.78,-15.91 24.85,-15.83 24.89,-15.73 24.93,-15.63 24.93,-15.63 24.93,-15.63 25.54,-13.82 26.15,-12.01 26.59,-10.07 27.03,-8.12 26.44,-6.06 25.86,-4.00 24.35,-1.89 22.84,0.21 20.62,2.24 18.40,4.27 15.91,5.74 13.42,7.22 11.31,7.86 9.21,8.49 7.39,8.44 5.57,8.39 4.24,7.24 2.90,6.08 2.70,4.44 2.50,2.80 2.79,1.28 3.09,-0.23 3.70,-2.20 4.32,-4.18 4.87,-6.03 5.41,-7.88 5.45,-9.44 5.50,-11.00 5.36,-12.33 5.22,-13.66 4.64,-13.62 4.06,-13.59 3.69,-12.84 3.32,-12.10 2.13,-10.69 0.94,-9.28 0.54,-7.63 0.14,-5.99 -0.11,-4.24 -0.38,-2.50 0.14,-1.52 0.67,-0.53 0.72,-0.45 0.78,-0.36 0.81,-0.26 0.84,-0.16 0.85,-0.06 0.86,0.04 0.84,0.14 0.82,0.24 0.78,0.34 0.74,0.43 0.67,0.52 0.61,0.60 0.53,0.66 0.45,0.73 0.35,0.77 0.26,0.82 0.16,0.84 0.06,0.86 -0.04,0.85 -0.14,0.85 -0.24,0.82 -0.34,0.79 -0.43,0.73 -0.52,0.68 -0.59,0.61 -0.67,0.53 -0.67,0.53 L -0.67,0.53 Z"></path></g><g transform="translate(152.64517566199737 57.65665799308823) rotate(0 1.3026956681461002 -6.839152257766997)" stroke="none"><path fill="#a5d8ff" d="M -0.78,0 Q -0.78,0 -1.04,-1.32 -1.30,-2.64 -0.93,-3.97 -0.55,-5.29 0.16,-6.96 0.89,-8.64 1.18,-9.59 1.47,-10.55 2.05,-11.91 2.63,-13.27 2.64,-13.38 2.64,-13.48 2.69,-13.58 2.73,-13.68 2.80,-13.76 2.87,-13.84 2.96,-13.89 3.05,-13.95 3.15,-13.97 3.26,-13.99 3.36,-13.98 3.47,-13.97 3.56,-13.92 3.66,-13.88 3.74,-13.80 3.81,-13.73 3.86,-13.63 3.91,-13.54 3.93,-13.43 3.94,-13.33 3.92,-13.22 3.90,-13.12 3.85,-13.03 3.80,-12.93 3.72,-12.86 3.65,-12.79 3.55,-12.74 3.45,-12.70 3.35,-12.69 3.24,-12.68 3.14,-12.70 3.03,-12.73 2.94,-12.78 2.85,-12.84 2.79,-12.92 2.72,-13.00 2.68,-13.10 2.64,-13.20 2.64,-13.31 2.63,-13.41 2.66,-13.52 2.69,-13.62 2.75,-13.71 2.81,-13.79 2.90,-13.86 2.98,-13.92 3.08,-13.95 3.19,-13.99 3.29,-13.98 3.40,-13.98 3.50,-13.95 3.60,-13.91 3.68,-13.85 3.77,-13.78 3.83,-13.69 3.88,-13.60 3.91,-13.50 3.94,-13.40 3.94,-13.40 3.94,-13.40 4.03,-11.59 4.13,-9.77 3.81,-8.62 3.48,-7.47 2.77,-5.94 2.05,-4.42 1.68,-3.51 1.30,-2.60 1.04,-1.30 0.78,0 0.77,0.09 0.76,0.18 0.72,0.27 0.69,0.36 0.64,0.44 0.58,0.52 0.51,0.58 0.44,0.64 0.36,0.69 0.27,0.73 0.18,0.75 0.09,0.77 -0.00,0.77 -0.09,0.77 -0.18,0.75 -0.27,0.73 -0.36,0.69 -0.44,0.64 -0.51,0.58 -0.58,0.52 -0.64,0.44 -0.69,0.36 -0.72,0.27 -0.76,0.18 -0.77,0.09 -0.78,-0.00 -0.78,-0.00 L -0.78,0 Z"></path></g><g transform="translate(296.08878506042555 10) rotate(0 0.00004999999998744897 0.00005000000000165983)" stroke="none"><path fill="#a5d8ff" d="M 0.78,-0.78 Q 0.78,-0.78 0.88,-0.63 0.99,-0.49 1.04,-0.32 1.10,-0.14 1.09,0.02 1.09,0.20 1.02,0.37 0.96,0.54 0.85,0.68 0.74,0.82 0.59,0.92 0.43,1.02 0.26,1.06 0.09,1.10 -0.08,1.09 -0.26,1.07 -0.43,1.00 -0.59,0.93 -0.73,0.81 -0.86,0.69 -0.95,0.53 -1.04,0.38 -1.07,0.20 -1.10,0.02 -1.08,-0.14 -1.06,-0.32 -0.98,-0.48 -0.90,-0.64 -0.77,-0.77 -0.64,-0.90 -0.48,-0.98 -0.32,-1.06 -0.14,-1.08 0.03,-1.10 0.20,-1.07 0.38,-1.04 0.53,-0.95 0.69,-0.86 0.81,-0.73 0.93,-0.59 1.00,-0.43 1.07,-0.26 1.09,-0.08 1.10,0.09 1.06,0.26 1.01,0.43 0.92,0.59 0.82,0.74 0.68,0.85 0.54,0.96 0.37,1.02 0.20,1.09 0.02,1.09 -0.15,1.10 -0.32,1.04 -0.49,0.99 -0.63,0.88 -0.78,0.78 -0.78,0.78 -0.78,0.78 -0.86,0.67 -0.95,0.57 -1.00,0.45 -1.06,0.33 -1.08,0.19 -1.10,0.06 -1.10,-0.06 -1.09,-0.20 -1.05,-0.32 -1.01,-0.45 -0.94,-0.57 -0.87,-0.68 -0.77,-0.77 -0.68,-0.87 -0.57,-0.94 -0.45,-1.01 -0.32,-1.05 -0.20,-1.09 -0.06,-1.10 0.06,-1.10 0.19,-1.08 0.33,-1.06 0.45,-1.00 0.57,-0.95 0.67,-0.86 0.78,-0.78 0.78,-0.78 L 0.78,-0.78 Z"></path></g></svg>