<svg version="1.1" xmlns="http://www.w3.org/2000/svg" viewBox="0 0 819.7738859170706 407.69935716032785" width="819.7738859170706" height="407.69935716032785" class="excalidraw-svg"><!-- svg-source:excalidraw --><metadata></metadata><defs><style class="style-fonts">
      </style></defs><rect x="0" y="0" width="819.7738859170706" height="407.69935716032785" fill="#fffce8"></rect><g stroke-linecap="round"><g transform="translate(428.72978320265474 352.31159776817026) rotate(0 190.5220513572079 -154.40660755597892)"><path d="M0 0 C138.15 -113.49, 277.24 -224.32, 381.04 -308.81 M0 0 C96.75 -77.35, 192.41 -155.41, 381.04 -308.81" stroke="#f08c00" stroke-width="4" fill="none"></path></g><g transform="translate(428.72978320265474 352.31159776817026) rotate(0 190.5220513572079 -154.40660755597892)"><path d="M368.21 -287.36 C371.96 -296.47, 379.09 -301.72, 381.04 -308.81 M368.21 -287.36 C371.95 -291.82, 374.58 -298.02, 381.04 -308.81" stroke="#f08c00" stroke-width="4" fill="none"></path></g><g transform="translate(428.72978320265474 352.31159776817026) rotate(0 190.5220513572079 -154.40660755597892)"><path d="M357.42 -300.62 C365.02 -305.01, 376.06 -305.45, 381.04 -308.81 M357.42 -300.62 C363.8 -301.75, 369.15 -304.6, 381.04 -308.81" stroke="#f08c00" stroke-width="4" fill="none"></path></g></g><mask></mask><g stroke-linecap="round"><g transform="translate(415.12106524856847 359.6393689742167) rotate(0 -202.56053262428424 -174.81968448710836)"><path d="M0 0 C-146.11 -126.49, -291.79 -253.82, -405.12 -349.64 M0 0 C-90.61 -77.45, -180.31 -155.27, -405.12 -349.64" stroke="#f08c00" stroke-width="2" fill="none"></path></g><g transform="translate(415.12106524856847 359.6393689742167) rotate(0 -202.56053262428424 -174.81968448710836)"><path d="M-381.76 -340.74 C-390.82 -343.31, -397.34 -348.84, -405.12 -349.64 M-381.76 -340.74 C-387.72 -342.54, -392.41 -345.09, -405.12 -349.64" stroke="#f08c00" stroke-width="2" fill="none"></path></g><g transform="translate(415.12106524856847 359.6393689742167) rotate(0 -202.56053262428424 -174.81968448710836)"><path d="M-392.94 -327.81 C-397.91 -335.02, -400.38 -345.24, -405.12 -349.64 M-392.94 -327.81 C-396.46 -332.48, -398.67 -337.9, -405.12 -349.64" stroke="#f08c00" stroke-width="2" fill="none"></path></g></g><mask></mask><g stroke-linecap="round" transform="translate(394.18457608843573 330.32828415003087) rotate(0 25.647199221162623 25.123786992159296)"><path d="M22.83 1.01 C27.85 -0.2, 33.89 0.83, 38.44 3.51 C42.98 6.19, 48.25 11.96, 50.07 17.06 C51.9 22.17, 51.45 29.22, 49.38 34.15 C47.31 39.09, 42.5 44.02, 37.68 46.69 C32.85 49.36, 25.84 51.13, 20.42 50.18 C15.01 49.23, 8.52 45.13, 5.19 40.97 C1.86 36.82, 0.17 30.84, 0.44 25.23 C0.72 19.63, 2.39 11.46, 6.82 7.36 C11.24 3.27, 22.98 1.78, 27 0.65 C31.03 -0.48, 31 0.32, 30.97 0.59 M18.54 1.74 C23.46 0.51, 31.32 1.02, 36.26 3.04 C41.2 5.06, 45.77 8.9, 48.19 13.84 C50.6 18.78, 51.99 27.12, 50.73 32.68 C49.47 38.24, 45.43 44.19, 40.62 47.2 C35.81 50.21, 27.44 51.41, 21.85 50.76 C16.25 50.11, 10.78 47.24, 7.04 43.31 C3.3 39.38, -0.24 32.86, -0.6 27.18 C-0.95 21.49, 1.58 13.53, 4.93 9.19 C8.27 4.86, 17.1 2.57, 19.47 1.16 C21.85 -0.25, 19.28 0.42, 19.18 0.72" stroke="none" stroke-width="0" fill="#1e1e1e"></path><path d="M38.12 3.31 C42.95 5.44, 46.74 10.28, 48.9 15.11 C51.07 19.94, 52.7 27.12, 51.12 32.3 C49.53 37.48, 44.19 43.14, 39.4 46.19 C34.61 49.23, 27.8 51.07, 22.38 50.56 C16.96 50.05, 10.48 47.09, 6.89 43.12 C3.29 39.16, 0.91 32.24, 0.79 26.77 C0.66 21.31, 2.9 14.54, 6.14 10.33 C9.38 6.12, 14.49 2.27, 20.23 1.5 C25.97 0.72, 36.91 4.8, 40.59 5.66 C44.26 6.51, 42.64 6.46, 42.28 6.63 M17.2 -0.06 C22.24 -2.11, 31.33 -1.87, 36.69 0.42 C42.05 2.71, 47.12 8.85, 49.36 13.7 C51.6 18.54, 51.25 24.32, 50.15 29.47 C49.05 34.63, 46.81 41.24, 42.77 44.63 C38.73 48.01, 31.4 50.16, 25.91 49.77 C20.42 49.38, 13.92 45.87, 9.82 42.3 C5.72 38.72, 2.31 33.69, 1.31 28.34 C0.31 22.98, 1.33 14.61, 3.85 10.19 C6.38 5.77, 14.13 3.22, 16.46 1.83 C18.78 0.43, 17.53 1.44, 17.79 1.84" stroke="#f08c00" stroke-width="2" fill="none"></path></g><g transform="translate(342.8901776461106 277.9870612496991) rotate(0 70.66065091544795 -3.663885603023232)" stroke="none"><path fill="#a5d8ff" d="M -1.64,0 Q -1.64,0 -2.11,-2.11 -2.59,-4.22 -2.32,-6.02 -2.05,-7.82 -0.90,-9.87 0.24,-11.92 2.03,-13.78 3.81,-15.64 5.65,-17.54 7.48,-19.44 9.94,-21.33 12.39,-23.22 15.31,-24.97 18.23,-26.72 21.63,-28.39 25.03,-30.07 28.48,-31.16 31.92,-32.24 35.41,-33.28 38.89,-34.32 43.26,-35.11 47.64,-35.89 51.23,-36.52 54.82,-37.14 58.62,-37.42 62.42,-37.71 67.17,-37.52 71.93,-37.33 76.06,-36.95 80.20,-36.56 83.67,-35.76 87.13,-34.96 91.05,-33.69 94.97,-32.43 98.88,-30.62 102.80,-28.82 106.66,-26.49 110.52,-24.17 114.42,-20.97 118.33,-17.78 121.16,-15.24 124.00,-12.70 126.88,-9.39 129.77,-6.07 132.22,-2.85 134.67,0.36 136.98,3.90 139.29,7.44 140.97,10.92 142.65,14.40 143.69,17.15 144.72,19.90 145.20,21.90 145.67,23.90 143.71,23.97 141.75,24.04 141.77,24.19 141.79,24.35 141.77,24.51 141.75,24.66 141.69,24.81 141.63,24.96 141.54,25.09 141.45,25.22 141.33,25.32 141.21,25.43 141.07,25.50 140.93,25.57 140.77,25.61 140.62,25.64 140.46,25.64 140.30,25.64 140.15,25.60 140.00,25.56 139.86,25.49 139.72,25.41 139.60,25.31 139.48,25.20 139.39,25.07 139.31,24.94 139.25,24.79 139.20,24.64 139.21,24.70 139.23,24.76 139.19,24.55 139.16,24.34 139.19,24.13 139.23,23.92 139.33,23.73 139.43,23.55 139.58,23.40 139.74,23.25 139.93,23.16 140.12,23.07 140.33,23.05 140.54,23.03 140.75,23.07 140.96,23.12 141.14,23.23 141.32,23.34 141.46,23.50 141.60,23.66 141.68,23.86 141.76,24.06 141.77,24.27 141.78,24.48 141.72,24.69 141.67,24.89 141.55,25.07 141.43,25.24 141.26,25.37 141.09,25.50 140.89,25.57 140.69,25.64 140.47,25.64 140.26,25.64 140.06,25.57 139.86,25.50 139.69,25.37 139.52,25.24 139.40,25.07 139.28,24.89 139.22,24.69 139.17,24.48 139.18,24.27 139.19,24.06 139.27,23.86 139.35,23.66 139.49,23.50 139.62,23.34 139.80,23.23 139.99,23.12 140.19,23.07 140.40,23.03 140.61,23.05 140.82,23.07 141.02,23.16 141.21,23.25 141.36,23.40 141.52,23.54 141.63,23.79 141.75,24.04 141.77,24.19 141.79,24.35 141.77,24.51 141.75,24.66 141.69,24.81 141.63,24.96 141.54,25.09 141.45,25.22 141.33,25.32 141.21,25.43 141.07,25.50 140.93,25.57 140.77,25.61 140.62,25.64 140.46,25.64 140.30,25.64 140.15,25.60 140.00,25.56 139.86,25.49 139.72,25.41 139.60,25.31 139.48,25.20 139.39,25.07 139.31,24.94 139.25,24.79 139.20,24.64 138.52,25.07 137.85,25.49 137.52,24.08 137.18,22.67 136.31,20.23 135.44,17.79 134.04,14.73 132.65,11.67 130.56,8.32 128.47,4.96 126.24,1.88 124.01,-1.20 121.53,-4.23 119.05,-7.25 116.36,-9.72 113.67,-12.19 110.23,-15.11 106.78,-18.03 103.28,-20.18 99.77,-22.33 96.26,-23.98 92.75,-25.63 89.12,-26.82 85.48,-28.01 82.50,-28.73 79.52,-29.46 75.57,-29.84 71.63,-30.21 67.28,-30.41 62.93,-30.60 59.47,-30.36 56.01,-30.13 52.43,-29.53 48.86,-28.92 44.86,-28.24 40.87,-27.56 37.42,-26.57 33.96,-25.57 31.00,-24.70 28.03,-23.83 24.85,-22.32 21.67,-20.81 19.01,-19.31 16.35,-17.81 14.18,-16.31 12.01,-14.81 10.04,-12.98 8.07,-11.15 6.57,-9.90 5.08,-8.64 4.17,-7.62 3.26,-6.59 2.92,-5.39 2.59,-4.20 2.11,-2.10 1.64,0 1.61,0.19 1.59,0.39 1.52,0.57 1.45,0.76 1.34,0.92 1.22,1.08 1.08,1.22 0.93,1.35 0.75,1.44 0.58,1.53 0.39,1.58 0.19,1.63 -0.00,1.63 -0.19,1.63 -0.39,1.58 -0.58,1.53 -0.75,1.44 -0.93,1.35 -1.08,1.22 -1.23,1.08 -1.34,0.92 -1.45,0.76 -1.52,0.57 -1.59,0.39 -1.61,0.19 -1.64,-0.00 -1.64,-0.00 L -1.64,0 Z"></path></g><g transform="translate(452.38738913180157 385.97509614701306) rotate(0 12.375608847387895 4.8851087555478045)" stroke="none"><path fill="#343a40" d="M -0.63,0.42 Q -0.63,0.42 -1.22,0.00 -1.80,-0.42 -1.87,-0.55 -1.93,-0.69 -1.97,-0.84 -2.00,-0.99 -2.00,-1.14 -2.00,-1.29 -1.96,-1.44 -1.92,-1.59 -1.85,-1.72 -1.77,-1.85 -1.67,-1.97 -1.57,-2.08 -1.44,-2.16 -1.31,-2.25 -1.17,-2.30 -1.03,-2.35 -0.88,-2.37 -0.72,-2.38 -0.57,-2.36 -0.42,-2.34 -0.28,-2.29 -0.14,-2.23 -0.01,-2.14 0.10,-2.05 0.20,-1.94 0.30,-1.82 1.79,-1.76 3.29,-1.70 5.39,-0.74 7.50,0.22 9.93,1.58 12.37,2.94 14.69,4.25 17.02,5.57 18.72,6.51 20.43,7.45 21.90,8.25 23.37,9.05 24.00,7.26 24.62,5.48 24.65,5.38 24.68,5.27 24.74,5.19 24.80,5.10 24.89,5.04 24.98,4.97 25.08,4.94 25.18,4.91 25.28,4.91 25.39,4.91 25.49,4.95 25.59,4.98 25.67,5.05 25.76,5.11 25.82,5.20 25.87,5.29 25.90,5.39 25.93,5.50 25.92,5.60 25.91,5.71 25.87,5.81 25.83,5.90 25.76,5.98 25.69,6.06 25.60,6.12 25.51,6.17 25.41,6.19 25.30,6.21 25.20,6.20 25.09,6.19 25.00,6.14 24.90,6.10 24.82,6.02 24.75,5.95 24.70,5.85 24.65,5.76 24.63,5.65 24.62,5.55 24.64,5.44 24.66,5.34 24.71,5.25 24.76,5.15 24.84,5.08 24.91,5.01 25.01,4.97 25.11,4.92 25.21,4.91 25.32,4.90 25.42,4.93 25.53,4.95 25.62,5.01 25.71,5.06 25.77,5.14 25.84,5.23 25.88,5.33 25.92,5.43 25.92,5.53 25.93,5.64 25.93,5.64 25.93,5.64 25.72,8.11 25.51,10.58 24.00,11.34 22.48,12.10 20.60,11.36 18.73,10.61 16.96,9.68 15.20,8.74 12.89,7.41 10.58,6.08 8.28,4.74 5.98,3.39 3.98,2.40 1.99,1.40 1.07,0.85 0.14,0.29 -0.82,-0.06 -1.80,-0.42 -1.87,-0.55 -1.93,-0.69 -1.97,-0.84 -2.00,-0.99 -2.00,-1.14 -2.00,-1.29 -1.96,-1.44 -1.92,-1.59 -1.85,-1.72 -1.77,-1.85 -1.67,-1.97 -1.57,-2.08 -1.44,-2.16 -1.31,-2.25 -1.17,-2.30 -1.03,-2.35 -0.88,-2.37 -0.72,-2.38 -0.57,-2.36 -0.42,-2.34 -0.28,-2.29 -0.14,-2.23 -0.01,-2.14 0.10,-2.05 0.20,-1.94 0.30,-1.82 0.47,-1.12 0.63,-0.42 0.68,-0.34 0.72,-0.26 0.74,-0.17 0.76,-0.08 0.76,0.01 0.76,0.10 0.73,0.19 0.71,0.28 0.67,0.36 0.62,0.44 0.56,0.51 0.50,0.58 0.42,0.63 0.34,0.68 0.25,0.71 0.17,0.74 0.07,0.75 -0.01,0.76 -0.10,0.75 -0.19,0.74 -0.28,0.70 -0.36,0.67 -0.44,0.62 -0.51,0.56 -0.57,0.49 -0.63,0.42 -0.63,0.42 L -0.63,0.42 Z"></path></g><g transform="translate(477.78995466065044 394.4426179899627) rotate(0 -3.5824130874017612 -16.283695851826195)" stroke="none"><path fill="#343a40" d="M -0.75,0.06 Q -0.75,0.06 -1.36,-1.95 -1.97,-3.97 -2.08,-5.82 -2.20,-7.67 -2.44,-10.66 -2.69,-13.65 -2.97,-15.42 -3.25,-17.20 -4.30,-20.67 -5.35,-24.14 -6.32,-26.53 -7.29,-28.91 -7.30,-29.67 -7.31,-30.44 -7.35,-30.59 -7.39,-30.73 -7.40,-30.88 -7.40,-31.03 -7.37,-31.18 -7.34,-31.33 -7.27,-31.47 -7.20,-31.60 -7.10,-31.72 -7.01,-31.83 -6.89,-31.92 -6.76,-32.01 -6.62,-32.07 -6.48,-32.13 -6.33,-32.15 -6.18,-32.17 -6.03,-32.16 -5.88,-32.14 -5.74,-32.09 -5.60,-32.04 -5.47,-31.96 -5.34,-31.88 -5.24,-31.77 -5.14,-31.66 -5.06,-31.53 -4.99,-31.39 -3.79,-29.86 -2.58,-28.33 -2.53,-28.24 -2.47,-28.15 -2.44,-28.04 -2.42,-27.94 -2.43,-27.83 -2.44,-27.73 -2.48,-27.63 -2.53,-27.53 -2.60,-27.46 -2.67,-27.38 -2.76,-27.33 -2.86,-27.28 -2.96,-27.26 -3.07,-27.24 -3.17,-27.26 -3.28,-27.27 -3.37,-27.32 -3.47,-27.37 -3.54,-27.44 -3.61,-27.52 -3.66,-27.62 -3.71,-27.71 -3.72,-27.82 -3.73,-27.92 -3.71,-28.03 -3.69,-28.13 -3.64,-28.22 -3.58,-28.31 -3.50,-28.38 -3.42,-28.45 -3.32,-28.49 -3.23,-28.54 -3.12,-28.54 -3.01,-28.55 -2.91,-28.52 -2.81,-28.50 -2.72,-28.44 -2.63,-28.38 -2.57,-28.30 -2.50,-28.21 -2.46,-28.11 -2.43,-28.01 -2.43,-27.90 -2.43,-27.80 -2.46,-27.70 -2.49,-27.60 -2.55,-27.51 -2.62,-27.43 -2.70,-27.36 -2.79,-27.30 -2.89,-27.27 -3.00,-27.24 -3.10,-27.25 -3.21,-27.25 -3.31,-27.29 -3.41,-27.33 -3.49,-27.40 -3.57,-27.46 -3.57,-27.46 -3.57,-27.46 -4.67,-28.49 -5.77,-29.51 -6.54,-29.97 -7.31,-30.44 -7.35,-30.59 -7.39,-30.73 -7.40,-30.88 -7.40,-31.03 -7.37,-31.18 -7.34,-31.33 -7.27,-31.47 -7.20,-31.60 -7.10,-31.72 -7.01,-31.83 -6.89,-31.92 -6.76,-32.01 -6.62,-32.07 -6.48,-32.13 -6.33,-32.15 -6.18,-32.17 -6.03,-32.16 -5.88,-32.14 -5.74,-32.09 -5.60,-32.04 -5.47,-31.96 -5.34,-31.88 -5.24,-31.77 -5.14,-31.66 -5.06,-31.53 -4.99,-31.39 -4.52,-30.82 -4.05,-30.24 -2.99,-27.69 -1.94,-25.15 -0.88,-21.44 0.17,-17.72 0.45,-15.81 0.74,-13.90 0.93,-10.86 1.13,-7.81 1.17,-6.04 1.22,-4.26 0.98,-2.16 0.75,-0.06 0.75,0.02 0.75,0.11 0.72,0.20 0.70,0.29 0.65,0.37 0.61,0.45 0.54,0.51 0.48,0.58 0.40,0.63 0.33,0.68 0.24,0.71 0.15,0.74 0.06,0.75 -0.02,0.75 -0.11,0.74 -0.20,0.73 -0.28,0.69 -0.37,0.66 -0.44,0.60 -0.52,0.55 -0.57,0.48 -0.63,0.41 -0.67,0.33 -0.71,0.24 -0.73,0.15 -0.75,0.06 -0.75,0.06 L -0.75,0.06 Z"></path></g><g transform="translate(483.65208516730786 380.76431347442866) rotate(0 3.256739170365222 -6.513478340730472)" stroke="none"><path fill="#343a40" d="M -0.72,-0.28 Q -0.72,-0.28 -0.25,-2.27 0.22,-4.25 0.65,-5.94 1.08,-7.62 1.41,-9.08 1.75,-10.54 1.50,-11.60 1.25,-12.65 0.69,-13.47 0.13,-14.30 -0.60,-14.66 -1.33,-15.03 -2.08,-15.01 -2.82,-14.98 -3.45,-14.54 -4.07,-14.11 -4.60,-13.39 -5.13,-12.67 -5.30,-11.69 -5.48,-10.71 -5.05,-8.84 -4.63,-6.96 -3.45,-4.99 -2.26,-3.01 -0.42,-1.54 1.40,-0.06 3.16,0.72 4.91,1.52 6.65,1.50 8.39,1.49 9.46,0.75 10.54,0.01 11.20,-1.00 11.87,-2.01 12.30,-3.62 12.73,-5.22 12.64,-7.00 12.56,-8.78 12.49,-10.50 12.43,-12.22 12.44,-12.33 12.45,-12.43 12.49,-12.53 12.53,-12.63 12.60,-12.71 12.67,-12.79 12.76,-12.84 12.86,-12.89 12.96,-12.91 13.07,-12.93 13.17,-12.92 13.28,-12.90 13.37,-12.85 13.47,-12.81 13.54,-12.73 13.62,-12.66 13.66,-12.56 13.71,-12.47 13.72,-12.36 13.74,-12.26 13.72,-12.15 13.70,-12.05 13.65,-11.95 13.59,-11.86 13.52,-11.79 13.44,-11.72 13.34,-11.68 13.24,-11.64 13.13,-11.63 13.03,-11.62 12.93,-11.64 12.82,-11.67 12.73,-11.73 12.64,-11.79 12.58,-11.87 12.51,-11.95 12.47,-12.05 12.44,-12.15 12.43,-12.26 12.43,-12.36 12.46,-12.46 12.49,-12.57 12.56,-12.65 12.62,-12.74 12.70,-12.80 12.79,-12.86 12.89,-12.89 12.99,-12.92 13.10,-12.92 13.21,-12.92 13.31,-12.88 13.41,-12.85 13.49,-12.78 13.57,-12.71 13.63,-12.62 13.69,-12.53 13.71,-12.43 13.74,-12.33 13.74,-12.33 13.74,-12.33 13.95,-10.65 14.16,-8.97 14.53,-6.91 14.90,-4.85 14.63,-2.70 14.37,-0.56 13.40,1.08 12.43,2.73 10.55,3.85 8.67,4.97 6.09,4.93 3.51,4.89 1.27,3.85 -0.95,2.81 -3.21,0.86 -5.48,-1.08 -6.89,-3.65 -8.30,-6.22 -8.71,-8.86 -9.11,-11.50 -8.58,-13.22 -8.05,-14.94 -6.92,-16.16 -5.80,-17.38 -4.29,-17.98 -2.78,-18.59 -1.16,-18.36 0.45,-18.13 1.77,-17.15 3.08,-16.17 3.82,-14.69 4.55,-13.22 4.71,-11.51 4.87,-9.81 4.40,-8.30 3.93,-6.79 3.35,-5.01 2.77,-3.23 1.75,-1.47 0.72,0.28 0.67,0.37 0.63,0.45 0.57,0.52 0.50,0.59 0.42,0.64 0.34,0.69 0.26,0.72 0.17,0.76 0.07,0.77 -0.01,0.77 -0.10,0.76 -0.20,0.75 -0.28,0.71 -0.37,0.68 -0.45,0.62 -0.52,0.57 -0.58,0.50 -0.64,0.43 -0.69,0.34 -0.73,0.26 -0.75,0.17 -0.77,0.07 -0.77,-0.01 -0.77,-0.10 -0.74,-0.19 -0.72,-0.28 -0.72,-0.28 L -0.72,-0.28 Z"></path></g><g transform="translate(492.7709548443305 363.8292697885294) rotate(0 4.559434838511351 -0.9770217511095325)" stroke="none"><path fill="#343a40" d="M 0.72,-0.24 Q 0.72,-0.24 1.39,0.77 2.06,1.78 2.92,2.78 3.79,3.78 4.95,5.20 6.10,6.62 7.20,8.21 8.31,9.79 9.15,11.00 9.99,12.21 10.56,13.12 11.13,14.03 11.50,14.49 11.87,14.94 11.76,14.83 11.65,14.71 11.79,14.87 11.94,15.04 12.03,15.23 12.13,15.43 12.18,15.64 12.23,15.85 12.22,16.07 12.22,16.29 12.16,16.50 12.11,16.71 12.00,16.90 11.90,17.09 11.75,17.25 11.61,17.41 11.43,17.53 11.24,17.65 11.04,17.73 10.83,17.80 10.62,17.82 10.40,17.84 10.19,17.81 9.97,17.78 9.77,17.70 9.57,17.62 9.39,17.50 9.21,17.37 8.66,16.89 8.11,16.42 6.95,15.48 5.79,14.54 4.41,12.88 3.03,11.22 1.64,8.54 0.26,5.85 -0.88,3.02 -2.03,0.19 -2.56,-2.26 -3.08,-4.72 -2.92,-7.09 -2.76,-9.47 -1.97,-11.11 -1.18,-12.75 0.34,-13.75 1.88,-14.74 3.06,-15.21 4.25,-15.69 5.06,-16.06 5.86,-16.44 7.44,-17.44 9.01,-18.43 9.10,-18.49 9.19,-18.55 9.29,-18.58 9.40,-18.60 9.50,-18.59 9.61,-18.59 9.70,-18.55 9.80,-18.50 9.88,-18.43 9.96,-18.36 10.01,-18.27 10.07,-18.18 10.09,-18.08 10.11,-17.97 10.10,-17.87 10.08,-17.76 10.04,-17.66 9.99,-17.57 9.91,-17.49 9.84,-17.42 9.75,-17.37 9.65,-17.32 9.55,-17.31 9.44,-17.29 9.34,-17.31 9.23,-17.33 9.14,-17.38 9.05,-17.43 8.97,-17.51 8.90,-17.59 8.86,-17.69 8.82,-17.79 8.81,-17.89 8.80,-18.00 8.82,-18.10 8.85,-18.20 8.90,-18.29 8.96,-18.38 9.04,-18.45 9.13,-18.52 9.23,-18.56 9.32,-18.59 9.43,-18.60 9.54,-18.60 9.64,-18.57 9.74,-18.54 9.83,-18.48 9.91,-18.42 9.98,-18.33 10.04,-18.24 10.07,-18.14 10.10,-18.04 10.10,-17.94 10.10,-17.83 10.06,-17.73 10.03,-17.63 9.96,-17.55 9.90,-17.46 9.90,-17.46 9.90,-17.46 8.60,-15.93 7.30,-14.39 6.45,-13.60 5.59,-12.80 4.63,-12.28 3.67,-11.76 2.79,-11.31 1.91,-10.85 1.42,-9.96 0.94,-9.06 0.75,-7.24 0.57,-5.42 0.98,-3.29 1.39,-1.16 2.45,1.52 3.52,4.20 4.69,6.57 5.86,8.93 6.98,10.33 8.10,11.73 9.29,12.71 10.49,13.69 11.07,14.20 11.65,14.71 11.79,14.87 11.94,15.04 12.03,15.23 12.13,15.43 12.18,15.64 12.23,15.85 12.22,16.07 12.22,16.29 12.16,16.50 12.11,16.71 12.00,16.90 11.90,17.09 11.75,17.25 11.61,17.41 11.43,17.53 11.24,17.65 11.04,17.73 10.84,17.80 10.62,17.82 10.40,17.84 10.19,17.81 9.97,17.78 9.77,17.70 9.57,17.62 9.39,17.50 9.21,17.37 9.13,16.93 9.04,16.49 8.58,16.19 8.12,15.88 7.62,15.01 7.12,14.13 6.32,12.89 5.53,11.65 4.55,10.13 3.56,8.60 2.44,7.10 1.33,5.61 0.38,4.15 -0.56,2.70 -0.64,1.47 -0.72,0.24 -0.74,0.15 -0.76,0.06 -0.75,-0.03 -0.75,-0.12 -0.72,-0.21 -0.70,-0.30 -0.65,-0.38 -0.61,-0.46 -0.54,-0.52 -0.48,-0.59 -0.40,-0.64 -0.32,-0.69 -0.24,-0.72 -0.15,-0.74 -0.06,-0.75 0.03,-0.76 0.12,-0.74 0.21,-0.73 0.29,-0.69 0.38,-0.66 0.45,-0.60 0.53,-0.55 0.58,-0.48 0.64,-0.40 0.68,-0.32 0.72,-0.24 0.72,-0.24 L 0.72,-0.24 Z"></path></g><g transform="translate(482.34938949916176 335.8213129233884) rotate(0 -2.931065253328711 5.5364565896209115)" stroke="none"><path fill="#343a40" d="M -0.18,0.75 Q -0.18,0.75 -0.61,0.69 -1.04,0.63 -1.35,1.46 -1.66,2.29 -1.98,3.40 -2.30,4.51 -2.63,5.93 -2.96,7.35 -3.82,9.33 -4.67,11.31 -4.70,11.39 -4.73,11.46 -4.78,11.53 -4.82,11.59 -4.88,11.64 -4.94,11.69 -5.01,11.73 -5.08,11.77 -5.16,11.78 -5.24,11.80 -5.32,11.80 -5.40,11.80 -5.47,11.78 -5.55,11.76 -5.62,11.72 -5.69,11.68 -5.75,11.63 -5.80,11.58 -5.85,11.51 -5.89,11.44 -5.92,11.37 -5.95,11.29 -5.95,11.22 -5.96,11.14 -5.95,11.06 -5.94,10.98 -5.74,10.76 -5.53,10.53 -5.42,10.51 -5.32,10.49 -5.21,10.51 -5.11,10.52 -5.01,10.57 -4.92,10.62 -4.85,10.69 -4.77,10.77 -4.72,10.86 -4.68,10.96 -4.66,11.06 -4.65,11.17 -4.67,11.27 -4.69,11.38 -4.74,11.47 -4.80,11.56 -4.88,11.63 -4.96,11.70 -5.05,11.74 -5.15,11.79 -5.26,11.79 -5.36,11.80 -5.47,11.78 -5.57,11.75 -5.66,11.69 -5.75,11.63 -5.81,11.55 -5.88,11.47 -5.92,11.37 -5.95,11.27 -5.95,11.16 -5.96,11.05 -5.92,10.95 -5.89,10.85 -5.83,10.77 -5.77,10.68 -5.68,10.62 -5.59,10.56 -5.49,10.53 -5.39,10.50 -5.28,10.50 -5.18,10.50 -5.08,10.54 -4.98,10.58 -4.90,10.65 -4.81,10.71 -4.76,10.80 -4.70,10.89 -4.68,11.00 -4.65,11.10 -4.66,11.20 -4.67,11.31 -4.71,11.41 -4.76,11.51 -4.83,11.58 -4.90,11.66 -4.78,11.49 -4.67,11.31 -4.70,11.39 -4.73,11.46 -4.78,11.53 -4.82,11.59 -4.88,11.64 -4.94,11.69 -5.01,11.73 -5.08,11.77 -5.16,11.78 -5.24,11.80 -5.32,11.80 -5.40,11.80 -5.47,11.78 -5.55,11.76 -5.62,11.72 -5.69,11.68 -5.75,11.63 -5.80,11.58 -5.85,11.51 -5.89,11.44 -5.92,11.37 -5.95,11.29 -5.95,11.22 -5.96,11.14 -5.95,11.06 -5.94,10.98 -6.12,8.73 -6.29,6.47 -5.84,4.92 -5.39,3.36 -4.74,1.87 -4.10,0.38 -3.02,-0.49 -1.95,-1.38 -0.88,-1.06 0.18,-0.75 0.27,-0.71 0.36,-0.68 0.43,-0.63 0.51,-0.57 0.57,-0.50 0.63,-0.43 0.68,-0.35 0.72,-0.27 0.74,-0.18 0.76,-0.09 0.76,0.00 0.76,0.09 0.74,0.18 0.72,0.27 0.67,0.35 0.63,0.44 0.57,0.51 0.51,0.58 0.43,0.63 0.35,0.68 0.27,0.71 0.18,0.75 0.09,0.76 -0.00,0.77 -0.09,0.76 -0.18,0.75 -0.18,0.75 L -0.18,0.75 Z"></path></g><g transform="translate(507.10060719393755 326.70244324636576) rotate(0 6.18780442369399 17.586391519972267)" stroke="none"><path fill="#343a40" d="M 0.76,-0.09 Q 0.76,-0.09 1.36,1.34 1.97,2.77 2.77,4.50 3.58,6.22 5.26,9.62 6.94,13.02 8.42,16.18 9.89,19.34 11.10,22.41 12.31,25.48 13.18,27.70 14.06,29.92 14.44,31.34 14.83,32.76 14.75,33.51 14.67,34.26 14.70,34.46 14.73,34.66 14.71,34.86 14.70,35.06 14.63,35.25 14.57,35.44 14.46,35.61 14.35,35.78 14.20,35.92 14.06,36.05 13.88,36.15 13.71,36.25 13.51,36.31 13.32,36.36 13.12,36.37 12.92,36.37 12.72,36.33 12.53,36.29 12.34,36.20 12.16,36.12 12.01,35.99 11.85,35.86 11.73,35.70 11.61,35.54 11.54,35.35 11.46,35.17 9.91,34.15 8.36,33.13 6.90,31.75 5.45,30.36 5.38,30.28 5.31,30.20 5.27,30.10 5.23,30.00 5.22,29.90 5.21,29.79 5.24,29.69 5.27,29.59 5.33,29.50 5.39,29.41 5.47,29.34 5.55,29.28 5.65,29.25 5.75,29.21 5.86,29.21 5.97,29.21 6.07,29.24 6.17,29.27 6.25,29.34 6.34,29.40 6.40,29.49 6.46,29.58 6.49,29.68 6.52,29.78 6.51,29.89 6.51,29.99 6.47,30.09 6.43,30.19 6.36,30.27 6.30,30.35 6.20,30.41 6.11,30.47 6.01,30.49 5.91,30.51 5.80,30.50 5.70,30.49 5.60,30.45 5.50,30.40 5.42,30.33 5.35,30.26 5.30,30.17 5.25,30.07 5.23,29.97 5.21,29.86 5.23,29.76 5.24,29.65 5.29,29.56 5.34,29.46 5.42,29.39 5.49,29.32 5.59,29.27 5.69,29.23 5.79,29.21 5.90,29.20 6.00,29.22 6.10,29.25 6.20,29.30 6.29,29.35 6.29,29.35 6.29,29.35 7.83,30.47 9.36,31.59 10.51,32.19 11.65,32.80 13.16,33.53 14.67,34.26 14.70,34.46 14.73,34.66 14.71,34.86 14.70,35.06 14.63,35.25 14.57,35.44 14.46,35.61 14.35,35.78 14.20,35.92 14.06,36.05 13.88,36.15 13.71,36.25 13.51,36.31 13.32,36.36 13.12,36.37 12.92,36.38 12.72,36.33 12.53,36.29 12.35,36.20 12.16,36.12 12.01,35.99 11.85,35.86 11.73,35.70 11.62,35.54 11.54,35.35 11.46,35.17 11.44,34.42 11.41,33.67 11.06,32.46 10.70,31.24 9.82,29.02 8.94,26.80 7.79,23.82 6.64,20.84 5.20,17.69 3.76,14.55 2.12,11.05 0.47,7.55 -0.37,5.38 -1.22,3.21 -0.99,1.65 -0.76,0.09 -0.76,0.00 -0.76,-0.09 -0.74,-0.18 -0.72,-0.27 -0.67,-0.35 -0.63,-0.43 -0.57,-0.50 -0.51,-0.57 -0.43,-0.62 -0.35,-0.67 -0.27,-0.71 -0.18,-0.74 -0.09,-0.75 -0.00,-0.76 0.08,-0.75 0.18,-0.74 0.26,-0.71 0.35,-0.68 0.43,-0.62 0.50,-0.57 0.56,-0.50 0.63,-0.43 0.67,-0.35 0.71,-0.27 0.74,-0.18 0.76,-0.09 0.76,-0.09 L 0.76,-0.09 Z"></path></g><g transform="translate(503.1925201894993 348.84826960484935) rotate(0 10.747239262205255 -9.770217511095723)" stroke="none"><path fill="#343a40" d="M -0.80,0 Q -0.80,0 -1.09,-1.36 -1.38,-2.73 -0.42,-4.59 0.53,-6.45 1.93,-7.99 3.34,-9.53 5.50,-11.15 7.66,-12.78 9.32,-13.95 10.97,-15.12 12.73,-16.08 14.48,-17.04 16.04,-17.75 17.59,-18.47 19.64,-19.14 21.69,-19.81 21.80,-19.83 21.90,-19.85 22.01,-19.84 22.11,-19.83 22.21,-19.78 22.31,-19.74 22.38,-19.67 22.46,-19.59 22.51,-19.50 22.56,-19.40 22.58,-19.30 22.59,-19.19 22.58,-19.09 22.56,-18.99 22.51,-18.89 22.46,-18.80 22.38,-18.72 22.30,-18.65 22.21,-18.61 22.11,-18.56 22.01,-18.55 21.90,-18.54 21.80,-18.56 21.69,-18.59 21.60,-18.64 21.51,-18.70 21.44,-18.78 21.37,-18.86 21.33,-18.96 21.30,-19.06 21.29,-19.16 21.28,-19.27 21.31,-19.37 21.34,-19.47 21.40,-19.56 21.46,-19.65 21.55,-19.71 21.63,-19.78 21.73,-19.81 21.83,-19.84 21.94,-19.84 22.04,-19.84 22.14,-19.81 22.25,-19.78 22.33,-19.71 22.41,-19.65 22.47,-19.56 22.53,-19.47 22.56,-19.37 22.59,-19.27 22.58,-19.16 22.58,-19.05 22.54,-18.96 22.50,-18.86 22.43,-18.78 22.36,-18.69 22.27,-18.64 22.18,-18.59 22.18,-18.59 22.18,-18.59 20.35,-17.71 18.53,-16.84 17.20,-15.89 15.87,-14.94 14.37,-13.75 12.87,-12.56 11.27,-11.31 9.67,-10.06 7.70,-8.64 5.73,-7.21 4.47,-5.98 3.21,-4.76 2.29,-3.63 1.38,-2.50 1.09,-1.25 0.80,0 0.79,0.09 0.78,0.19 0.74,0.28 0.71,0.37 0.65,0.45 0.60,0.53 0.53,0.59 0.45,0.66 0.37,0.70 0.28,0.75 0.19,0.77 0.09,0.80 -0.00,0.80 -0.09,0.80 -0.19,0.77 -0.28,0.75 -0.37,0.70 -0.45,0.66 -0.53,0.59 -0.60,0.53 -0.65,0.45 -0.71,0.37 -0.74,0.28 -0.78,0.19 -0.79,0.09 -0.80,-0.00 -0.80,-0.00 L -0.80,0 Z"></path></g><g transform="translate(533.1545205568594 332.5645737530232) rotate(0 3.256739170365222 10.747239262205284)" stroke="none"><path fill="#343a40" d="M 0.66,-0.26 Q 0.66,-0.26 1.21,0.59 1.77,1.46 2.61,3.32 3.46,5.18 4.04,7.16 4.62,9.15 5.26,11.45 5.91,13.76 6.36,15.49 6.82,17.22 7.18,18.36 7.54,19.50 7.25,19.59 6.96,19.69 6.99,19.82 7.02,19.95 7.01,20.09 7.01,20.22 6.97,20.35 6.93,20.48 6.86,20.60 6.80,20.71 6.70,20.81 6.61,20.91 6.50,20.98 6.38,21.05 6.25,21.10 6.13,21.14 5.99,21.15 5.86,21.16 5.72,21.14 5.59,21.12 5.47,21.07 5.34,21.01 5.23,20.93 5.12,20.85 5.04,20.75 4.95,20.64 4.90,20.52 4.84,20.40 4.20,18.69 3.57,16.98 3.53,16.88 3.48,16.78 3.48,16.68 3.47,16.57 3.50,16.47 3.52,16.37 3.58,16.28 3.64,16.19 3.73,16.12 3.81,16.06 3.91,16.02 4.01,15.99 4.12,15.99 4.22,15.99 4.32,16.02 4.42,16.05 4.51,16.11 4.59,16.18 4.66,16.26 4.72,16.35 4.75,16.45 4.78,16.56 4.77,16.66 4.77,16.77 4.73,16.87 4.69,16.97 4.62,17.05 4.56,17.13 4.47,17.19 4.37,17.24 4.27,17.27 4.17,17.29 4.06,17.28 3.96,17.27 3.86,17.23 3.76,17.18 3.68,17.11 3.61,17.04 3.56,16.95 3.50,16.85 3.49,16.75 3.47,16.64 3.48,16.54 3.50,16.43 3.55,16.34 3.60,16.24 3.67,16.17 3.75,16.10 3.84,16.05 3.94,16.00 4.05,15.99 4.15,15.98 4.26,16.00 4.36,16.02 4.45,16.08 4.54,16.13 4.61,16.21 4.68,16.29 4.68,16.29 4.68,16.29 5.82,17.99 6.96,19.69 6.99,19.82 7.02,19.95 7.01,20.09 7.01,20.22 6.97,20.35 6.93,20.48 6.86,20.60 6.80,20.71 6.70,20.81 6.61,20.91 6.50,20.98 6.38,21.05 6.25,21.10 6.13,21.14 5.99,21.15 5.86,21.16 5.72,21.14 5.59,21.12 5.47,21.07 5.34,21.01 5.23,20.93 5.12,20.85 5.04,20.75 4.95,20.64 4.90,20.52 4.84,20.40 4.61,20.30 4.37,20.19 3.99,19.11 3.61,18.03 3.19,16.29 2.78,14.55 2.25,12.22 1.73,9.89 1.32,8.02 0.91,6.14 0.32,4.21 -0.27,2.28 -0.46,1.27 -0.66,0.26 -0.68,0.18 -0.70,0.09 -0.70,0.01 -0.71,-0.07 -0.69,-0.15 -0.67,-0.24 -0.63,-0.31 -0.59,-0.39 -0.53,-0.46 -0.48,-0.52 -0.41,-0.57 -0.34,-0.62 -0.26,-0.65 -0.18,-0.69 -0.09,-0.70 -0.01,-0.71 0.07,-0.70 0.15,-0.69 0.23,-0.66 0.32,-0.63 0.39,-0.59 0.46,-0.54 0.52,-0.47 0.58,-0.41 0.62,-0.34 0.66,-0.26 0.66,-0.26 L 0.66,-0.26 Z"></path></g><g transform="translate(529.8977813864942 324.7483997441466) rotate(0 -1.9540435022191218 -2.279717419255661)" stroke="none"><path d="M0.95 -0.55 C0.01 -1.3, -4.19 -2.89, -4.72 -3.36 C-5.26 -3.83, -2.61 -3.05, -2.27 -3.36" stroke="none" stroke-width="0" fill="#a5d8ff" fill-rule="evenodd"></path><path fill="#343a40" d="M -0.49,0.49 Q -0.49,0.49 -1.66,-0.20 -2.82,-0.91 -3.38,-2.70 -3.94,-4.50 -3.90,-4.59 -3.86,-4.69 -3.79,-4.77 -3.72,-4.85 -3.63,-4.90 -3.53,-4.96 -3.43,-4.98 -3.33,-5.00 -3.22,-4.98 -3.11,-4.97 -3.02,-4.92 -2.92,-4.88 -2.85,-4.80 -2.77,-4.73 -2.72,-4.63 -2.68,-4.54 -2.66,-4.43 -2.65,-4.33 -2.67,-4.22 -2.68,-4.12 -2.74,-4.03 -2.79,-3.93 -2.87,-3.86 -2.95,-3.79 -3.04,-3.75 -3.14,-3.71 -3.25,-3.70 -3.35,-3.69 -3.45,-3.71 -3.56,-3.74 -3.65,-3.79 -3.74,-3.85 -3.81,-3.93 -3.87,-4.01 -3.91,-4.11 -3.95,-4.21 -3.95,-4.32 -3.95,-4.43 -3.92,-4.53 -3.89,-4.63 -3.83,-4.72 -3.77,-4.80 -3.68,-4.87 -3.60,-4.93 -3.50,-4.96 -3.40,-4.99 -3.29,-4.99 -3.18,-4.99 -3.08,-4.95 -2.98,-4.92 -2.90,-4.85 -2.82,-4.78 -2.76,-4.69 -2.70,-4.61 -2.68,-4.50 -2.65,-4.40 -2.66,-4.29 -2.66,-4.19 -2.66,-4.19 -2.66,-4.19 -1.79,-3.51 -0.92,-2.82 -0.21,-1.66 0.49,-0.49 0.55,-0.43 0.60,-0.36 0.63,-0.28 0.67,-0.20 0.68,-0.12 0.70,-0.04 0.69,0.04 0.69,0.12 0.66,0.20 0.64,0.28 0.59,0.36 0.55,0.43 0.49,0.49 0.43,0.55 0.36,0.59 0.28,0.64 0.20,0.66 0.12,0.69 0.04,0.69 -0.04,0.70 -0.12,0.68 -0.20,0.67 -0.28,0.63 -0.36,0.60 -0.43,0.55 -0.49,0.49 -0.49,0.49 L -0.49,0.49 Z"></path></g><g transform="translate(561.1624774220005 318.88626923748916) rotate(0 1.3026956681460433 13.026956681460945)" stroke="none"><path fill="#343a40" d="M -0.10,0.83 Q -0.10,0.83 -1.57,0.89 -3.04,0.96 -4.03,1.62 -5.03,2.28 -5.86,3.69 -6.70,5.10 -7.23,7.05 -7.75,9.00 -7.80,11.39 -7.84,13.77 -7.15,16.31 -6.45,18.85 -5.51,20.55 -4.56,22.24 -3.10,23.15 -1.64,24.05 0.03,24.28 1.70,24.51 3.38,24.03 5.05,23.54 6.36,22.91 7.67,22.28 9.00,20.88 10.34,19.49 11.19,17.57 12.05,15.65 12.11,15.56 12.16,15.47 12.24,15.40 12.32,15.33 12.42,15.29 12.52,15.25 12.62,15.24 12.73,15.24 12.83,15.26 12.94,15.29 13.02,15.35 13.11,15.41 13.18,15.50 13.24,15.58 13.28,15.68 13.31,15.78 13.31,15.89 13.31,15.99 13.28,16.09 13.24,16.20 13.18,16.28 13.12,16.36 13.03,16.42 12.94,16.48 12.84,16.51 12.74,16.54 12.63,16.54 12.52,16.53 12.42,16.49 12.33,16.45 12.24,16.39 12.16,16.32 12.11,16.23 12.05,16.14 12.03,16.03 12.01,15.93 12.02,15.82 12.03,15.72 12.07,15.62 12.12,15.52 12.19,15.45 12.26,15.37 12.36,15.32 12.45,15.27 12.55,15.25 12.66,15.23 12.76,15.25 12.87,15.27 12.96,15.32 13.06,15.37 13.13,15.44 13.20,15.52 13.25,15.62 13.29,15.71 13.31,15.82 13.32,15.92 13.30,16.03 13.27,16.13 13.27,16.13 13.27,16.13 12.50,18.36 11.72,20.58 10.36,22.51 8.99,24.43 7.48,25.45 5.97,26.46 3.64,27.20 1.32,27.94 -1.11,27.53 -3.54,27.11 -5.60,25.62 -7.65,24.13 -8.80,21.95 -9.96,19.77 -10.68,16.72 -11.39,13.68 -11.24,10.84 -11.08,8.00 -10.25,5.60 -9.43,3.20 -7.96,1.42 -6.50,-0.35 -4.72,-1.03 -2.94,-1.70 -1.42,-1.27 0.10,-0.83 0.20,-0.81 0.30,-0.78 0.39,-0.73 0.48,-0.69 0.55,-0.62 0.63,-0.55 0.69,-0.47 0.74,-0.38 0.78,-0.29 0.81,-0.19 0.83,-0.09 0.84,0.00 0.83,0.10 0.81,0.20 0.78,0.29 0.74,0.39 0.68,0.47 0.62,0.56 0.55,0.62 0.47,0.69 0.38,0.74 0.29,0.78 0.19,0.81 0.09,0.83 -0.00,0.83 -0.10,0.83 -0.10,0.83 L -0.10,0.83 Z"></path></g><g transform="translate(574.8407819375345 326.70244324636576) rotate(0 8.141847925913055 -7.1648261748035225)" stroke="none"><path fill="#343a40" d="M -0.61,-0.46 Q -0.61,-0.46 -0.22,-1.33 0.17,-2.21 1.11,-3.52 2.04,-4.83 2.92,-6.45 3.79,-8.06 4.31,-9.44 4.83,-10.82 5.05,-11.62 5.26,-12.43 4.62,-13.69 3.97,-14.95 3.09,-15.49 2.21,-16.03 1.31,-15.92 0.42,-15.81 -0.27,-15.04 -0.96,-14.26 -1.78,-12.63 -2.60,-11.00 -2.94,-8.97 -3.28,-6.94 -3.26,-5.22 -3.25,-3.50 -2.74,-2.07 -2.24,-0.64 -1.31,0.29 -0.39,1.22 0.96,1.53 2.31,1.84 3.93,1.32 5.56,0.80 7.75,-0.26 9.95,-1.33 11.95,-2.82 13.94,-4.31 15.52,-5.96 17.10,-7.61 18.19,-9.27 19.29,-10.94 20.33,-13.12 21.38,-15.31 21.42,-15.40 21.47,-15.50 21.54,-15.58 21.61,-15.66 21.70,-15.71 21.79,-15.76 21.90,-15.78 22.00,-15.80 22.11,-15.79 22.21,-15.77 22.31,-15.72 22.40,-15.68 22.48,-15.60 22.55,-15.53 22.60,-15.43 22.65,-15.33 22.66,-15.23 22.67,-15.12 22.65,-15.02 22.63,-14.92 22.58,-14.82 22.53,-14.73 22.45,-14.66 22.37,-14.59 22.27,-14.55 22.17,-14.51 22.07,-14.50 21.96,-14.49 21.86,-14.52 21.76,-14.54 21.67,-14.60 21.58,-14.66 21.51,-14.74 21.45,-14.82 21.41,-14.92 21.37,-15.02 21.37,-15.13 21.37,-15.24 21.40,-15.34 21.43,-15.44 21.49,-15.53 21.56,-15.61 21.64,-15.67 21.73,-15.73 21.83,-15.77 21.93,-15.80 22.04,-15.79 22.15,-15.79 22.24,-15.75 22.34,-15.71 22.43,-15.65 22.51,-15.58 22.57,-15.49 22.62,-15.40 22.65,-15.30 22.67,-15.19 22.66,-15.09 22.65,-14.98 22.65,-14.98 22.65,-14.98 22.23,-12.25 21.81,-9.51 20.74,-7.39 19.68,-5.27 17.94,-3.30 16.21,-1.33 13.93,0.40 11.66,2.14 9.09,3.38 6.52,4.62 3.98,5.13 1.45,5.63 -0.81,4.83 -3.07,4.03 -4.50,2.35 -5.92,0.68 -6.53,-1.38 -7.15,-3.45 -7.13,-5.56 -7.10,-7.67 -6.54,-10.25 -5.97,-12.82 -4.67,-14.98 -3.36,-17.13 -1.70,-18.22 -0.04,-19.30 1.95,-19.15 3.96,-19.01 5.49,-17.70 7.03,-16.39 7.66,-14.18 8.30,-11.98 8.00,-10.80 7.70,-9.63 7.01,-8.10 6.32,-6.57 5.23,-4.87 4.15,-3.18 3.11,-1.98 2.07,-0.78 1.34,-0.16 0.61,0.46 0.54,0.52 0.48,0.59 0.40,0.64 0.32,0.69 0.24,0.72 0.15,0.75 0.06,0.75 -0.03,0.76 -0.12,0.75 -0.21,0.73 -0.29,0.70 -0.38,0.66 -0.45,0.60 -0.53,0.55 -0.58,0.48 -0.64,0.41 -0.68,0.32 -0.72,0.24 -0.74,0.15 -0.76,0.06 -0.76,-0.03 -0.75,-0.12 -0.73,-0.21 -0.70,-0.30 -0.65,-0.38 -0.61,-0.46 -0.61,-0.46 L -0.61,-0.46 Z"></path></g><g transform="translate(122.8053850908396 240.7245291487235) rotate(0 6.513478340730472 -6.513478340730472)" stroke="none"><path fill="#f08c00" d="M 0.49,-0.55 Q 0.49,-0.55 2.40,0.68 4.31,1.93 5.85,3.52 7.39,5.12 8.81,6.73 10.23,8.33 11.38,9.53 12.54,10.72 13.31,11.82 14.08,12.91 13.93,12.79 13.78,12.67 13.90,12.84 14.03,13.01 14.11,13.21 14.19,13.40 14.22,13.61 14.25,13.82 14.23,14.03 14.21,14.24 14.14,14.44 14.08,14.64 13.96,14.82 13.85,15.00 13.69,15.14 13.54,15.29 13.35,15.39 13.17,15.49 12.97,15.55 12.76,15.61 12.55,15.61 12.34,15.62 12.14,15.57 11.93,15.53 11.74,15.44 11.55,15.35 11.39,15.21 11.23,15.07 9.98,14.68 8.74,14.28 7.09,12.94 5.44,11.59 3.38,8.66 1.31,5.73 0.19,2.26 -0.91,-1.20 -1.19,-4.28 -1.46,-7.36 -0.58,-10.92 0.29,-14.48 1.27,-17.07 2.25,-19.67 3.77,-21.63 5.29,-23.59 6.97,-25.24 8.64,-26.89 8.71,-26.97 8.79,-27.04 8.88,-27.09 8.98,-27.14 9.08,-27.15 9.19,-27.17 9.29,-27.15 9.40,-27.13 9.49,-27.08 9.58,-27.03 9.65,-26.95 9.73,-26.87 9.77,-26.78 9.81,-26.68 9.82,-26.57 9.83,-26.47 9.81,-26.36 9.78,-26.26 9.73,-26.17 9.67,-26.08 9.59,-26.01 9.50,-25.94 9.41,-25.91 9.31,-25.87 9.20,-25.87 9.09,-25.86 8.99,-25.89 8.89,-25.92 8.80,-25.98 8.72,-26.04 8.65,-26.13 8.59,-26.22 8.56,-26.32 8.53,-26.42 8.53,-26.52 8.53,-26.63 8.57,-26.73 8.60,-26.83 8.67,-26.91 8.73,-27.00 8.82,-27.06 8.91,-27.11 9.01,-27.14 9.12,-27.17 9.22,-27.16 9.33,-27.15 9.43,-27.11 9.52,-27.07 9.60,-27.00 9.68,-26.93 9.74,-26.84 9.79,-26.75 9.81,-26.64 9.83,-26.54 9.82,-26.43 9.81,-26.33 9.76,-26.23 9.71,-26.14 9.71,-26.14 9.71,-26.14 8.71,-23.98 7.71,-21.83 6.58,-20.15 5.45,-18.47 4.60,-16.03 3.74,-13.59 2.95,-10.59 2.16,-7.59 2.36,-4.93 2.56,-2.26 3.44,0.72 4.32,3.71 6.06,6.29 7.81,8.88 8.97,9.94 10.12,10.99 11.95,11.83 13.78,12.67 13.90,12.84 14.03,13.01 14.11,13.21 14.19,13.40 14.22,13.61 14.25,13.82 14.23,14.03 14.21,14.24 14.14,14.44 14.08,14.64 13.96,14.82 13.85,15.00 13.69,15.14 13.54,15.29 13.35,15.39 13.17,15.49 12.97,15.55 12.76,15.61 12.55,15.61 12.34,15.62 12.14,15.57 11.93,15.53 11.74,15.44 11.55,15.35 11.39,15.21 11.23,15.08 11.25,14.35 11.27,13.62 10.70,13.28 10.12,12.95 8.99,11.66 7.85,10.36 6.53,8.76 5.21,7.15 3.81,5.60 2.42,4.05 0.96,2.30 -0.49,0.55 -0.55,0.48 -0.61,0.42 -0.65,0.34 -0.69,0.26 -0.71,0.17 -0.73,0.08 -0.73,-0.00 -0.73,-0.09 -0.71,-0.17 -0.69,-0.26 -0.65,-0.34 -0.61,-0.42 -0.55,-0.49 -0.49,-0.55 -0.41,-0.60 -0.34,-0.65 -0.26,-0.69 -0.17,-0.72 -0.08,-0.73 0.00,-0.74 0.09,-0.73 0.17,-0.72 0.26,-0.68 0.34,-0.65 0.42,-0.60 0.49,-0.55 0.49,-0.55 L 0.49,-0.55 Z"></path></g><g transform="translate(150.16199412190758 220.53274629245902) rotate(0 5.5364565896209115 10.421565345168744)" stroke="none"><path fill="#f08c00" d="M -0.27,0.69 Q -0.27,0.69 -1.27,0.52 -2.27,0.35 -3.38,0.54 -4.49,0.73 -5.36,1.10 -6.23,1.47 -6.94,2.37 -7.65,3.27 -7.90,4.91 -8.14,6.55 -7.93,8.64 -7.72,10.73 -6.94,12.81 -6.16,14.89 -5.00,16.40 -3.85,17.91 -2.61,18.64 -1.37,19.36 -0.34,19.49 0.68,19.61 1.39,19.26 2.10,18.91 2.47,18.07 2.83,17.24 2.83,15.77 2.83,14.30 2.50,12.79 2.17,11.29 1.32,9.43 0.46,7.57 -0.46,6.00 -1.38,4.44 -1.42,4.00 -1.45,3.56 -1.54,3.37 -1.62,3.17 -1.65,2.97 -1.69,2.76 -1.67,2.55 -1.66,2.35 -1.59,2.15 -1.53,1.95 -1.42,1.77 -1.30,1.60 -1.15,1.45 -1.00,1.31 -0.82,1.20 -0.64,1.09 -0.44,1.04 -0.24,0.98 -0.03,0.97 0.16,0.96 0.37,1.00 0.57,1.04 0.76,1.13 0.95,1.22 1.11,1.35 1.28,1.48 1.40,1.65 1.53,1.81 3.44,3.19 5.35,4.57 6.88,5.62 8.41,6.67 10.24,7.43 12.06,8.18 13.58,8.29 15.10,8.41 16.35,8.14 17.61,7.87 18.42,7.48 19.24,7.09 19.42,6.01 19.60,4.92 19.59,4.82 19.58,4.71 19.61,4.61 19.64,4.51 19.70,4.42 19.76,4.33 19.85,4.27 19.93,4.20 20.03,4.17 20.13,4.14 20.24,4.14 20.34,4.14 20.44,4.17 20.55,4.20 20.63,4.27 20.71,4.33 20.77,4.42 20.83,4.51 20.86,4.61 20.89,4.71 20.88,4.82 20.88,4.93 20.84,5.02 20.80,5.12 20.73,5.20 20.66,5.28 20.57,5.34 20.48,5.39 20.38,5.42 20.27,5.44 20.17,5.43 20.06,5.42 19.96,5.37 19.87,5.33 19.79,5.25 19.71,5.18 19.66,5.09 19.61,4.99 19.60,4.89 19.58,4.78 19.60,4.68 19.62,4.57 19.66,4.48 19.71,4.39 19.79,4.31 19.87,4.24 19.97,4.20 20.06,4.15 20.17,4.14 20.27,4.13 20.38,4.15 20.48,4.17 20.57,4.23 20.66,4.28 20.73,4.36 20.80,4.45 20.84,4.54 20.88,4.64 20.88,4.64 20.88,4.64 21.47,6.57 22.05,8.51 21.40,9.26 20.74,10.02 19.53,10.63 18.31,11.25 16.56,11.58 14.80,11.92 12.76,11.69 10.72,11.47 8.56,10.53 6.41,9.60 4.75,8.45 3.10,7.30 1.65,6.08 0.20,4.86 -0.62,4.21 -1.45,3.56 -1.54,3.37 -1.62,3.17 -1.65,2.97 -1.69,2.76 -1.67,2.55 -1.66,2.35 -1.59,2.15 -1.53,1.95 -1.42,1.77 -1.30,1.60 -1.15,1.45 -1.00,1.31 -0.82,1.20 -0.64,1.09 -0.44,1.04 -0.24,0.98 -0.03,0.97 0.16,0.96 0.37,1.00 0.57,1.04 0.76,1.13 0.95,1.22 1.11,1.35 1.28,1.48 1.40,1.65 1.53,1.81 1.54,2.37 1.56,2.92 2.51,4.59 3.46,6.25 4.39,8.45 5.31,10.66 5.65,12.55 5.98,14.45 5.78,16.57 5.58,18.68 4.60,20.13 3.61,21.57 2.03,22.17 0.45,22.76 -1.27,22.48 -3.00,22.19 -4.73,21.08 -6.46,19.96 -7.89,18.02 -9.31,16.07 -10.19,13.55 -11.06,11.02 -11.22,8.44 -11.39,5.86 -10.74,3.57 -10.10,1.28 -8.73,-0.01 -7.36,-1.31 -5.97,-1.72 -4.59,-2.12 -3.03,-1.99 -1.46,-1.85 -0.59,-1.27 0.27,-0.69 0.35,-0.65 0.43,-0.60 0.50,-0.54 0.56,-0.48 0.61,-0.41 0.66,-0.33 0.69,-0.25 0.73,-0.16 0.73,-0.07 0.74,0.01 0.73,0.10 0.72,0.19 0.69,0.27 0.65,0.35 0.60,0.43 0.55,0.50 0.48,0.56 0.41,0.62 0.33,0.66 0.25,0.70 0.16,0.72 0.07,0.74 -0.01,0.74 -0.10,0.74 -0.19,0.71 -0.27,0.69 -0.27,0.69 L -0.27,0.69 Z"></path></g><g transform="translate(157.97816813078416 210.11118094729028) rotate(0 18.563413271081842 11.072913179241795)" stroke="none"><path fill="#f08c00" d="M 0.66,0.33 Q 0.66,0.33 0.80,0.41 0.94,0.49 1.79,1.20 2.64,1.91 4.10,3.43 5.55,4.94 7.38,6.26 9.21,7.57 11.04,8.48 12.86,9.38 14.07,9.74 15.29,10.11 15.96,9.96 16.63,9.82 16.63,8.15 16.62,6.47 15.86,4.30 15.11,2.13 14.03,-0.29 12.96,-2.73 11.93,-4.89 10.91,-7.05 10.27,-8.35 9.64,-9.65 9.57,-9.87 9.51,-10.08 9.49,-10.30 9.47,-10.53 9.51,-10.75 9.55,-10.97 9.64,-11.18 9.73,-11.38 9.86,-11.56 10.00,-11.74 10.17,-11.88 10.35,-12.02 10.55,-12.12 10.76,-12.21 10.98,-12.26 11.20,-12.30 11.42,-12.29 11.65,-12.28 11.86,-12.21 12.08,-12.15 12.27,-12.04 12.47,-11.92 12.63,-11.77 12.79,-11.61 12.91,-11.42 13.03,-11.23 12.64,-11.71 12.26,-12.20 13.78,-11.08 15.31,-9.96 18.09,-6.87 20.87,-3.77 23.52,-0.81 26.17,2.15 28.85,5.72 31.53,9.29 34.01,13.07 36.49,16.85 37.79,19.71 39.10,22.57 39.29,25.31 39.49,28.04 38.21,30.14 36.94,32.23 34.41,33.37 31.89,34.50 29.34,35.09 26.79,35.67 24.72,35.88 22.65,36.10 20.94,35.88 19.24,35.65 18.07,34.47 16.90,33.29 16.76,31.45 16.62,29.62 16.90,27.60 17.19,25.59 17.91,23.29 18.63,21.00 18.68,20.90 18.72,20.81 18.79,20.73 18.87,20.65 18.96,20.60 19.05,20.55 19.16,20.53 19.26,20.52 19.37,20.53 19.47,20.55 19.57,20.60 19.66,20.65 19.73,20.73 19.81,20.80 19.85,20.90 19.90,20.99 19.91,21.10 19.92,21.21 19.90,21.31 19.88,21.41 19.82,21.50 19.77,21.60 19.69,21.66 19.61,21.73 19.51,21.77 19.41,21.81 19.30,21.82 19.20,21.83 19.10,21.80 18.99,21.77 18.91,21.71 18.82,21.65 18.75,21.57 18.69,21.48 18.65,21.38 18.62,21.28 18.62,21.18 18.62,21.07 18.65,20.97 18.68,20.87 18.75,20.78 18.81,20.70 18.90,20.64 18.99,20.58 19.09,20.55 19.19,20.52 19.30,20.53 19.40,20.53 19.50,20.57 19.60,20.61 19.68,20.68 19.77,20.75 19.82,20.84 19.88,20.93 19.90,21.03 19.92,21.13 19.91,21.24 19.90,21.35 19.90,21.35 19.90,21.35 19.40,23.53 18.91,25.71 18.94,27.55 18.97,29.39 19.12,30.47 19.26,31.56 19.66,31.95 20.05,32.34 21.13,32.30 22.21,32.25 24.06,32.01 25.91,31.76 28.17,31.26 30.43,30.75 32.18,30.22 33.94,29.68 34.79,28.71 35.63,27.75 35.54,25.93 35.45,24.11 34.32,21.55 33.19,18.98 30.82,15.29 28.45,11.59 25.88,8.14 23.32,4.69 20.68,1.72 18.03,-1.24 15.42,-4.19 12.80,-7.13 12.20,-7.89 11.60,-8.65 10.62,-9.15 9.64,-9.65 9.57,-9.86 9.51,-10.08 9.49,-10.30 9.47,-10.53 9.51,-10.75 9.55,-10.97 9.64,-11.18 9.73,-11.38 9.86,-11.56 10.00,-11.74 10.17,-11.88 10.35,-12.02 10.55,-12.12 10.76,-12.21 10.98,-12.26 11.20,-12.30 11.42,-12.29 11.65,-12.28 11.86,-12.21 12.08,-12.15 12.27,-12.04 12.47,-11.92 12.63,-11.77 12.79,-11.61 12.91,-11.42 13.03,-11.23 13.64,-9.92 14.25,-8.61 15.27,-6.38 16.28,-4.16 17.38,-1.56 18.47,1.02 19.29,3.64 20.10,6.26 20.04,8.37 19.97,10.48 18.85,11.69 17.73,12.90 16.10,13.15 14.46,13.40 12.89,12.93 11.33,12.46 9.25,11.41 7.18,10.35 5.12,8.82 3.06,7.29 1.54,5.62 0.02,3.96 -0.83,2.48 -1.69,1.00 -1.17,0.33 -0.66,-0.33 -0.61,-0.40 -0.56,-0.48 -0.50,-0.54 -0.43,-0.60 -0.35,-0.64 -0.27,-0.68 -0.19,-0.71 -0.10,-0.73 -0.01,-0.73 0.07,-0.73 0.16,-0.71 0.24,-0.70 0.33,-0.66 0.41,-0.62 0.47,-0.56 0.54,-0.50 0.59,-0.43 0.65,-0.35 0.68,-0.27 0.71,-0.19 0.73,-0.10 0.74,-0.01 0.73,0.07 0.72,0.16 0.69,0.24 0.66,0.33 0.66,0.33 L 0.66,0.33 Z"></path></g><g transform="translate(182.0780379914869 197.08422426582933) rotate(0 3.5824130874017754 4.885108755547833)" stroke="none"><path fill="#f08c00" d="M 0.74,-0.18 Q 0.74,-0.18 1.42,1.21 2.10,2.61 2.92,3.53 3.74,4.46 5.47,5.52 7.20,6.57 8.55,7.01 9.89,7.44 10.87,7.30 11.84,7.16 12.38,6.41 12.92,5.66 12.95,4.93 12.99,4.20 12.39,3.24 11.79,2.27 10.24,1.24 8.70,0.20 7.03,-0.42 5.36,-1.04 3.57,-1.11 1.78,-1.17 0.19,-0.39 -1.39,0.38 -2.55,1.79 -3.70,3.21 -4.69,4.67 -5.68,6.14 -6.23,7.51 -6.77,8.88 -6.18,10.88 -5.59,12.87 -5.55,12.97 -5.51,13.06 -5.50,13.17 -5.49,13.27 -5.52,13.38 -5.54,13.48 -5.60,13.57 -5.66,13.66 -5.74,13.73 -5.82,13.79 -5.92,13.83 -6.02,13.86 -6.13,13.87 -6.24,13.87 -6.34,13.84 -6.44,13.81 -6.52,13.74 -6.61,13.68 -6.67,13.60 -6.73,13.51 -6.77,13.41 -6.80,13.31 -6.79,13.20 -6.79,13.09 -6.75,12.99 -6.72,12.89 -6.65,12.81 -6.58,12.73 -6.49,12.67 -6.40,12.62 -6.30,12.59 -6.20,12.57 -6.09,12.57 -5.98,12.58 -5.89,12.63 -5.79,12.67 -5.71,12.74 -5.63,12.81 -5.58,12.90 -5.53,13.00 -5.51,13.10 -5.49,13.20 -5.50,13.31 -5.52,13.41 -5.57,13.51 -5.61,13.60 -5.69,13.68 -5.76,13.75 -5.86,13.80 -5.95,13.85 -6.06,13.86 -6.17,13.88 -6.27,13.86 -6.37,13.84 -6.47,13.78 -6.56,13.73 -6.63,13.65 -6.70,13.57 -6.70,13.57 -6.70,13.57 -7.81,10.99 -8.92,8.41 -8.64,6.50 -8.35,4.60 -7.39,2.76 -6.42,0.92 -4.73,-1.02 -3.05,-2.97 -0.60,-3.95 1.84,-4.93 4.27,-4.72 6.70,-4.50 8.79,-3.60 10.87,-2.69 12.88,-1.01 14.88,0.66 15.59,2.56 16.30,4.47 15.88,6.09 15.46,7.71 14.05,8.95 12.65,10.20 10.81,10.35 8.97,10.51 7.21,9.87 5.46,9.24 3.42,7.78 1.38,6.32 0.38,4.85 -0.60,3.38 -0.67,1.78 -0.74,0.18 -0.75,0.09 -0.76,0.00 -0.75,-0.08 -0.74,-0.18 -0.71,-0.26 -0.68,-0.35 -0.62,-0.43 -0.57,-0.50 -0.50,-0.56 -0.43,-0.62 -0.35,-0.67 -0.27,-0.71 -0.18,-0.73 -0.09,-0.76 -0.00,-0.76 0.08,-0.76 0.17,-0.74 0.26,-0.71 0.35,-0.67 0.43,-0.63 0.50,-0.57 0.57,-0.51 0.62,-0.43 0.67,-0.35 0.71,-0.27 0.74,-0.18 0.74,-0.18 L 0.74,-0.18 Z"></path></g><g transform="translate(656.2592611966654 187.96535458880663) rotate(0 13.352630598497512 -3.908087004438272)" stroke="none"><path fill="#f08c00" d="M 0.19,-0.78 Q 0.19,-0.78 1.05,-0.89 1.91,-0.99 4.04,0.66 6.17,2.32 7.92,3.93 9.67,5.54 11.24,7.41 12.81,9.28 14.13,10.52 15.46,11.76 16.14,12.60 16.81,13.44 16.89,13.55 16.97,13.67 17.08,13.85 17.20,14.04 17.26,14.25 17.33,14.46 17.34,14.68 17.35,14.90 17.31,15.11 17.27,15.33 17.18,15.53 17.09,15.73 16.95,15.90 16.82,16.07 16.64,16.20 16.47,16.34 16.27,16.43 16.07,16.52 15.86,16.56 15.64,16.59 15.42,16.58 15.20,16.57 14.99,16.50 14.78,16.43 14.60,16.32 14.41,16.21 14.26,16.05 14.10,15.90 13.46,15.31 12.82,14.72 11.48,13.02 10.14,11.31 8.62,8.87 7.10,6.42 5.85,3.62 4.61,0.81 3.88,-1.39 3.16,-3.61 3.59,-6.59 4.02,-9.58 5.26,-11.89 6.49,-14.19 8.28,-15.98 10.06,-17.76 12.09,-18.86 14.13,-19.96 16.17,-20.66 18.22,-21.36 20.03,-21.94 21.84,-22.53 23.74,-23.14 25.65,-23.75 25.75,-23.77 25.86,-23.79 25.96,-23.78 26.07,-23.76 26.16,-23.72 26.26,-23.67 26.34,-23.60 26.41,-23.52 26.46,-23.43 26.51,-23.33 26.52,-23.23 26.54,-23.12 26.52,-23.02 26.50,-22.91 26.45,-22.82 26.40,-22.73 26.32,-22.65 26.24,-22.58 26.15,-22.54 26.05,-22.50 25.94,-22.49 25.84,-22.48 25.73,-22.50 25.63,-22.53 25.54,-22.58 25.45,-22.64 25.38,-22.72 25.31,-22.80 25.28,-22.90 25.24,-23.00 25.24,-23.11 25.23,-23.21 25.26,-23.32 25.29,-23.42 25.35,-23.50 25.41,-23.59 25.50,-23.65 25.58,-23.72 25.69,-23.75 25.79,-23.78 25.89,-23.78 26.00,-23.78 26.10,-23.74 26.20,-23.71 26.28,-23.64 26.37,-23.58 26.42,-23.49 26.48,-23.40 26.51,-23.30 26.54,-23.19 26.53,-23.09 26.52,-22.98 26.48,-22.88 26.44,-22.78 26.37,-22.71 26.30,-22.63 26.21,-22.57 26.12,-22.52 26.12,-22.52 26.12,-22.52 24.31,-21.72 22.51,-20.92 20.84,-20.05 19.17,-19.18 17.44,-18.23 15.70,-17.28 14.12,-16.26 12.55,-15.24 11.12,-13.80 9.70,-12.37 8.67,-10.62 7.65,-8.87 7.17,-6.71 6.69,-4.56 7.35,-2.62 8.00,-0.67 9.13,1.90 10.25,4.48 11.66,6.77 13.06,9.06 14.21,10.56 15.36,12.07 16.17,12.87 16.97,13.66 17.08,13.85 17.20,14.04 17.26,14.25 17.33,14.46 17.34,14.68 17.35,14.90 17.31,15.11 17.27,15.33 17.18,15.53 17.09,15.73 16.95,15.90 16.82,16.07 16.64,16.20 16.47,16.34 16.27,16.43 16.07,16.52 15.86,16.56 15.64,16.59 15.42,16.58 15.20,16.57 14.99,16.50 14.78,16.43 14.60,16.32 14.41,16.21 14.26,16.05 14.10,15.90 14.06,15.74 14.02,15.59 13.52,14.93 13.03,14.26 11.60,12.85 10.18,11.43 8.79,9.68 7.41,7.94 5.75,6.33 4.08,4.73 2.58,3.23 1.08,1.74 0.44,1.26 -0.19,0.78 -0.28,0.75 -0.38,0.71 -0.46,0.66 -0.54,0.60 -0.60,0.53 -0.67,0.45 -0.71,0.37 -0.76,0.28 -0.78,0.19 -0.80,0.09 -0.80,-0.00 -0.80,-0.10 -0.78,-0.19 -0.75,-0.29 -0.71,-0.37 -0.66,-0.46 -0.60,-0.53 -0.53,-0.61 -0.45,-0.66 -0.37,-0.72 -0.28,-0.75 -0.19,-0.78 -0.09,-0.80 0.00,-0.81 0.09,-0.80 0.19,-0.78 0.19,-0.78 L 0.19,-0.78 Z"></path></g><g transform="translate(699.8995660795597 157.35200638737342) rotate(0 3.582413087401733 11.398587096278334)" stroke="none"><path fill="#f08c00" d="M 0.11,0.78 Q 0.11,0.78 -1.14,1.30 -2.39,1.83 -3.67,2.47 -4.95,3.11 -5.91,4.00 -6.86,4.90 -7.51,6.74 -8.16,8.57 -8.28,10.53 -8.39,12.48 -7.95,14.25 -7.51,16.02 -6.54,17.16 -5.58,18.29 -4.38,19.13 -3.19,19.97 -2.22,20.13 -1.26,20.29 -0.73,19.94 -0.20,19.59 0.10,18.93 0.41,18.27 0.36,17.25 0.31,16.24 -0.05,14.74 -0.41,13.24 -0.94,11.68 -1.48,10.11 -1.89,9.09 -2.30,8.07 -2.49,7.80 -2.68,7.53 -2.73,7.33 -2.78,7.12 -2.78,6.91 -2.78,6.70 -2.73,6.49 -2.68,6.29 -2.58,6.10 -2.49,5.91 -2.35,5.75 -2.21,5.59 -2.03,5.47 -1.86,5.35 -1.66,5.28 -1.46,5.20 -1.25,5.18 -1.04,5.15 -0.83,5.18 -0.62,5.20 -0.42,5.28 -0.22,5.35 -0.05,5.47 0.11,5.59 0.25,5.75 0.39,5.91 0.49,6.10 0.59,6.29 1.40,7.80 2.20,9.31 3.45,10.92 4.70,12.53 6.31,14.13 7.92,15.73 9.33,16.97 10.74,18.22 12.16,19.06 13.57,19.90 14.44,20.25 15.30,20.60 15.82,20.76 16.34,20.92 16.87,19.79 17.40,18.67 17.45,18.57 17.50,18.48 17.57,18.41 17.65,18.33 17.75,18.29 17.84,18.24 17.95,18.23 18.05,18.22 18.16,18.24 18.26,18.26 18.35,18.32 18.44,18.37 18.51,18.45 18.58,18.53 18.62,18.63 18.66,18.73 18.67,18.83 18.68,18.94 18.65,19.04 18.62,19.14 18.56,19.23 18.50,19.32 18.42,19.39 18.33,19.45 18.23,19.49 18.13,19.52 18.03,19.52 17.92,19.52 17.82,19.49 17.72,19.46 17.63,19.39 17.55,19.33 17.49,19.24 17.43,19.15 17.40,19.05 17.37,18.95 17.38,18.84 17.38,18.74 17.42,18.64 17.46,18.54 17.53,18.46 17.59,18.38 17.68,18.32 17.77,18.27 17.88,18.24 17.98,18.22 18.09,18.23 18.19,18.24 18.29,18.28 18.39,18.33 18.46,18.40 18.54,18.47 18.59,18.57 18.64,18.66 18.66,18.76 18.68,18.87 18.66,18.97 18.65,19.08 18.65,19.08 18.65,19.08 18.22,20.86 17.80,22.64 17.14,23.07 16.49,23.51 15.34,23.67 14.19,23.83 12.98,23.40 11.77,22.96 10.06,21.97 8.35,20.97 6.83,19.65 5.31,18.33 3.53,16.53 1.76,14.73 0.33,12.77 -1.08,10.80 -1.51,9.80 -1.93,8.80 -2.31,8.17 -2.68,7.53 -2.73,7.33 -2.78,7.12 -2.78,6.91 -2.78,6.70 -2.73,6.49 -2.68,6.29 -2.58,6.10 -2.49,5.91 -2.35,5.75 -2.21,5.59 -2.03,5.47 -1.86,5.35 -1.66,5.28 -1.46,5.20 -1.25,5.18 -1.04,5.15 -0.83,5.18 -0.62,5.20 -0.42,5.28 -0.22,5.35 -0.05,5.47 0.11,5.59 0.25,5.75 0.39,5.91 0.49,6.10 0.59,6.29 0.75,6.56 0.91,6.83 1.31,7.97 1.72,9.10 2.23,10.85 2.74,12.59 3.07,14.48 3.40,16.36 3.22,18.03 3.04,19.69 2.17,20.92 1.30,22.15 -0.06,22.73 -1.43,23.30 -3.17,23.00 -4.91,22.69 -6.56,21.56 -8.21,20.43 -9.53,18.69 -10.84,16.95 -11.36,14.59 -11.88,12.24 -11.62,9.77 -11.36,7.30 -10.25,4.90 -9.13,2.49 -7.69,1.34 -6.25,0.19 -4.55,-0.44 -2.84,-1.08 -1.47,-0.93 -0.11,-0.78 -0.01,-0.78 0.07,-0.78 0.17,-0.76 0.26,-0.74 0.34,-0.70 0.43,-0.65 0.50,-0.59 0.57,-0.53 0.63,-0.45 0.69,-0.38 0.72,-0.29 0.76,-0.20 0.77,-0.11 0.78,-0.01 0.77,0.07 0.76,0.17 0.73,0.26 0.70,0.35 0.65,0.43 0.60,0.51 0.53,0.57 0.46,0.63 0.37,0.68 0.29,0.73 0.20,0.75 0.11,0.78 0.11,0.78 L 0.11,0.78 Z"></path></g><g transform="translate(712.9265227610206 156.04931071922732) rotate(0 13.026956681461002 14.003978432570506)" stroke="none"><path fill="#f08c00" d="M 0.71,-0.08 Q 0.71,-0.08 1.26,1.32 1.81,2.74 2.93,4.18 4.06,5.62 5.20,6.59 6.33,7.56 7.54,8.08 8.75,8.60 10.10,8.27 11.46,7.94 12.47,7.39 13.48,6.84 13.73,6.15 13.98,5.46 13.74,4.10 13.50,2.74 12.90,1.28 12.30,-0.16 11.50,-1.72 10.69,-3.27 10.29,-4.31 9.89,-5.35 9.93,-5.45 9.96,-5.56 9.91,-5.77 9.85,-5.98 9.85,-6.20 9.85,-6.42 9.90,-6.64 9.95,-6.85 10.05,-7.05 10.15,-7.24 10.29,-7.41 10.43,-7.58 10.61,-7.71 10.79,-7.83 11.00,-7.91 11.20,-7.99 11.42,-8.02 11.64,-8.05 11.86,-8.03 12.08,-8.01 12.28,-7.93 12.49,-7.86 12.67,-7.73 12.86,-7.61 13.00,-7.45 13.15,-7.28 13.26,-7.09 13.36,-6.90 13.79,-6.50 14.21,-6.09 15.59,-4.50 16.96,-2.91 18.76,-0.06 20.55,2.78 22.25,6.07 23.95,9.36 25.26,12.69 26.57,16.02 27.16,18.86 27.75,21.71 27.81,24.17 27.86,26.62 27.06,28.89 26.25,31.16 24.77,32.67 23.28,34.17 21.14,35.03 18.99,35.88 17.10,36.18 15.21,36.48 12.65,36.14 10.09,35.81 9.98,35.80 9.88,35.79 9.78,35.74 9.69,35.69 9.61,35.62 9.53,35.55 9.48,35.45 9.43,35.36 9.42,35.25 9.40,35.15 9.42,35.04 9.44,34.94 9.49,34.85 9.54,34.75 9.62,34.68 9.69,34.61 9.79,34.56 9.89,34.52 9.99,34.51 10.10,34.50 10.20,34.52 10.31,34.55 10.40,34.60 10.49,34.66 10.55,34.74 10.62,34.82 10.66,34.92 10.70,35.02 10.71,35.12 10.71,35.23 10.68,35.33 10.65,35.43 10.59,35.52 10.53,35.61 10.45,35.67 10.36,35.74 10.26,35.77 10.16,35.80 10.05,35.80 9.95,35.80 9.85,35.77 9.75,35.73 9.66,35.67 9.58,35.60 9.52,35.51 9.46,35.43 9.43,35.32 9.41,35.22 9.41,35.11 9.42,35.01 9.46,34.91 9.50,34.81 9.57,34.73 9.64,34.65 9.73,34.60 9.82,34.54 9.92,34.52 10.03,34.50 10.03,34.50 10.03,34.50 12.32,33.74 14.61,32.99 16.16,32.70 17.71,32.41 19.24,31.89 20.78,31.36 21.79,30.51 22.80,29.65 23.45,28.12 24.11,26.59 24.08,24.51 24.06,22.44 23.57,19.91 23.08,17.37 21.86,14.22 20.63,11.06 19.01,7.91 17.39,4.75 15.77,2.12 14.15,-0.50 12.79,-2.09 11.43,-3.69 10.70,-4.62 9.96,-5.56 9.91,-5.77 9.85,-5.98 9.85,-6.20 9.85,-6.42 9.90,-6.64 9.95,-6.85 10.05,-7.05 10.15,-7.24 10.29,-7.41 10.43,-7.58 10.61,-7.71 10.79,-7.83 11.00,-7.91 11.20,-7.99 11.42,-8.02 11.64,-8.05 11.86,-8.03 12.08,-8.01 12.28,-7.93 12.49,-7.86 12.67,-7.73 12.86,-7.61 13.00,-7.45 13.15,-7.28 13.26,-7.09 13.36,-6.90 13.32,-6.62 13.28,-6.35 13.58,-5.61 13.89,-4.87 14.73,-3.12 15.57,-1.37 16.22,0.53 16.86,2.43 16.90,4.58 16.94,6.72 16.08,8.10 15.22,9.49 13.62,10.30 12.02,11.11 9.88,11.34 7.73,11.57 6.00,10.76 4.26,9.95 2.88,8.68 1.49,7.40 0.21,5.32 -1.06,3.25 -0.89,1.67 -0.71,0.08 -0.71,0.00 -0.71,-0.08 -0.69,-0.16 -0.67,-0.25 -0.63,-0.33 -0.59,-0.40 -0.53,-0.47 -0.48,-0.53 -0.40,-0.58 -0.33,-0.63 -0.25,-0.66 -0.17,-0.69 -0.08,-0.71 -0.00,-0.72 0.08,-0.71 0.17,-0.70 0.25,-0.67 0.33,-0.63 0.40,-0.59 0.47,-0.54 0.53,-0.47 0.59,-0.41 0.63,-0.33 0.67,-0.25 0.69,-0.17 0.71,-0.08 0.71,-0.08 L 0.71,-0.08 Z"></path></g><g transform="translate(737.0263926217233 134.55483219481675) rotate(0 0.9770217511096462 11.724261013314845)" stroke="none"><path fill="#f08c00" d="M 0.53,0.53 Q 0.53,0.53 -0.01,1.41 -0.57,2.29 -0.66,3.29 -0.76,4.30 -0.27,6.42 0.21,8.54 1.12,10.50 2.03,12.47 3.10,13.97 4.17,15.48 5.58,16.34 7.00,17.21 8.44,17.76 9.88,18.32 11.32,18.17 12.77,18.02 13.70,17.37 14.63,16.71 14.88,16.07 15.12,15.43 14.53,13.96 13.94,12.49 12.69,10.42 11.44,8.34 9.41,6.88 7.37,5.42 5.18,4.64 2.98,3.86 0.41,3.90 -2.14,3.94 -4.31,4.96 -6.48,5.98 -8.06,7.54 -9.65,9.11 -10.98,10.94 -12.32,12.76 -12.98,14.32 -13.64,15.88 -13.63,17.58 -13.63,19.28 -13.41,20.92 -13.18,22.57 -13.18,22.68 -13.17,22.78 -13.20,22.88 -13.23,22.99 -13.29,23.07 -13.36,23.16 -13.44,23.22 -13.53,23.29 -13.63,23.32 -13.73,23.35 -13.83,23.35 -13.94,23.35 -14.04,23.31 -14.14,23.28 -14.23,23.21 -14.31,23.15 -14.37,23.06 -14.43,22.97 -14.45,22.87 -14.48,22.76 -14.47,22.66 -14.47,22.55 -14.43,22.45 -14.38,22.36 -14.31,22.28 -14.24,22.20 -14.15,22.14 -14.06,22.09 -13.96,22.07 -13.85,22.05 -13.75,22.06 -13.64,22.07 -13.55,22.12 -13.45,22.16 -13.37,22.24 -13.30,22.31 -13.25,22.41 -13.20,22.50 -13.19,22.61 -13.17,22.71 -13.19,22.82 -13.21,22.92 -13.26,23.01 -13.31,23.11 -13.39,23.18 -13.47,23.25 -13.56,23.29 -13.66,23.34 -13.76,23.35 -13.87,23.36 -13.97,23.33 -14.08,23.31 -14.17,23.25 -14.26,23.20 -14.33,23.11 -14.39,23.03 -14.43,22.93 -14.47,22.83 -14.47,22.83 -14.47,22.83 -14.94,21.12 -15.41,19.40 -15.67,17.31 -15.93,15.22 -15.45,13.15 -14.97,11.07 -13.63,8.76 -12.28,6.44 -10.20,4.44 -8.12,2.44 -5.19,1.23 -2.25,0.02 1.01,0.09 4.28,0.17 6.99,1.25 9.70,2.32 12.18,4.34 14.66,6.36 16.09,8.94 17.51,11.53 17.94,13.98 18.37,16.43 17.48,17.96 16.59,19.49 14.86,20.42 13.13,21.35 10.95,21.40 8.77,21.45 6.97,20.71 5.17,19.97 3.36,18.67 1.55,17.38 0.34,15.56 -0.87,13.74 -1.82,11.42 -2.77,9.09 -3.14,6.40 -3.50,3.71 -2.96,2.20 -2.42,0.70 -1.47,0.08 -0.53,-0.53 -0.46,-0.59 -0.39,-0.64 -0.30,-0.68 -0.22,-0.72 -0.13,-0.73 -0.04,-0.75 0.04,-0.74 0.13,-0.74 0.22,-0.71 0.31,-0.68 0.38,-0.64 0.46,-0.59 0.53,-0.53 0.59,-0.46 0.64,-0.38 0.68,-0.31 0.71,-0.22 0.74,-0.13 0.74,-0.04 0.75,0.04 0.73,0.13 0.72,0.22 0.68,0.30 0.64,0.39 0.59,0.46 0.53,0.53 0.53,0.53 L 0.53,0.53 Z"></path></g><g transform="translate(451.08469346365547 224.44083329689732) rotate(0 9.118869677022673 -24.099869860702768)" stroke="none"><path fill="#a5d8ff" d="M -0.69,-0.11 Q -0.69,-0.11 -0.93,-1.31 -1.16,-2.50 -0.35,-5.00 0.44,-7.50 1.70,-10.96 2.96,-14.43 4.45,-17.81 5.93,-21.20 7.69,-24.73 9.44,-28.25 11.14,-31.27 12.83,-34.29 13.90,-36.76 14.97,-39.23 15.68,-40.98 16.40,-42.73 16.63,-44.04 16.85,-45.35 16.69,-46.80 16.52,-48.24 16.48,-48.34 16.44,-48.44 16.44,-48.55 16.44,-48.66 16.47,-48.76 16.50,-48.86 16.56,-48.95 16.62,-49.03 16.71,-49.10 16.79,-49.16 16.89,-49.19 16.99,-49.22 17.10,-49.22 17.21,-49.22 17.31,-49.18 17.41,-49.15 17.49,-49.08 17.57,-49.01 17.63,-48.93 17.69,-48.84 17.72,-48.73 17.74,-48.63 17.73,-48.52 17.73,-48.42 17.68,-48.32 17.64,-48.22 17.57,-48.14 17.50,-48.06 17.41,-48.01 17.32,-47.96 17.21,-47.94 17.11,-47.92 17.00,-47.93 16.90,-47.94 16.80,-47.99 16.71,-48.04 16.63,-48.11 16.56,-48.19 16.51,-48.28 16.46,-48.37 16.45,-48.48 16.43,-48.59 16.45,-48.69 16.47,-48.79 16.52,-48.89 16.57,-48.98 16.65,-49.05 16.73,-49.12 16.83,-49.17 16.92,-49.21 17.03,-49.22 17.14,-49.23 17.24,-49.20 17.34,-49.18 17.43,-49.12 17.52,-49.06 17.59,-48.98 17.66,-48.90 17.66,-48.90 17.66,-48.90 18.50,-47.06 19.35,-45.21 19.40,-43.45 19.45,-41.69 18.86,-39.76 18.28,-37.82 17.17,-35.14 16.06,-32.46 14.39,-29.53 12.72,-26.60 10.96,-23.17 9.21,-19.74 7.73,-16.47 6.25,-13.19 4.93,-9.79 3.61,-6.38 2.76,-4.18 1.91,-1.98 1.30,-0.93 0.69,0.11 0.67,0.19 0.65,0.28 0.60,0.35 0.56,0.42 0.50,0.48 0.44,0.55 0.37,0.59 0.30,0.64 0.22,0.66 0.13,0.69 0.05,0.70 -0.03,0.70 -0.11,0.69 -0.19,0.67 -0.27,0.64 -0.35,0.61 -0.42,0.56 -0.49,0.50 -0.54,0.44 -0.60,0.37 -0.63,0.29 -0.67,0.22 -0.68,0.13 -0.70,0.05 -0.70,-0.03 -0.69,-0.11 -0.69,-0.11 L -0.69,-0.11 Z"></path></g><g transform="translate(493.4223026784036 146.93044104220468) rotate(0 4.233760921474811 7.816174008876544)" stroke="none"><path fill="#a5d8ff" d="M -0.43,0.58 Q -0.43,0.58 -1.41,0.36 -2.39,0.14 -3.03,0.05 -3.68,-0.03 -4.46,-0.08 -5.24,-0.12 -6.39,0.35 -7.55,0.83 -8.44,1.80 -9.34,2.77 -9.84,4.08 -10.35,5.40 -10.20,7.22 -10.06,9.03 -9.17,10.96 -8.27,12.89 -7.27,13.98 -6.26,15.07 -5.14,15.62 -4.01,16.18 -3.11,16.06 -2.21,15.95 -1.47,15.32 -0.72,14.69 -0.05,13.81 0.60,12.92 0.83,12.02 1.05,11.11 0.81,9.81 0.56,8.51 0.12,6.79 -0.32,5.07 -0.71,3.76 -1.09,2.45 -1.18,0.78 -1.28,-0.87 -1.50,-0.10 -1.73,0.66 -1.78,0.45 -1.83,0.24 -1.83,0.02 -1.82,-0.18 -1.77,-0.39 -1.72,-0.60 -1.62,-0.79 -1.52,-0.98 -1.37,-1.14 -1.23,-1.30 -1.05,-1.42 -0.87,-1.54 -0.67,-1.62 -0.47,-1.70 -0.26,-1.72 -0.04,-1.74 0.16,-1.72 0.38,-1.69 0.58,-1.61 0.78,-1.54 0.96,-1.41 1.13,-1.29 1.27,-1.13 1.42,-0.96 1.52,-0.77 1.61,-0.58 1.95,0.03 2.29,0.65 3.23,1.49 4.17,2.34 5.48,3.27 6.79,4.19 8.36,4.91 9.94,5.63 11.47,6.12 13.01,6.60 14.50,6.47 16.00,6.34 17.04,5.89 18.09,5.45 18.68,4.64 19.27,3.83 19.28,2.68 19.30,1.54 18.65,-0.29 18.00,-2.14 17.97,-2.24 17.95,-2.34 17.95,-2.45 17.96,-2.55 18.00,-2.65 18.05,-2.75 18.12,-2.83 18.19,-2.91 18.28,-2.96 18.37,-3.01 18.48,-3.03 18.58,-3.05 18.69,-3.04 18.79,-3.02 18.89,-2.97 18.98,-2.93 19.06,-2.85 19.13,-2.78 19.18,-2.68 19.23,-2.59 19.24,-2.48 19.26,-2.38 19.24,-2.27 19.22,-2.17 19.16,-2.07 19.11,-1.98 19.03,-1.91 18.95,-1.84 18.85,-1.80 18.76,-1.76 18.65,-1.75 18.55,-1.74 18.44,-1.77 18.34,-1.79 18.25,-1.85 18.16,-1.91 18.09,-1.99 18.03,-2.07 17.99,-2.17 17.95,-2.27 17.95,-2.38 17.95,-2.48 17.98,-2.59 18.01,-2.69 18.07,-2.77 18.14,-2.86 18.22,-2.92 18.31,-2.98 18.41,-3.01 18.51,-3.05 18.62,-3.04 18.72,-3.04 18.82,-3.00 18.92,-2.97 19.01,-2.90 19.09,-2.83 19.15,-2.74 19.20,-2.65 19.20,-2.65 19.20,-2.65 20.22,-0.61 21.23,1.42 21.35,3.18 21.48,4.93 20.55,6.52 19.63,8.11 17.99,8.92 16.35,9.73 14.18,9.89 12.02,10.06 10.21,9.49 8.41,8.91 6.55,8.02 4.68,7.13 3.18,6.03 1.68,4.93 0.41,3.65 -0.84,2.37 -1.28,1.52 -1.73,0.66 -1.78,0.45 -1.83,0.24 -1.83,0.02 -1.82,-0.18 -1.77,-0.39 -1.72,-0.60 -1.62,-0.79 -1.52,-0.98 -1.37,-1.14 -1.23,-1.30 -1.05,-1.42 -0.87,-1.54 -0.67,-1.62 -0.47,-1.70 -0.26,-1.72 -0.04,-1.74 0.16,-1.72 0.38,-1.69 0.58,-1.61 0.78,-1.54 0.96,-1.41 1.13,-1.29 1.27,-1.13 1.42,-0.96 1.51,-0.77 1.61,-0.58 1.31,0.23 1.01,1.05 1.62,1.27 2.24,1.48 2.62,2.85 3.01,4.21 3.50,6.13 3.98,8.05 4.18,10.01 4.37,11.98 3.87,13.49 3.36,15.00 2.31,16.28 1.26,17.55 -0.26,18.46 -1.79,19.38 -3.60,19.38 -5.42,19.37 -7.15,18.42 -8.88,17.47 -10.20,15.91 -11.52,14.35 -12.56,11.80 -13.60,9.25 -13.61,6.69 -13.63,4.14 -12.73,2.23 -11.83,0.32 -10.31,-1.02 -8.79,-2.37 -6.90,-2.92 -5.01,-3.47 -3.92,-3.32 -2.83,-3.17 -1.71,-2.77 -0.59,-2.38 -0.08,-1.48 0.43,-0.58 0.50,-0.52 0.56,-0.46 0.61,-0.38 0.65,-0.31 0.68,-0.23 0.71,-0.14 0.72,-0.05 0.73,0.02 0.71,0.11 0.70,0.20 0.66,0.28 0.63,0.36 0.58,0.43 0.52,0.50 0.45,0.56 0.39,0.61 0.31,0.65 0.23,0.69 0.14,0.71 0.05,0.72 -0.02,0.72 -0.11,0.72 -0.20,0.69 -0.28,0.67 -0.36,0.62 -0.43,0.58 -0.43,0.58 L -0.43,0.58 Z"></path></g><g transform="translate(499.284433185061 135.85752786296285) rotate(0 19.214761105154906 0.32567391703653925)" stroke="none"><path fill="#a5d8ff" d="M 0.26,-0.69 Q 0.26,-0.69 1.87,-0.43 3.48,-0.16 5.57,1.00 7.67,2.17 9.86,3.59 12.06,5.01 14.11,6.34 16.16,7.66 17.67,8.82 19.17,9.97 19.96,10.63 20.76,11.30 21.14,11.39 21.51,11.49 21.66,11.65 21.81,11.81 21.92,12.00 22.02,12.19 22.08,12.41 22.14,12.62 22.14,12.84 22.15,13.06 22.10,13.27 22.05,13.48 21.96,13.68 21.86,13.88 21.72,14.04 21.57,14.21 21.40,14.34 21.22,14.47 21.02,14.55 20.81,14.63 20.60,14.66 20.38,14.69 20.16,14.67 19.94,14.65 19.74,14.58 19.53,14.50 19.35,14.38 19.17,14.26 18.67,13.43 18.18,12.60 17.42,11.62 16.66,10.64 15.53,9.00 14.40,7.36 13.29,5.05 12.18,2.74 11.32,0.41 10.46,-1.91 10.26,-4.26 10.05,-6.61 10.70,-8.54 11.34,-10.46 13.42,-11.86 15.51,-13.25 17.59,-13.41 19.67,-13.56 21.63,-12.97 23.59,-12.37 25.47,-11.08 27.35,-9.79 28.92,-8.26 30.48,-6.72 31.77,-4.85 33.06,-2.98 34.06,-1.74 35.06,-0.50 35.83,0.40 36.60,1.32 37.13,0.41 37.65,-0.48 37.71,-0.57 37.76,-0.66 37.84,-0.73 37.92,-0.80 38.02,-0.84 38.12,-0.88 38.23,-0.88 38.33,-0.89 38.44,-0.86 38.54,-0.83 38.63,-0.77 38.71,-0.71 38.78,-0.63 38.84,-0.54 38.87,-0.44 38.91,-0.34 38.91,-0.23 38.91,-0.13 38.87,-0.03 38.84,0.06 38.77,0.15 38.71,0.23 38.62,0.29 38.53,0.35 38.43,0.38 38.33,0.41 38.22,0.40 38.12,0.39 38.02,0.35 37.92,0.31 37.84,0.24 37.76,0.18 37.70,0.08 37.65,-0.00 37.63,-0.10 37.60,-0.20 37.62,-0.31 37.63,-0.42 37.67,-0.51 37.72,-0.61 37.79,-0.69 37.86,-0.76 37.96,-0.81 38.05,-0.86 38.16,-0.88 38.26,-0.89 38.37,-0.88 38.47,-0.86 38.57,-0.81 38.66,-0.76 38.73,-0.68 38.80,-0.60 38.85,-0.51 38.89,-0.41 38.90,-0.30 38.92,-0.20 38.89,-0.10 38.87,0.00 38.87,0.00 38.87,0.00 38.39,1.87 37.92,3.74 37.10,4.21 36.28,4.68 35.09,4.21 33.90,3.75 33.02,2.81 32.14,1.88 31.02,0.52 29.89,-0.83 28.83,-2.42 27.77,-4.01 26.45,-5.35 25.12,-6.68 23.73,-7.72 22.35,-8.76 21.02,-9.25 19.70,-9.74 18.45,-9.81 17.21,-9.87 15.88,-9.29 14.55,-8.71 14.20,-7.74 13.85,-6.78 13.97,-4.98 14.08,-3.18 14.85,-1.03 15.62,1.11 16.57,3.16 17.53,5.22 18.62,6.81 19.71,8.41 20.61,9.95 21.51,11.49 21.66,11.65 21.81,11.81 21.92,12.00 22.02,12.19 22.08,12.41 22.14,12.62 22.14,12.84 22.15,13.06 22.10,13.27 22.05,13.48 21.96,13.68 21.86,13.88 21.72,14.04 21.57,14.21 21.40,14.34 21.22,14.47 21.02,14.55 20.81,14.63 20.60,14.66 20.38,14.69 20.16,14.67 19.94,14.65 19.74,14.58 19.53,14.50 19.35,14.38 19.17,14.26 18.87,14.16 18.57,14.07 17.78,13.38 16.99,12.70 15.64,11.58 14.29,10.45 12.28,9.06 10.27,7.67 8.19,6.22 6.10,4.76 4.30,3.58 2.50,2.41 1.12,1.55 -0.26,0.69 -0.34,0.65 -0.42,0.61 -0.48,0.55 -0.55,0.49 -0.60,0.42 -0.65,0.34 -0.69,0.26 -0.72,0.18 -0.73,0.09 -0.74,0.00 -0.73,-0.08 -0.72,-0.17 -0.69,-0.25 -0.66,-0.34 -0.61,-0.41 -0.55,-0.49 -0.49,-0.55 -0.42,-0.61 -0.34,-0.65 -0.26,-0.69 -0.17,-0.71 -0.09,-0.73 -0.00,-0.73 0.08,-0.74 0.17,-0.71 0.26,-0.69 0.26,-0.69 L 0.26,-0.69 Z"></path></g><g transform="translate(546.1814772383204 113.06035367040619) rotate(0 3.256739170365222 16.28369585182621)" stroke="none"><path fill="#a5d8ff" d="M -0.77,0.25 Q -0.77,0.25 -1.16,-0.23 -1.55,-0.72 -2.36,-1.44 -3.16,-2.17 -4.25,-1.94 -5.35,-1.71 -5.99,-1.23 -6.63,-0.74 -7.34,0.56 -8.05,1.87 -8.35,3.37 -8.66,4.87 -8.27,6.57 -7.88,8.27 -7.13,9.38 -6.37,10.50 -5.36,11.03 -4.35,11.57 -3.20,11.63 -2.06,11.70 -0.96,11.44 0.13,11.18 0.78,10.67 1.43,10.15 1.80,9.21 2.16,8.26 2.35,7.37 2.54,6.48 2.26,5.20 1.97,3.92 1.65,2.33 1.34,0.74 1.05,-0.03 0.76,-0.82 0.81,-1.14 0.87,-1.45 0.82,-1.66 0.77,-1.87 0.77,-2.08 0.78,-2.29 0.83,-2.50 0.88,-2.70 0.99,-2.89 1.09,-3.08 1.23,-3.23 1.37,-3.39 1.55,-3.51 1.73,-3.62 1.93,-3.70 2.13,-3.77 2.34,-3.79 2.55,-3.81 2.76,-3.78 2.97,-3.76 3.17,-3.68 3.36,-3.60 3.54,-3.48 3.71,-3.35 3.85,-3.19 3.99,-3.03 4.08,-2.84 4.18,-2.65 6.31,-1.06 8.45,0.52 10.04,2.95 11.64,5.37 13.26,8.49 14.89,11.60 16.17,14.65 17.45,17.70 18.06,20.83 18.66,23.97 18.73,26.51 18.80,29.05 18.18,31.17 17.55,33.30 15.90,34.83 14.25,36.36 12.00,37.02 9.75,37.68 6.96,37.53 4.17,37.38 1.95,36.68 -0.27,35.99 -1.94,34.78 -3.60,33.58 -4.39,32.18 -5.17,30.77 -4.99,29.32 -4.82,27.87 -3.72,26.70 -2.62,25.54 -0.68,24.32 1.26,23.09 1.36,23.05 1.46,23.01 1.56,23.01 1.67,23.00 1.77,23.03 1.87,23.06 1.96,23.12 2.05,23.18 2.11,23.27 2.17,23.35 2.21,23.45 2.24,23.55 2.24,23.66 2.24,23.77 2.20,23.87 2.17,23.97 2.10,24.05 2.04,24.14 1.95,24.19 1.86,24.25 1.76,24.28 1.66,24.31 1.55,24.30 1.44,24.29 1.35,24.25 1.25,24.21 1.17,24.14 1.09,24.08 1.03,23.98 0.98,23.89 0.96,23.79 0.93,23.68 0.95,23.58 0.96,23.47 1.01,23.38 1.05,23.28 1.12,23.20 1.20,23.13 1.29,23.08 1.39,23.03 1.49,23.01 1.60,23.00 1.70,23.02 1.81,23.03 1.90,23.09 1.99,23.14 2.07,23.21 2.14,23.29 2.18,23.39 2.22,23.49 2.24,23.59 2.25,23.70 2.22,23.80 2.20,23.90 2.14,23.99 2.09,24.08 2.01,24.15 1.92,24.22 1.92,24.22 1.92,24.22 0.44,25.53 -1.03,26.85 -1.60,28.16 -2.17,29.48 -1.75,30.06 -1.34,30.65 -0.19,31.48 0.95,32.32 2.71,32.89 4.47,33.46 6.66,33.66 8.85,33.85 10.37,33.55 11.89,33.26 12.96,32.55 14.02,31.84 14.49,30.44 14.95,29.05 14.95,26.83 14.95,24.62 14.51,21.85 14.07,19.08 12.88,16.17 11.70,13.26 10.17,10.28 8.65,7.31 7.23,5.11 5.81,2.90 4.75,1.62 3.69,0.34 2.28,-0.55 0.87,-1.45 0.82,-1.66 0.77,-1.87 0.77,-2.08 0.78,-2.29 0.83,-2.50 0.88,-2.70 0.99,-2.89 1.09,-3.08 1.23,-3.23 1.37,-3.39 1.55,-3.51 1.73,-3.62 1.93,-3.70 2.13,-3.77 2.34,-3.79 2.55,-3.81 2.76,-3.78 2.97,-3.76 3.17,-3.68 3.36,-3.60 3.54,-3.48 3.71,-3.35 3.85,-3.19 3.99,-3.03 4.08,-2.84 4.18,-2.65 4.12,-2.23 4.07,-1.81 4.41,-0.85 4.75,0.10 5.04,1.73 5.32,3.36 5.57,5.25 5.81,7.14 5.50,8.42 5.18,9.70 4.35,11.21 3.52,12.73 2.25,13.60 0.97,14.47 -0.69,14.83 -2.36,15.20 -4.22,14.95 -6.07,14.71 -7.71,13.65 -9.35,12.58 -10.41,10.81 -11.48,9.04 -11.86,6.60 -12.24,4.15 -11.70,2.07 -11.17,-0.00 -9.91,-1.85 -8.64,-3.69 -7.28,-4.44 -5.92,-5.18 -4.60,-5.30 -3.27,-5.41 -2.22,-5.03 -1.17,-4.65 -0.90,-4.10 -0.62,-3.54 -0.21,-3.14 0.20,-2.75 0.50,-2.13 0.80,-1.52 0.79,-0.89 0.77,-0.25 0.79,-0.16 0.81,-0.06 0.81,0.03 0.80,0.13 0.78,0.22 0.75,0.32 0.70,0.40 0.65,0.49 0.58,0.56 0.51,0.63 0.43,0.68 0.35,0.74 0.25,0.77 0.16,0.80 0.06,0.81 -0.03,0.81 -0.13,0.80 -0.22,0.78 -0.31,0.74 -0.41,0.70 -0.48,0.65 -0.56,0.59 -0.63,0.51 -0.69,0.43 -0.73,0.34 -0.77,0.25 -0.77,0.25 L -0.77,0.25 Z"></path></g><g transform="translate(557.2543904175621 103.29013615931049) rotate(0 15.958021934789713 0.6513478340730359)" stroke="none"><path fill="#a5d8ff" d="M 0.70,-0.20 Q 0.70,-0.20 1.45,1.00 2.19,2.20 2.91,3.77 3.64,5.35 4.61,6.64 5.59,7.93 6.56,8.53 7.54,9.13 8.43,9.16 9.32,9.20 10.23,8.75 11.15,8.30 11.80,7.70 12.46,7.10 12.62,6.35 12.78,5.60 12.70,4.12 12.62,2.63 12.24,0.72 11.86,-1.18 11.32,-3.11 10.78,-5.04 10.38,-6.21 9.97,-7.37 9.79,-8.08 9.61,-8.79 9.56,-9.00 9.52,-9.21 9.52,-9.43 9.53,-9.65 9.59,-9.86 9.65,-10.07 9.76,-10.27 9.87,-10.46 10.02,-10.61 10.17,-10.77 10.36,-10.89 10.54,-11.01 10.75,-11.08 10.96,-11.15 11.17,-11.17 11.39,-11.19 11.61,-11.15 11.83,-11.12 12.03,-11.04 12.23,-10.95 12.41,-10.82 12.58,-10.69 12.72,-10.52 12.86,-10.35 12.96,-10.15 13.05,-9.95 13.03,-9.09 13.01,-8.23 13.35,-7.28 13.68,-6.33 14.50,-4.86 15.31,-3.38 16.69,-1.92 18.07,-0.46 19.73,0.89 21.39,2.24 22.94,3.16 24.49,4.08 25.53,4.47 26.56,4.86 27.30,4.78 28.04,4.71 28.70,4.50 29.35,4.29 30.25,2.57 31.14,0.85 31.20,0.76 31.25,0.66 31.32,0.59 31.40,0.52 31.50,0.48 31.60,0.43 31.70,0.42 31.81,0.41 31.91,0.43 32.01,0.46 32.10,0.51 32.20,0.57 32.26,0.65 32.33,0.73 32.37,0.83 32.41,0.93 32.41,1.04 32.42,1.14 32.39,1.25 32.36,1.35 32.30,1.43 32.24,1.52 32.15,1.59 32.07,1.65 31.97,1.68 31.87,1.71 31.76,1.71 31.65,1.71 31.55,1.68 31.45,1.64 31.37,1.58 31.28,1.51 31.23,1.42 31.17,1.34 31.14,1.23 31.11,1.13 31.12,1.02 31.13,0.92 31.17,0.82 31.21,0.72 31.28,0.64 31.34,0.56 31.44,0.51 31.53,0.45 31.63,0.43 31.74,0.41 31.84,0.42 31.95,0.43 32.04,0.48 32.14,0.53 32.22,0.60 32.29,0.67 32.34,0.77 32.39,0.86 32.41,0.97 32.42,1.07 32.40,1.18 32.39,1.28 32.39,1.28 32.39,1.28 31.53,3.73 30.67,6.17 29.64,6.88 28.60,7.58 27.13,7.90 25.67,8.21 24.14,7.76 22.62,7.31 20.80,6.24 18.98,5.18 17.12,3.64 15.26,2.09 13.62,0.25 11.99,-1.58 11.02,-3.47 10.05,-5.36 9.83,-7.07 9.61,-8.79 9.56,-9.00 9.52,-9.21 9.52,-9.43 9.53,-9.65 9.59,-9.86 9.65,-10.07 9.76,-10.27 9.87,-10.46 10.02,-10.61 10.17,-10.77 10.36,-10.89 10.54,-11.01 10.75,-11.08 10.96,-11.15 11.17,-11.17 11.39,-11.19 11.61,-11.15 11.83,-11.12 12.03,-11.04 12.23,-10.95 12.41,-10.82 12.58,-10.69 12.72,-10.52 12.86,-10.35 12.96,-10.15 13.05,-9.96 13.22,-9.25 13.40,-8.54 13.82,-7.25 14.24,-5.97 14.78,-3.90 15.32,-1.83 15.70,0.37 16.09,2.58 16.05,4.64 16.01,6.69 15.39,8.09 14.77,9.50 13.59,10.45 12.40,11.40 10.75,11.94 9.10,12.48 7.47,12.20 5.85,11.92 4.43,10.90 3.00,9.88 1.87,8.24 0.74,6.61 0.02,4.82 -0.69,3.03 -0.70,1.61 -0.70,0.20 -0.71,0.11 -0.73,0.02 -0.72,-0.06 -0.71,-0.14 -0.69,-0.23 -0.66,-0.31 -0.61,-0.39 -0.56,-0.46 -0.50,-0.52 -0.43,-0.58 -0.36,-0.63 -0.28,-0.67 -0.20,-0.70 -0.11,-0.72 -0.02,-0.72 0.06,-0.73 0.14,-0.71 0.23,-0.69 0.31,-0.65 0.39,-0.61 0.46,-0.56 0.53,-0.50 0.58,-0.43 0.63,-0.36 0.67,-0.28 0.70,-0.20 0.70,-0.20 L 0.70,-0.20 Z"></path></g><g transform="translate(587.2163907849224 100.03339698894524) rotate(0 11.724261013314788 -16.93504368589923)" stroke="none"><path fill="#a5d8ff" d="M -0.32,-0.64 Q -0.32,-0.64 0.31,-1.23 0.95,-1.82 1.84,-2.70 2.72,-3.59 3.55,-5.15 4.37,-6.72 5.08,-8.65 5.78,-10.58 5.85,-12.71 5.91,-14.83 5.22,-17.46 4.52,-20.09 3.51,-22.68 2.49,-25.27 0.69,-27.29 -1.10,-29.31 -2.80,-30.46 -4.49,-31.62 -5.23,-31.72 -5.97,-31.81 -6.40,-30.58 -6.83,-29.35 -6.89,-27.03 -6.95,-24.70 -6.46,-21.31 -5.98,-17.92 -5.04,-14.66 -4.11,-11.40 -3.01,-8.97 -1.90,-6.55 -0.60,-4.90 0.69,-3.26 1.76,-2.50 2.82,-1.73 3.85,-1.82 4.88,-1.90 6.09,-2.53 7.30,-3.17 8.32,-4.06 9.34,-4.96 10.05,-6.46 10.76,-7.96 11.08,-9.12 11.41,-10.28 11.57,-10.98 11.74,-11.68 11.59,-12.02 11.45,-12.37 11.51,-12.57 11.57,-12.78 11.68,-12.96 11.79,-13.14 11.94,-13.30 12.09,-13.45 12.27,-13.56 12.46,-13.67 12.66,-13.74 12.86,-13.80 13.08,-13.82 13.29,-13.83 13.50,-13.80 13.71,-13.76 13.90,-13.67 14.10,-13.59 14.27,-13.46 14.44,-13.33 14.57,-13.16 14.71,-12.99 14.79,-12.80 14.88,-12.60 14.92,-12.39 14.96,-12.18 14.95,-11.97 14.94,-11.76 15.06,-10.45 15.17,-9.15 15.65,-8.46 16.12,-7.77 16.99,-7.43 17.86,-7.09 19.34,-7.11 20.82,-7.12 22.31,-7.44 23.81,-7.77 25.07,-8.40 26.33,-9.03 27.68,-10.31 29.02,-11.59 29.71,-12.75 30.40,-13.90 30.65,-15.27 30.89,-16.63 30.43,-17.89 29.98,-19.16 28.84,-19.52 27.70,-19.88 25.26,-19.37 22.82,-18.87 20.47,-18.00 18.11,-17.13 16.42,-16.13 14.74,-15.13 13.58,-14.42 12.43,-13.71 11.45,-12.44 10.46,-11.18 10.42,-11.08 10.38,-10.98 10.31,-10.90 10.25,-10.82 10.15,-10.76 10.06,-10.71 9.96,-10.69 9.86,-10.66 9.75,-10.68 9.64,-10.69 9.55,-10.73 9.45,-10.78 9.37,-10.85 9.30,-10.92 9.25,-11.02 9.20,-11.11 9.18,-11.22 9.16,-11.32 9.18,-11.42 9.20,-11.53 9.25,-11.62 9.30,-11.72 9.38,-11.79 9.45,-11.86 9.55,-11.91 9.65,-11.95 9.75,-11.96 9.86,-11.98 9.96,-11.95 10.06,-11.93 10.16,-11.87 10.25,-11.82 10.32,-11.74 10.38,-11.66 10.42,-11.56 10.46,-11.46 10.47,-11.35 10.47,-11.25 10.45,-11.15 10.42,-11.04 10.36,-10.96 10.30,-10.87 10.21,-10.80 10.13,-10.74 10.03,-10.71 9.93,-10.67 9.82,-10.67 9.71,-10.67 9.61,-10.71 9.51,-10.74 9.43,-10.80 9.34,-10.87 9.28,-10.96 9.22,-11.04 9.20,-11.15 9.17,-11.25 9.17,-11.36 9.18,-11.46 9.18,-11.46 9.18,-11.46 9.84,-13.82 10.51,-16.18 11.66,-17.19 12.82,-18.20 14.79,-19.48 16.77,-20.77 19.51,-21.75 22.25,-22.73 25.64,-23.06 29.02,-23.39 31.01,-22.18 33.00,-20.97 33.73,-18.54 34.47,-16.12 33.99,-14.08 33.51,-12.04 32.49,-10.49 31.48,-8.94 29.70,-7.37 27.92,-5.81 26.23,-5.03 24.54,-4.24 22.61,-3.89 20.68,-3.53 18.51,-3.71 16.34,-3.88 14.80,-4.81 13.26,-5.73 12.47,-7.13 11.68,-8.53 11.51,-9.91 11.33,-11.29 11.39,-11.83 11.45,-12.37 11.51,-12.57 11.57,-12.78 11.68,-12.96 11.79,-13.14 11.94,-13.30 12.09,-13.45 12.27,-13.56 12.46,-13.67 12.66,-13.74 12.86,-13.80 13.08,-13.82 13.29,-13.83 13.50,-13.80 13.71,-13.76 13.90,-13.67 14.10,-13.59 14.27,-13.46 14.44,-13.33 14.57,-13.16 14.71,-12.99 14.79,-12.80 14.88,-12.60 14.92,-12.39 14.96,-12.18 14.95,-11.97 14.94,-11.76 15.04,-11.68 15.13,-11.61 14.97,-10.45 14.81,-9.29 14.37,-7.82 13.93,-6.36 12.84,-4.34 11.75,-2.31 10.31,-1.09 8.87,0.12 6.92,0.96 4.96,1.79 2.97,1.63 0.98,1.47 -0.66,0.30 -2.31,-0.87 -3.86,-2.90 -5.41,-4.94 -6.62,-7.64 -7.82,-10.35 -8.80,-13.87 -9.78,-17.40 -10.27,-21.17 -10.76,-24.94 -10.46,-28.00 -10.16,-31.07 -8.88,-32.83 -7.60,-34.59 -5.18,-34.67 -2.77,-34.75 -0.57,-33.21 1.63,-31.68 3.70,-29.14 5.78,-26.60 6.84,-23.75 7.91,-20.90 8.58,-17.78 9.25,-14.65 9.01,-12.05 8.76,-9.45 7.85,-7.32 6.95,-5.19 5.74,-3.36 4.53,-1.53 3.28,-0.60 2.04,0.32 1.18,0.48 0.32,0.64 0.23,0.67 0.15,0.70 0.07,0.70 -0.01,0.71 -0.09,0.70 -0.18,0.69 -0.26,0.66 -0.34,0.62 -0.41,0.57 -0.48,0.52 -0.54,0.46 -0.59,0.39 -0.63,0.31 -0.67,0.24 -0.69,0.15 -0.71,0.07 -0.71,-0.01 -0.71,-0.10 -0.68,-0.18 -0.66,-0.26 -0.62,-0.34 -0.58,-0.41 -0.52,-0.48 -0.46,-0.54 -0.39,-0.59 -0.32,-0.64 -0.32,-0.64 L -0.32,-0.64 Z"></path></g><g transform="translate(486.25747650360006 115.01439717262534) rotate(0 -2.6053913362922003 11.398587096278334)" stroke="none"><path fill="#a5d8ff" d="M 0.89,0 Q 0.89,0 1.23,1.12 1.56,2.25 1.07,4.97 0.58,7.69 0.00,10.29 -0.57,12.89 -1.01,14.91 -1.45,16.93 -1.90,18.54 -2.34,20.15 -3.75,21.57 -5.16,23.00 -5.24,23.07 -5.33,23.13 -5.43,23.17 -5.53,23.20 -5.63,23.21 -5.74,23.21 -5.84,23.18 -5.94,23.15 -6.03,23.08 -6.11,23.02 -6.17,22.94 -6.24,22.85 -6.27,22.75 -6.30,22.65 -6.29,22.54 -6.29,22.43 -6.25,22.33 -6.22,22.23 -6.15,22.15 -6.08,22.07 -5.99,22.01 -5.90,21.96 -5.80,21.93 -5.70,21.90 -5.59,21.91 -5.49,21.92 -5.39,21.96 -5.29,22.01 -5.21,22.08 -5.13,22.15 -5.08,22.24 -5.03,22.34 -5.01,22.44 -4.99,22.54 -5.00,22.65 -5.02,22.75 -5.07,22.85 -5.11,22.94 -5.19,23.02 -5.27,23.09 -5.36,23.14 -5.46,23.19 -5.56,23.20 -5.67,23.22 -5.77,23.20 -5.88,23.17 -5.97,23.12 -6.06,23.07 -6.13,22.99 -6.20,22.91 -6.24,22.81 -6.28,22.72 -6.29,22.61 -6.30,22.50 -6.27,22.40 -6.25,22.30 -6.19,22.21 -6.13,22.12 -6.13,22.12 -6.13,22.12 -5.89,20.74 -5.66,19.37 -5.34,17.75 -5.03,16.14 -4.57,14.09 -4.12,12.05 -3.47,9.49 -2.83,6.94 -2.19,4.59 -1.56,2.23 -1.23,1.11 -0.89,0 -0.88,-0.10 -0.87,-0.21 -0.83,-0.31 -0.79,-0.41 -0.73,-0.50 -0.67,-0.59 -0.59,-0.66 -0.51,-0.73 -0.41,-0.78 -0.31,-0.84 -0.21,-0.86 -0.10,-0.89 0.00,-0.89 0.10,-0.89 0.21,-0.86 0.31,-0.84 0.41,-0.78 0.51,-0.73 0.59,-0.66 0.67,-0.59 0.73,-0.50 0.79,-0.41 0.83,-0.31 0.87,-0.21 0.88,-0.10 0.89,0.00 0.89,0.00 L 0.89,0 Z"></path></g></svg>